<svg width="72" height="72" viewBox="0 0 72 72" fill="none" xmlns="http://www.w3.org/2000/svg">
<path d="M28.2573 12.7731C36.8088 12.7731 43.7412 11.9065 43.7412 10.8376C43.7412 9.76865 36.8088 8.9021 28.2573 8.9021C19.7058 8.9021 12.7734 9.76865 12.7734 10.8376C12.7734 11.9065 19.7058 12.7731 28.2573 12.7731Z" fill="#F7F3E1"/>
<path d="M12.7742 10.8385C12.7742 11.903 19.7032 12.7739 28.2581 12.7739C36.8129 12.7739 43.7419 11.903 43.7419 10.8385C43.7419 9.77395 36.8129 8.90298 28.2581 8.90298C19.7032 8.90298 12.7742 9.77395 12.7742 10.8385ZM28.2581 5.99976C40.5484 5.99976 50.5161 8.1675 50.5161 10.8385C50.5161 12.8417 44.9323 14.5546 36.9677 15.2998C34.2968 15.5417 31.3452 15.6772 28.2581 15.6772C25.171 15.6772 22.2194 15.5417 19.5484 15.2998C11.5839 14.5546 6 12.8417 6 10.8385C6 8.1675 15.9677 5.99976 28.2581 5.99976V5.99976Z" fill="#D1013E"/>
<path d="M36.9677 55.9454C44.9322 55.2003 50.5161 53.4874 50.5161 51.4841V57.2906C50.5161 59.4486 44.0129 61.2777 35.0322 61.9067V56.1003C35.6903 56.0519 36.3387 55.9938 36.9677 55.9454Z" fill="#8F0029"/>
<path d="M19.5484 55.9454C20.1774 55.9938 20.8258 56.0519 21.4839 56.1003V61.9067C12.5032 61.2777 6 59.4486 6 57.2906V51.4841C6 53.4874 11.5839 55.2003 19.5484 55.9454Z" fill="#8F0029"/>
<path d="M35.0327 50.2934C35.6908 50.245 36.3391 50.1869 36.9682 50.1385V55.945C36.3391 55.9934 35.6908 56.0515 35.0327 56.0998C32.894 56.245 30.6198 56.3224 28.2585 56.3224C25.8972 56.3224 23.623 56.245 21.4843 56.0998C20.8262 56.0515 20.1779 55.9934 19.5488 55.945V50.1385C20.1779 50.1869 20.8262 50.245 21.4843 50.2934C23.623 50.4385 25.8972 50.516 28.2585 50.516C30.6198 50.516 32.894 50.4385 35.0327 50.2934Z" fill="#8F0029"/>
<path d="M21.4839 44.487V50.2934C20.8258 50.245 20.1774 50.187 19.5484 50.1386C11.5839 49.3934 6 47.6805 6 45.6773V39.8708C6 41.8741 11.5839 43.587 19.5484 44.3321C20.1774 44.3805 20.8258 44.4386 21.4839 44.487Z" fill="#8F0029"/>
<path d="M36.9677 50.1386C36.3387 50.187 35.6903 50.245 35.0322 50.2934V44.487C35.6903 44.4386 36.3387 44.3805 36.9677 44.3321C44.9322 43.587 50.5161 41.8741 50.5161 39.8708V45.6773C50.5161 47.6805 44.9322 49.3934 36.9677 50.1386Z" fill="#8F0029"/>
<path d="M35.0327 38.68C35.6908 38.6316 36.3391 38.5735 36.9682 38.5251V44.3316C36.3391 44.38 35.6908 44.4381 35.0327 44.4864C32.894 44.6316 30.6198 44.709 28.2585 44.709C25.8972 44.709 23.623 44.6316 21.4843 44.4864C20.8262 44.4381 20.1779 44.38 19.5488 44.3316V38.5251C20.1779 38.5735 20.8262 38.6316 21.4843 38.68C23.623 38.8251 25.8972 38.9026 28.2585 38.9026C30.6198 38.9026 32.894 38.8251 35.0327 38.68Z" fill="#8F0029"/>
<path d="M36.9677 38.5253C36.3387 38.5737 35.6903 38.6318 35.0322 38.6801V32.8737C35.6903 32.8253 36.3387 32.7672 36.9677 32.7189C44.9322 31.9737 50.5161 30.2608 50.5161 28.2576V34.064C50.5161 36.0672 44.9322 37.7801 36.9677 38.5253Z" fill="#A80132"/>
<path d="M21.4839 32.8737V38.6801C20.8258 38.6318 20.1774 38.5737 19.5484 38.5253C11.5839 37.7801 6 36.0672 6 34.064V28.2576C6 30.2608 11.5839 31.9737 19.5484 32.7189C20.1774 32.7672 20.8258 32.8253 21.4839 32.8737Z" fill="#A80132"/>
<path d="M35.0327 27.0667C35.6908 27.0183 36.3391 26.9603 36.9682 26.9119V32.7183C36.3391 32.7667 35.6908 32.8248 35.0327 32.8732C32.894 33.0183 30.6198 33.0957 28.2585 33.0957C25.8972 33.0957 23.623 33.0183 21.4843 32.8732C20.8262 32.8248 20.1779 32.7667 19.5488 32.7183V26.9119C20.1779 26.9603 20.8262 27.0183 21.4843 27.0667C23.623 27.2119 25.8972 27.2893 28.2585 27.2893C30.6198 27.2893 32.894 27.2119 35.0327 27.0667Z" fill="#A80132"/>
<path d="M21.4839 21.2604V27.0669C20.8258 27.0185 20.1774 26.9604 19.5484 26.912C11.5839 26.1669 6 24.454 6 22.4507V16.6443C6 18.6475 11.5839 20.3604 19.5484 21.1056C20.1774 21.154 20.8258 21.212 21.4839 21.2604Z" fill="#A80132"/>
<path d="M36.9677 26.912C36.3387 26.9604 35.6903 27.0185 35.0322 27.0669V21.2604C35.6903 21.212 36.3387 21.154 36.9677 21.1056C44.9322 20.3604 50.5161 18.6475 50.5161 16.6443V22.4507C50.5161 24.454 44.9322 26.1669 36.9677 26.912Z" fill="#A80132"/>
<path d="M35.0327 21.2618C32.894 21.407 30.6198 21.4844 28.2585 21.4844C25.8972 21.4844 23.623 21.407 21.4843 21.2618C20.8262 21.2134 20.1779 21.1554 19.5488 21.107V15.3005C22.2198 15.5425 25.1714 15.678 28.2585 15.678C31.3456 15.678 34.2972 15.5425 36.9682 15.3005V21.107C36.3391 21.1554 35.6908 21.2134 35.0327 21.2618Z" fill="#A80132"/>
<path d="M35.0318 56.0994V61.9058C32.8931 62.051 30.6189 62.1284 28.2576 62.1284C25.8963 62.1284 23.6221 62.051 21.4834 61.9058V56.0994C23.6221 56.2445 25.8963 56.3219 28.2576 56.3219C30.6189 56.3219 32.8931 56.2445 35.0318 56.0994Z" fill="#E3DECB"/>
<path d="M50.5162 45.6755V51.482C50.5162 53.4852 44.9323 55.1981 36.9678 55.9433V50.1368C44.9323 49.3917 50.5162 47.6788 50.5162 45.6755Z" fill="#F7F3E1"/>
<path d="M19.5484 50.1368V55.9433C11.5839 55.1981 6 53.4852 6 51.482V45.6755C6 47.6788 11.5839 49.3917 19.5484 50.1368Z" fill="#F7F3E1"/>
<path d="M35.0318 44.4861V50.2925C32.8931 50.4377 30.6189 50.5151 28.2576 50.5151C25.8963 50.5151 23.6221 50.4377 21.4834 50.2925V44.4861C23.6221 44.6312 25.8963 44.7087 28.2576 44.7087C30.6189 44.7087 32.8931 44.6312 35.0318 44.4861Z" fill="#F7F3E1"/>
<path d="M50.5162 34.0642V39.8707C50.5162 41.8739 44.9323 43.5868 36.9678 44.3319V38.5255C44.9323 37.7803 50.5162 36.0674 50.5162 34.0642Z" fill="#F7F3E1"/>
<path d="M19.5484 38.5255V44.3319C11.5839 43.5868 6 41.8739 6 39.8707V34.0642C6 36.0674 11.5839 37.7803 19.5484 38.5255Z" fill="#F7F3E1"/>
<path d="M35.0318 32.8728V38.6793C32.8931 38.8244 30.6189 38.9018 28.2576 38.9018C25.8963 38.9018 23.6221 38.8244 21.4834 38.6793V32.8728C23.6221 33.018 25.8963 33.0954 28.2576 33.0954C30.6189 33.0954 32.8931 33.018 35.0318 32.8728V32.8728Z" fill="#F7F3E1"/>
<path d="M50.5162 22.4509V28.2574C50.5162 30.2606 44.9323 31.9735 36.9678 32.7187V26.9122C44.9323 26.1671 50.5162 24.4542 50.5162 22.4509Z" fill="#F7F3E1"/>
<path d="M19.5484 26.9122V32.7187C11.5839 31.9735 6 30.2606 6 28.2574V22.4509C6 24.4542 11.5839 26.1671 19.5484 26.9122Z" fill="#F7F3E1"/>
<path d="M35.0318 21.2595V27.066C32.8931 27.2111 30.6189 27.2886 28.2576 27.2886C25.8963 27.2886 23.6221 27.2111 21.4834 27.066V21.2595C23.6221 21.4047 25.8963 21.4821 28.2576 21.4821C30.6189 21.4821 32.8931 21.4047 35.0318 21.2595Z" fill="#F7F3E1"/>
<path d="M36.9678 15.2989C44.9323 14.5538 50.5162 12.8409 50.5162 10.8376V16.6441C50.5162 18.6473 44.9323 20.3602 36.9678 21.1054V15.2989Z" fill="#F7F3E1"/>
<path d="M19.5484 15.2989V21.1054C11.5839 20.3602 6 18.6473 6 16.6441V10.8376C6 12.8409 11.5839 14.5538 19.5484 15.2989Z" fill="#F7F3E1"/>
<path d="M43.7412 10.8376C43.7412 11.0021 43.5767 11.1666 43.2573 11.3215C41.5347 10.4892 35.4767 9.86984 28.2573 9.86984C21.038 9.86984 14.9799 10.4892 13.2573 11.3215C12.938 11.1666 12.7734 11.0021 12.7734 10.8376C12.7734 9.77307 19.7025 8.9021 28.2573 8.9021C36.8121 8.9021 43.7412 9.77307 43.7412 10.8376Z" fill="#C7C3B2"/>
<path d="M35.0318 25.1326V27.0681C32.8931 27.2132 30.6189 27.2906 28.2576 27.2906C25.8963 27.2906 23.6221 27.2132 21.4834 27.0681V25.1326C23.6221 25.2777 25.8963 25.3551 28.2576 25.3551C30.6189 25.3551 32.8931 25.2777 35.0318 25.1326Z" fill="#E3DECB"/>
<path d="M50.5161 20.5154V22.4509C50.5161 24.4541 44.9322 26.167 36.9677 26.9122C36.3387 26.9605 35.6903 27.0186 35.0322 27.067V25.1315C35.6903 25.0831 36.3387 25.0251 36.9677 24.9767C44.9322 24.2315 50.5161 22.5186 50.5161 20.5154Z" fill="#7D0126"/>
<path d="M35.0318 36.7439V38.6794C32.8931 38.8245 30.6189 38.902 28.2576 38.902C25.8963 38.902 23.6221 38.8245 21.4834 38.6794V36.7439C23.6221 36.8891 25.8963 36.9665 28.2576 36.9665C30.6189 36.9665 32.8931 36.8891 35.0318 36.7439Z" fill="#E3DECB"/>
<path d="M50.5161 32.1287V34.0641C50.5161 36.0674 44.9322 37.7803 36.9677 38.5254C36.3387 38.5738 35.6903 38.6319 35.0322 38.6803V36.7448C35.6903 36.6964 36.3387 36.6383 36.9677 36.59C44.9322 35.8448 50.5161 34.1319 50.5161 32.1287Z" fill="#7D0126"/>
<path d="M35.0318 48.3572V50.2927C32.8931 50.4378 30.6189 50.5152 28.2576 50.5152C25.8963 50.5152 23.6221 50.4378 21.4834 50.2927V48.3572C23.6221 48.5023 25.8963 48.5798 28.2576 48.5798C30.6189 48.5798 32.8931 48.5023 35.0318 48.3572Z" fill="#E3DECB"/>
<path d="M50.5161 43.7419V45.6774C50.5161 47.6807 44.9322 49.3936 36.9677 50.1387C36.3387 50.1871 35.6903 50.2452 35.0322 50.2936V48.3581C35.6903 48.3097 36.3387 48.2516 36.9677 48.2032C44.9322 47.4581 50.5161 45.7452 50.5161 43.7419Z" fill="#7D0126"/>
<path d="M36.9682 19.1716V21.1071C36.3391 21.1555 35.6908 21.2136 35.0327 21.262C32.894 21.4071 30.6198 21.4845 28.2585 21.4845C25.8972 21.4845 23.623 21.4071 21.4843 21.262C20.8262 21.2136 20.1779 21.1555 19.5488 21.1071V19.1716C22.2198 19.4136 25.1714 19.5491 28.2585 19.5491C31.3456 19.5491 34.2972 19.4136 36.9682 19.1716Z" fill="#7D0126"/>
<path d="M50.5162 14.7087V16.6442C50.5162 18.6474 44.9323 20.3604 36.9678 21.1055V19.17C44.9323 18.4249 50.5162 16.712 50.5162 14.7087Z" fill="#E3DECB"/>
<path d="M36.9682 30.783V32.7184C36.3391 32.7668 35.6908 32.8249 35.0327 32.8733C32.894 33.0184 30.6198 33.0959 28.2585 33.0959C25.8972 33.0959 23.623 33.0184 21.4843 32.8733C20.8262 32.8249 20.1779 32.7668 19.5488 32.7184V30.783C22.2198 31.0249 25.1714 31.1604 28.2585 31.1604C31.3456 31.1604 34.2972 31.0249 36.9682 30.783Z" fill="#7D0126"/>
<path d="M50.5162 26.322V28.2575C50.5162 30.2607 44.9323 31.9736 36.9678 32.7188V30.7833C44.9323 30.0382 50.5162 28.3252 50.5162 26.322Z" fill="#E3DECB"/>
<path d="M36.9682 42.3962V44.3317C36.3391 44.3801 35.6908 44.4382 35.0327 44.4866C32.894 44.6317 30.6198 44.7091 28.2585 44.7091C25.8972 44.7091 23.623 44.6317 21.4843 44.4866C20.8262 44.4382 20.1779 44.3801 19.5488 44.3317V42.3962C22.2198 42.6382 25.1714 42.7737 28.2585 42.7737C31.3456 42.7737 34.2972 42.6382 36.9682 42.3962Z" fill="#7D0126"/>
<path d="M50.5162 37.9353V39.8708C50.5162 41.874 44.9323 43.5869 36.9678 44.3321V42.3966C44.9323 41.6514 50.5162 39.9385 50.5162 37.9353Z" fill="#E3DECB"/>
<path d="M50.5162 49.5486V51.4841C50.5162 53.4873 44.9323 55.2002 36.9678 55.9454V54.0099C44.9323 53.2647 50.5162 51.5518 50.5162 49.5486Z" fill="#E3DECB"/>
<path d="M50.5161 51.4841V57.2906C50.5161 59.4486 44.0129 61.2777 35.0322 61.9067V56.1003C35.6903 56.0519 36.3387 55.9938 36.9677 55.9454C38.6419 55.7906 40.2 55.5874 41.6322 55.3551H46.6451C47.6718 55.3551 48.6564 54.9473 49.3823 54.2213C50.1083 53.4954 50.5161 52.5108 50.5161 51.4841Z" fill="#7D0126"/>
<path d="M19.5484 55.9454C20.1774 55.9938 20.8258 56.0519 21.4839 56.1003V61.9067C12.5032 61.2777 6 59.4486 6 57.2906V51.4841C6 53.4874 11.5839 55.2003 19.5484 55.9454Z" fill="#7D0126"/>
<path d="M32.1662 54.3085C29.1403 53.4827 26.2705 52.1655 23.6714 50.4095H23.6617C22.9198 50.3805 22.194 50.3418 21.4843 50.2934C20.8262 50.245 20.1779 50.1869 19.5488 50.1385V55.945C20.1779 55.9934 20.8262 56.0515 21.4843 56.0998C23.623 56.245 25.8972 56.3224 28.2585 56.3224C30.6198 56.3224 32.894 56.245 35.0327 56.0998C35.6908 56.0515 36.3391 55.9934 36.9682 55.945V54.0095C35.4517 54.1469 33.8375 54.2456 32.1662 54.3085V54.3085Z" fill="#7D0126"/>
<path d="M20.9313 48.3134C19.4348 47.0279 18.0729 45.5934 16.8668 44.0321C10.3645 43.1805 6 41.6418 6 39.8708V45.6773C6 47.6805 11.5839 49.3934 19.5484 50.1386C20.1774 50.187 20.8258 50.245 21.4839 50.2934V48.3579C21.2961 48.3444 21.1171 48.3289 20.9313 48.3134Z" fill="#7D0126"/>
<path d="M19.5484 36.5898C17.1245 36.3782 14.716 36.0169 12.3368 35.5079C11.8832 34.162 11.5345 32.783 11.2935 31.3834C7.99355 30.5511 6 29.4576 6 28.2576V34.064C6 36.0672 11.5839 37.7801 19.5484 38.5253C20.1774 38.5737 20.8258 38.6318 21.4839 38.6801V36.7447C20.8258 36.6963 20.1774 36.6382 19.5484 36.5898Z" fill="#7D0126"/>
<path d="M19.5484 24.9765C16.6098 24.7362 13.6964 24.2506 10.8387 23.5249V19.654C7.80968 18.8314 6 17.7862 6 16.6443V22.4507C6 24.454 11.5839 26.1669 19.5484 26.912C20.1774 26.9604 20.8258 27.0185 21.4839 27.0669V25.1314C20.8258 25.083 20.1774 25.0249 19.5484 24.9765Z" fill="#7D0126"/>
<path d="M35.0318 56.0994V61.9058C32.8931 62.051 30.6189 62.1284 28.2576 62.1284C25.8963 62.1284 23.6221 62.051 21.4834 61.9058V56.0994C23.6221 56.2445 25.8963 56.3219 28.2576 56.3219C30.6189 56.3219 32.8931 56.2445 35.0318 56.0994Z" fill="#D9D4C2"/>
<path d="M19.5484 50.1388V55.9452C11.5839 55.2001 6 53.4872 6 51.4839V45.6775C6 47.6807 11.5839 49.3936 19.5484 50.1388Z" fill="#E3DECB"/>
<path d="M19.5484 42.3965C18.0697 42.2581 16.6732 42.0858 15.3794 41.8855C14.5111 40.5267 13.7563 39.0986 13.1226 37.6158V37.6061C8.73871 36.7255 6 35.4674 6 34.0642V39.8707C6 41.6397 10.3606 43.1823 16.8658 44.0319C17.7245 44.1429 18.6181 44.2429 19.5465 44.3319L19.5484 42.3965Z" fill="#E3DECB"/>
<path d="M11.01 29.378C10.8977 28.3632 10.8406 27.343 10.8387 26.3219V25.4606C7.80968 24.638 6 23.5929 6 22.4509V28.2574C6 30.2606 11.5839 31.9735 19.5484 32.7187V30.7832C16.669 30.5462 13.8135 30.0762 11.01 29.378V29.378Z" fill="#E3DECB"/>
<path d="M10.8387 17.7212V13.8502C7.80968 13.0247 6 11.9796 6 10.8376V16.6441C6 18.6473 11.5839 20.3602 19.5484 21.1054V19.1699C16.6099 18.9305 13.6965 18.4459 10.8387 17.7212Z" fill="#E3DECB"/>
<path d="M65.5157 39.1253C66.161 42.1689 66.161 45.314 65.5157 48.3576L64.1996 47.7866C63.5222 47.3511 62.5738 47.7672 62.0899 48.706L58.548 55.5382C58.2971 55.9263 58.1933 56.3913 58.2554 56.8493C58.3175 57.3072 58.5415 57.7278 58.8867 58.035L59.9512 58.9834C57.1316 61.9912 53.5288 64.1529 49.548 65.2253V63.6769C49.49 63.2179 49.2554 62.7994 48.8941 62.5104C48.5328 62.2213 48.0731 62.0844 47.6125 62.1285H39.8706C39.41 62.0844 38.9503 62.2213 38.5889 62.5104C38.2276 62.7994 37.9931 63.2179 37.9351 63.6769V65.2253C33.9578 64.1564 30.358 61.9979 27.5415 58.9931L28.6157 58.035C28.9581 57.7259 29.1799 57.3056 29.2419 56.8486C29.3039 56.3915 29.202 55.9273 28.9544 55.5382L25.4125 48.706C24.9189 47.7672 23.9802 47.3511 23.3028 47.7866L21.9673 48.3576C21.6435 46.8403 21.4813 45.2929 21.4835 43.7414C21.4797 42.1862 21.6452 40.6351 21.977 39.1156L23.3028 39.6866C23.9802 40.1221 24.9189 39.7156 25.4125 38.7672L28.9544 31.9447C29.2026 31.5557 29.3048 31.0914 29.2428 30.6342C29.1808 30.177 28.9586 29.7566 28.6157 29.4479L27.5512 28.4898C30.3625 25.4833 33.9596 23.3243 37.9351 22.2576V23.806C37.9931 24.265 38.2276 24.6834 38.5889 24.9725C38.9503 25.2615 39.41 25.3985 39.8706 25.3543H47.6125C48.0731 25.3985 48.5328 25.2615 48.8941 24.9725C49.2554 24.6834 49.49 24.265 49.548 23.806V22.2576C53.527 23.3278 57.1272 25.4899 59.9415 28.4995L58.8867 29.4479C58.5415 29.7551 58.3175 30.1757 58.2554 30.6336C58.1933 31.0915 58.2971 31.5566 58.548 31.9447L62.0899 38.7672C62.5738 39.7156 63.5222 40.1221 64.1996 39.6866L65.5157 39.1253ZM58.2577 43.7414C58.2577 40.8704 57.4063 38.0639 55.8112 35.6767C54.2162 33.2895 51.9491 31.429 49.2966 30.3303C46.6441 29.2316 43.7254 28.9441 40.9096 29.5042C38.0937 30.0643 35.5072 31.4469 33.4771 33.477C31.447 35.5071 30.0644 38.0936 29.5043 40.9095C28.9442 43.7253 29.2317 46.644 30.3304 49.2965C31.4291 51.949 33.2896 54.2161 35.6768 55.8112C38.064 57.4062 40.8705 58.2576 43.7415 58.2576C47.591 58.2563 51.2825 56.7265 54.0046 54.0045C56.7266 51.2825 58.2564 47.591 58.2577 43.7414V43.7414Z" fill="#D1013E"/>
<path d="M43.7427 29.2263C46.6137 29.2263 49.4203 30.0777 51.8074 31.6727C54.1946 33.2678 56.0552 35.5349 57.1538 38.1874C58.2525 40.8398 58.54 43.7585 57.9799 46.5744C57.4198 49.3903 56.0373 51.9768 54.0071 54.0069C51.977 56.037 49.3905 57.4195 46.5746 57.9797C43.7588 58.5398 40.8401 58.2523 38.1876 57.1536C35.5351 56.0549 33.268 54.1943 31.673 51.8072C30.0779 49.42 29.2266 46.6135 29.2266 43.7424C29.2278 39.8929 30.7576 36.2014 33.4797 33.4794C36.2017 30.7574 39.8932 29.2276 43.7427 29.2263V29.2263ZM51.4846 43.7424C47.062 42.4941 43.7427 35.0328 43.7427 35.0328C43.7427 35.0328 40.4233 42.4941 36.0008 43.7424C40.4233 44.9908 43.7427 52.4521 43.7427 52.4521C43.7427 52.4521 47.062 44.9908 51.4846 43.7424Z" fill="#FFFCED"/>
<path d="M43.7419 35.033C43.7419 35.033 47.0613 42.4942 51.4839 43.7426C47.0613 44.991 43.7419 52.4523 43.7419 52.4523C43.7419 52.4523 40.4226 44.991 36 43.7426C40.4226 42.4942 43.7419 35.033 43.7419 35.033Z" fill="#D1013E"/>
<path d="M49.5484 63.6774V65.2258C45.7463 66.258 41.7377 66.258 37.9355 65.2258V63.6774C37.9936 63.2183 38.2281 62.7999 38.5894 62.5108C38.9507 62.2218 39.4104 62.0848 39.871 62.129H47.613C48.0736 62.0848 48.5333 62.2218 48.8946 62.5108C49.2559 62.7999 49.4904 63.2183 49.5484 63.6774V63.6774Z" fill="#F7F3E1"/>
<path d="M23.3033 47.786C23.9807 47.3505 24.9194 47.7667 25.4129 48.7054L28.9549 55.5376C29.2025 55.9267 29.3043 56.3909 29.2423 56.848C29.1803 57.305 28.9585 57.7253 28.6162 58.0344L27.542 58.9924C24.7421 56.0267 22.8135 52.3469 21.9678 48.357L23.3033 47.786Z" fill="#F7F3E1"/>
<path d="M25.413 38.7674C24.9195 39.7158 23.9808 40.1223 23.3033 39.6868L21.9775 39.1158C22.8153 35.1258 24.7451 31.4471 27.5517 28.49L28.6163 29.4481C28.9591 29.7568 29.1813 30.1772 29.2433 30.6344C29.3053 31.0915 29.2032 31.5559 28.955 31.9448L25.413 38.7674Z" fill="#F7F3E1"/>
<path d="M49.5484 22.2583V23.8067C49.4904 24.2658 49.2559 24.6842 48.8946 24.9732C48.5333 25.2623 48.0736 25.3993 47.613 25.3551H39.871C39.4104 25.3993 38.9507 25.2623 38.5894 24.9732C38.2281 24.6842 37.9936 24.2658 37.9355 23.8067V22.2583C41.7377 21.2261 45.7463 21.2261 49.5484 22.2583V22.2583Z" fill="#F7F3E1"/>
<path d="M64.2 39.6869C63.5226 40.1223 62.5742 39.7159 62.0903 38.7675L58.5484 31.9449C58.2975 31.5568 58.1937 31.0918 58.2559 30.6339C58.318 30.1759 58.5419 29.7553 58.8871 29.4481L59.942 28.4998C62.7451 31.4593 64.6744 35.1371 65.5162 39.1256L64.2 39.6869Z" fill="#F7F3E1"/>
<path d="M62.0903 48.7054C62.5742 47.7667 63.5226 47.3505 64.2 47.786L65.5162 48.357C64.6738 52.3432 62.7484 56.02 59.9516 58.9828L58.8871 58.0344C58.5419 57.7272 58.318 57.3066 58.2559 56.8487C58.1937 56.3907 58.2975 55.9257 58.5484 55.5376L62.0903 48.7054Z" fill="#F7F3E1"/>
<path d="M43.7417 28.2576C40.6793 28.2576 37.6856 29.1657 35.1393 30.8671C32.593 32.5685 30.6084 34.9867 29.4365 37.816C28.2645 40.6453 27.9579 43.7586 28.5553 46.7622C29.1528 49.7658 30.6275 52.5247 32.7929 54.6902C34.9584 56.8556 37.7174 58.3303 40.7209 58.9278C43.7245 59.5252 46.8378 59.2186 49.6671 58.0467C52.4964 56.8747 54.9147 54.8901 56.6161 52.3438C58.3174 49.7975 59.2256 46.8039 59.2256 43.7414C59.2256 39.6349 57.5942 35.6965 54.6904 32.7927C51.7867 29.8889 47.8483 28.2576 43.7417 28.2576ZM43.7417 58.2576C40.8707 58.2576 38.0641 57.4062 35.677 55.8112C33.2898 54.2161 31.4292 51.949 30.3305 49.2965C29.2318 46.644 28.9444 43.7253 29.5045 40.9095C30.0646 38.0936 31.4471 35.5071 33.4772 33.477C35.5074 31.4469 38.0939 30.0643 40.9097 29.5042C43.7256 28.9441 46.6443 29.2316 49.2968 30.3303C51.9492 31.429 54.2164 33.2895 55.8114 35.6767C57.4065 38.0639 58.2578 40.8704 58.2578 43.7414C58.2565 47.591 56.7267 51.2824 54.0047 54.0045C51.2827 56.7265 47.5912 58.2563 43.7417 58.2576V58.2576Z" fill="#A80132"/>
<path d="M43.7427 29.2263C40.8717 29.2263 38.0651 30.0777 35.678 31.6727C33.2908 33.2678 31.4302 35.5349 30.3315 38.1874C29.2329 40.8398 28.9454 43.7585 29.5055 46.5744C30.0656 49.3903 31.4481 51.9768 33.4782 54.0069C35.5084 56.037 38.0949 57.4195 40.9107 57.9797C43.7266 58.5398 46.6453 58.2523 49.2978 57.1536C51.9503 56.0549 54.2174 54.1943 55.8124 51.8072C57.4075 49.42 58.2588 46.6135 58.2588 43.7424C58.2575 39.8929 56.7278 36.2014 54.0057 33.4794C51.2837 30.7574 47.5922 29.2276 43.7427 29.2263V29.2263ZM43.7427 57.2908C41.0631 57.2908 38.4436 56.4962 36.2156 55.0075C33.9876 53.5188 32.2511 51.4028 31.2256 48.9272C30.2002 46.4515 29.9319 43.7274 30.4546 41.0993C30.9774 38.4712 32.2678 36.0571 34.1625 34.1623C36.0573 32.2675 38.4714 30.9772 41.0995 30.4544C43.7277 29.9316 46.4518 30.1999 48.9274 31.2254C51.4031 32.2508 53.5191 33.9873 55.0078 36.2154C56.4965 38.4434 57.2911 41.0628 57.2911 43.7424C57.2911 47.3357 55.8637 50.7818 53.3229 53.3226C50.782 55.8634 47.336 57.2908 43.7427 57.2908Z" fill="#E3DECB"/>
<path d="M49.5484 63.6774V65.2258C45.7463 66.258 41.7377 66.258 37.9355 65.2258V63.6774C37.9936 63.2183 38.2281 62.7999 38.5894 62.5108C38.9507 62.2218 39.4104 62.0848 39.871 62.129H47.613C48.0736 62.0848 48.5333 62.2218 48.8946 62.5108C49.2559 62.7999 49.4904 63.2183 49.5484 63.6774V63.6774Z" fill="#E3DECB"/>
<path d="M28.6162 58.0344L27.542 58.9924C24.7421 56.0267 22.8135 52.3469 21.9678 48.357L23.3033 47.786C23.9807 47.3505 24.9194 47.7667 25.4129 48.7054L28.9549 55.5376C29.2025 55.9267 29.3043 56.3909 29.2423 56.848C29.1803 57.305 28.9585 57.7253 28.6162 58.0344Z" fill="#E3DECB"/>
<path d="M65.5162 48.357C64.6738 52.3432 62.7484 56.02 59.9516 58.9828L58.8871 58.0344C58.5419 57.7272 58.318 57.3066 58.2559 56.8487C58.1937 56.3907 58.2975 55.9257 58.5484 55.5376L62.0903 48.7054C62.5742 47.7667 63.5226 47.3505 64.2 47.786L65.5162 48.357Z" fill="#E3DECB"/>
<path d="M22.4512 43.7416C22.4508 42.3179 22.5924 40.8976 22.8741 39.502L21.977 39.1149C21.6451 40.6347 21.4796 42.186 21.4835 43.7416C21.4813 45.2931 21.6435 46.8405 21.9673 48.3578L22.8731 47.9707C22.5923 46.5785 22.451 45.1618 22.4512 43.7416V43.7416Z" fill="#8F0029"/>
<path d="M37.9347 23.2592V22.2576C33.9592 23.3243 30.362 25.4833 27.5508 28.4898L28.263 29.1314C30.8978 26.337 34.2399 24.3078 37.9347 23.2592V23.2592Z" fill="#8F0029"/>
<path d="M28.263 58.3552L27.542 58.9978C30.359 62.0012 33.9587 64.1583 37.9355 65.2262V64.2246C34.2407 63.1769 30.8984 61.1487 28.263 58.3552V58.3552Z" fill="#8F0029"/>
<path d="M59.2262 29.1402L59.9395 28.4995C57.126 25.4904 53.5268 23.3283 49.5488 22.2576V23.2592C53.2467 24.3093 56.5909 26.3416 59.2262 29.1402Z" fill="#8F0029"/>
<path d="M65.5162 39.1248L64.6104 39.5119C65.1723 42.3019 65.1723 45.176 64.6104 47.966L65.5152 48.358C66.1604 45.3144 66.1604 42.1693 65.5152 39.1257L65.5162 39.1248Z" fill="#8F0029"/>
<path d="M49.5488 64.2245V65.2261C53.5297 64.1536 57.1324 61.992 59.9521 58.9841L59.2311 58.3416C56.5946 61.1415 53.2486 63.1745 49.5488 64.2245V64.2245Z" fill="#8F0029"/>
<path d="M43.742 65.0324C41.7785 65.0321 39.8245 64.7602 37.9355 64.2244V65.226C41.7377 66.2582 45.7463 66.2582 49.5484 65.226V64.2244C47.6595 64.7602 45.7055 65.0321 43.742 65.0324V65.0324Z" fill="#C7C3B2"/>
<path d="M22.8736 47.9705L21.9678 48.3576C22.8135 52.3475 24.7421 56.0273 27.542 58.993L28.2629 58.3505C25.5298 55.4635 23.6624 51.8669 22.8736 47.9705Z" fill="#C7C3B2"/>
<path d="M28.264 29.1297L27.5517 28.488C24.7451 31.4451 22.8153 35.1239 21.9775 39.1138L22.8746 39.5009C23.6652 35.6077 25.5325 32.0144 28.264 29.1297V29.1297Z" fill="#E3DECB"/>
<path d="M43.742 22.4519C45.7055 22.4522 47.6595 22.7241 49.5484 23.2599V22.2583C45.7463 21.2261 41.7377 21.2261 37.9355 22.2583V23.2599C39.8245 22.7241 41.7785 22.4522 43.742 22.4519V22.4519Z" fill="#E3DECB"/>
<path d="M64.6111 39.5127L65.5169 39.1256C64.6751 35.1371 62.7458 31.4594 59.9427 28.4998L59.2266 29.1414C61.9565 32.0265 63.822 35.6198 64.6111 39.5127Z" fill="#E3DECB"/>
<path d="M59.2305 58.3417L59.9514 58.9843C62.7482 56.0215 64.6736 52.3448 65.5159 48.3585L64.6111 47.9666C63.8237 51.8603 61.9595 55.4549 59.2305 58.3417V58.3417Z" fill="#C7C3B2"/>
<path d="M62.1289 44.7087C62.6633 44.7087 63.0966 44.2754 63.0966 43.7409C63.0966 43.2065 62.6633 42.7732 62.1289 42.7732C61.5944 42.7732 61.1611 43.2065 61.1611 43.7409C61.1611 44.2754 61.5944 44.7087 62.1289 44.7087Z" fill="#FFFCED"/>
<path d="M25.3545 44.7087C25.8889 44.7087 26.3222 44.2754 26.3222 43.7409C26.3222 43.2065 25.8889 42.7732 25.3545 42.7732C24.82 42.7732 24.3867 43.2065 24.3867 43.7409C24.3867 44.2754 24.82 44.7087 25.3545 44.7087Z" fill="#FFFCED"/>
<path d="M34.0644 60.1931C34.5989 60.1931 35.0322 59.7598 35.0322 59.2253C35.0322 58.6908 34.5989 58.2576 34.0644 58.2576C33.53 58.2576 33.0967 58.6908 33.0967 59.2253C33.0967 59.7598 33.53 60.1931 34.0644 60.1931Z" fill="#FFFCED"/>
<path d="M53.4189 60.1931C53.9534 60.1931 54.3867 59.7598 54.3867 59.2253C54.3867 58.6908 53.9534 58.2576 53.4189 58.2576C52.8844 58.2576 52.4512 58.6908 52.4512 59.2253C52.4512 59.7598 52.8844 60.1931 53.4189 60.1931Z" fill="#FFFCED"/>
<path d="M34.0644 29.2263C34.5989 29.2263 35.0322 28.793 35.0322 28.2585C35.0322 27.724 34.5989 27.2908 34.0644 27.2908C33.53 27.2908 33.0967 27.724 33.0967 28.2585C33.0967 28.793 33.53 29.2263 34.0644 29.2263Z" fill="#FFFCED"/>
<path d="M53.4189 29.2263C53.9534 29.2263 54.3867 28.793 54.3867 28.2585C54.3867 27.724 53.9534 27.2908 53.4189 27.2908C52.8844 27.2908 52.4512 27.724 52.4512 28.2585C52.4512 28.793 52.8844 29.2263 53.4189 29.2263Z" fill="#FFFCED"/>
</svg>
