<svg width="72" height="72" viewBox="0 0 72 72" fill="none" xmlns="http://www.w3.org/2000/svg">
<path d="M27 20.9932C27.0015 20.8229 27.0309 20.654 27.087 20.4932C27.0309 20.654 27.0015 20.8229 27 20.9932V20.9932Z" fill="#A80132"/>
<path d="M44.9131 20.4932C44.9692 20.654 44.9986 20.8229 45.0001 20.9932C44.9986 20.8229 44.9692 20.654 44.9131 20.4932V20.4932Z" fill="#A80132"/>
<path d="M28.4199 21.4932H43.5799C43.8789 21.4871 44.1684 21.3874 44.4075 21.2079C44.6467 21.0285 44.8235 20.7785 44.9129 20.4932C44.8235 20.2078 44.6467 19.9578 44.4075 19.7784C44.1684 19.5989 43.8789 19.4992 43.5799 19.4932H28.4199C28.121 19.4992 27.8315 19.5989 27.5923 19.7784C27.3531 19.9578 27.1763 20.2078 27.0869 20.4932C27.1763 20.7785 27.3531 21.0285 27.5923 21.2079C27.8315 21.3874 28.121 21.4871 28.4199 21.4932V21.4932Z" fill="#A80132"/>
<path d="M44.9131 17.4932C44.9692 17.654 44.9986 17.8229 45.0001 17.9932C44.9986 17.8229 44.9692 17.654 44.9131 17.4932V17.4932Z" fill="#A80132"/>
<path d="M27 17.9932C27.0015 17.8229 27.0309 17.654 27.087 17.4932C27.0309 17.654 27.0015 17.8229 27 17.9932Z" fill="#A80132"/>
<path d="M28.4199 18.4932H43.5799C43.8789 18.4871 44.1684 18.3874 44.4075 18.2079C44.6467 18.0285 44.8235 17.7785 44.9129 17.4932C44.8235 17.2078 44.6467 16.9578 44.4075 16.7784C44.1684 16.5989 43.8789 16.4992 43.5799 16.4932H28.4199C28.121 16.4992 27.8315 16.5989 27.5923 16.7784C27.3531 16.9578 27.1763 17.2078 27.0869 17.4932C27.1763 17.7785 27.3531 18.0285 27.5923 18.2079C27.8315 18.3874 28.121 18.4871 28.4199 18.4932V18.4932Z" fill="#A80132"/>
<path d="M26.338 7.76316C26.413 7.81416 26.492 7.86316 26.579 7.91516C26.615 7.93616 26.653 7.95616 26.691 7.97716C26.791 8.02916 26.891 8.07716 27.002 8.13216C27.035 8.14816 27.069 8.16416 27.102 8.17916C27.907 8.51527 28.7449 8.76662 29.602 8.92916L29.638 8.93616C29.898 8.98916 30.169 9.03616 30.453 9.08616C32.288 9.37127 34.143 9.50738 36 9.49316C41.52 9.49316 45 8.49316 46 7.49316C46 7.49316 44 5.49316 36 5.49316C28 5.49316 26 7.49316 26 7.49316C26.0783 7.569 26.1618 7.63917 26.25 7.70316C26.277 7.72316 26.309 7.74316 26.338 7.76316Z" fill="#DE8800"/>
<path d="M27.1 8.17884C27.065 8.16384 27.031 8.14784 27 8.13184C27.036 8.14784 27.068 8.16384 27.1 8.17884Z" fill="#FFC608"/>
<path d="M26.6911 7.97704C26.6531 7.95604 26.6151 7.93604 26.5791 7.91504C26.6151 7.93604 26.6531 7.95604 26.6911 7.97704Z" fill="#FFC608"/>
<path d="M26.338 7.76215C26.309 7.74215 26.277 7.72215 26.25 7.70215C26.277 7.72215 26.309 7.74215 26.338 7.76215Z" fill="#FFC608"/>
<path d="M29.6386 8.93571L29.5996 8.92871L29.6386 8.93571Z" fill="#FFC608"/>
<path d="M30.4541 9.08616L30.8001 10.2932C31.1449 11.5029 31.8746 12.5673 32.8786 13.3252C33.8826 14.0831 35.1062 14.4931 36.3641 14.4932H40.7291C41.955 14.4884 43.1401 14.0526 44.0771 13.2622L46.0001 7.49316C45.0001 8.49316 41.5201 9.49316 36.0001 9.49316C34.1435 9.50733 32.2888 9.37122 30.4541 9.08616V9.08616Z" fill="#FFC608"/>
<path d="M41.0601 22.4932H35.0081C30.9573 24.7862 27.6067 28.138 25.3153 32.1897C23.0238 36.2413 21.8778 40.84 22.0001 45.4932C22.0001 64.4932 61.0001 61.4932 61.0001 52.4932C61.0001 45.2532 52.4401 26.9732 41.0601 22.4932Z" fill="#FFC608"/>
<path d="M26.5789 7.9147C26.4919 7.8647 26.4129 7.8147 26.3379 7.7627C26.4129 7.8137 26.4919 7.8647 26.5789 7.9147Z" fill="#F09413"/>
<path d="M30.4537 9.08652C30.1697 9.04052 29.8987 8.98652 29.6387 8.93652C29.8997 8.99352 30.1697 9.04052 30.4537 9.08652Z" fill="#F09413"/>
<path d="M27.0005 8.13059C26.8895 8.07959 26.7865 8.03059 26.6895 7.97559C26.7875 8.02759 26.8915 8.07959 27.0005 8.13059Z" fill="#F09413"/>
<path d="M26 7.49316C26.0783 7.569 26.1618 7.63917 26.25 7.70316C26.1618 7.63917 26.0783 7.569 26 7.49316V7.49316Z" fill="#F09413"/>
<path d="M29.5996 8.92871C28.7425 8.76617 27.9046 8.51481 27.0996 8.17871C27.9046 8.51481 28.7425 8.76617 29.5996 8.92871Z" fill="#F09413"/>
<path d="M67 29.4932L63.67 31.1632L62 34.4932L60.33 31.1632L57 29.4932L60.33 27.8232L62 24.4932L63.67 27.8232L67 29.4932Z" fill="#FF9C00"/>
<path d="M15 17.4932L11.67 19.1632L10 22.4932L8.33 19.1632L5 17.4932L8.33 15.8232L10 12.4932L11.67 15.8232L15 17.4932Z" fill="#FF9C00"/>
<path d="M45.24 44.2432C45.0808 44.6407 44.9993 45.065 45 45.4932V59.5232C44.01 59.5532 43.01 59.5532 42 59.5032V48.4932C42 46.8332 43.24 45.3332 45.24 44.2432Z" fill="#F09413"/>
<path d="M44.9135 20.4932C44.8241 20.2078 44.6473 19.9578 44.4081 19.7784C44.1689 19.5989 43.8794 19.4992 43.5805 19.4932C43.9675 19.4819 44.3342 19.3177 44.6004 19.0366C44.8666 18.7554 45.0104 18.3802 45.0005 17.9932C44.999 17.8229 44.9696 17.654 44.9135 17.4932C44.8241 17.2078 44.6473 16.9578 44.4081 16.7784C44.1689 16.5989 43.8794 16.4992 43.5805 16.4932H28.4205C28.1215 16.4992 27.832 16.5989 27.5929 16.7784C27.3537 16.9578 27.1769 17.2078 27.0875 17.4932C27.0314 17.654 27.002 17.8229 27.0005 17.9932C26.9905 18.3802 27.1344 18.7554 27.4006 19.0366C27.6667 19.3177 28.0335 19.4819 28.4205 19.4932C28.1215 19.4992 27.832 19.5989 27.5929 19.7784C27.3537 19.9578 27.1769 20.2078 27.0875 20.4932C27.0314 20.654 27.002 20.8229 27.0005 20.9932C26.9905 21.3802 27.1344 21.7554 27.4006 22.0366C27.6667 22.3177 28.0335 22.4819 28.4205 22.4932H43.5805C43.9675 22.4819 44.3342 22.3177 44.6004 22.0366C44.8666 21.7554 45.0104 21.3802 45.0005 20.9932C44.999 20.8229 44.9696 20.654 44.9135 20.4932V20.4932Z" fill="#A80132"/>
<path d="M44.0328 8.50421C41.426 7.74178 38.7142 7.40015 35.9998 7.49221C33.2853 7.40015 30.5736 7.74178 27.9668 8.50421C30.5802 9.23243 33.2878 9.56545 35.9998 9.49221C38.7118 9.56545 41.4194 9.23243 44.0328 8.50421V8.50421Z" fill="#C97C10"/>
<path d="M42.1605 19.4932H43.5805C43.9675 19.4819 44.3342 19.3177 44.6004 19.0366C44.8666 18.7554 45.0104 18.3802 45.0005 17.9932C44.999 17.8229 44.9696 17.654 44.9135 17.4932C44.8241 17.7785 44.6473 18.0285 44.4081 18.2079C44.1689 18.3874 43.8794 18.4871 43.5805 18.4932H28.4205C28.1215 18.4871 27.832 18.3874 27.5929 18.2079C27.3537 18.0285 27.1769 17.7785 27.0875 17.4932C27.0314 17.654 27.002 17.8229 27.0005 17.9932C26.9905 18.3802 27.1344 18.7554 27.4006 19.0366C27.6667 19.3177 28.0335 19.4819 28.4205 19.4932H42.1605Z" fill="#7D0126"/>
<path d="M41.0605 22.4932H43.5805C43.9675 22.4819 44.3342 22.3177 44.6004 22.0366C44.8666 21.7554 45.0104 21.3802 45.0005 20.9932C44.999 20.8229 44.9696 20.654 44.9135 20.4932C44.8241 20.7785 44.6473 21.0285 44.4081 21.208C44.1689 21.3874 43.8794 21.4871 43.5805 21.4932H28.4205C28.1215 21.4871 27.832 21.3874 27.5929 21.208C27.3537 21.0285 27.1769 20.7785 27.0875 20.4932C27.0314 20.654 27.002 20.8229 27.0005 20.9932C26.9905 21.3802 27.1344 21.7554 27.4006 22.0366C27.6667 22.3177 28.0335 22.4819 28.4205 22.4932H41.0605Z" fill="#7D0126"/>
<path d="M42.16 16.4932H43L44.077 13.2622C43.14 14.0526 41.9549 14.4884 40.729 14.4932H36.364C35.1061 14.4931 33.8825 14.0831 32.8785 13.3252C31.8745 12.5673 31.1448 11.5029 30.8 10.2932L30.454 9.08316C30.17 9.03716 29.899 8.98316 29.639 8.93316L29.6 8.92916C28.7429 8.76662 27.905 8.51527 27.1 8.17916C27.064 8.16416 27.032 8.14816 27 8.13216C26.889 8.08116 26.785 8.03216 26.689 7.97716C26.651 7.95616 26.613 7.93616 26.577 7.91516C26.49 7.86516 26.411 7.81516 26.336 7.76316C26.307 7.74316 26.275 7.72316 26.248 7.70316C26.1605 7.6391 26.0776 7.56892 26 7.49316L29 16.4932H42.16Z" fill="#F09413"/>
<path d="M22 45.4932C21.8777 40.84 23.0237 36.2413 25.3152 32.1897C27.6067 28.138 30.9572 24.7862 35.008 22.4932H30.94C19.56 26.9732 11 45.2532 11 52.4932C11 60.7732 22.19 67.4932 36 67.4932C49.81 67.4932 61 60.7732 61 52.4932C61 61.4932 22 64.4932 22 45.4932Z" fill="#FF9C00"/>
<path d="M47.9998 12.4926C47.802 12.4926 47.6087 12.4339 47.4443 12.324C47.2799 12.2141 47.1518 12.058 47.0761 11.8753C47.0004 11.6926 46.9806 11.4915 47.0192 11.2976C47.0578 11.1036 47.153 10.9254 47.2928 10.7856L53.2928 4.78559C53.4814 4.60344 53.734 4.50264 53.9962 4.50492C54.2584 4.5072 54.5092 4.61237 54.6946 4.79778C54.88 4.98318 54.9852 5.234 54.9875 5.49619C54.9897 5.75839 54.8889 6.01099 54.7068 6.19959L48.7068 12.1996C48.5193 12.3871 48.265 12.4925 47.9998 12.4926Z" fill="#FFC608"/>
<path d="M48.0002 18.4933C47.7855 18.4936 47.5764 18.4247 47.4039 18.2969C47.2313 18.1691 47.1045 17.9892 47.0421 17.7837C46.9798 17.5782 46.9852 17.3582 47.0576 17.156C47.13 16.9539 47.2656 16.7804 47.4442 16.6613L59.4443 8.66129C59.5535 8.58841 59.6761 8.53776 59.8049 8.51223C59.9337 8.48671 60.0663 8.48681 60.1951 8.51253C60.3239 8.53825 60.4464 8.58909 60.5555 8.66214C60.6647 8.73519 60.7584 8.82903 60.8313 8.93829C60.9041 9.04755 60.9548 9.17009 60.9803 9.29893C61.0058 9.42776 61.0057 9.56036 60.98 9.68916C60.9543 9.81795 60.9035 9.94042 60.8304 10.0496C60.7574 10.1587 60.6635 10.2524 60.5543 10.3253L48.5543 18.3253C48.3902 18.4347 48.1974 18.4931 48.0002 18.4933Z" fill="#FFC608"/>
<path d="M24.0004 12.4926C23.7352 12.4925 23.4809 12.3871 23.2934 12.1996L17.2934 6.19959C17.1112 6.01099 17.0105 5.75839 17.0127 5.49619C17.015 5.234 17.1202 4.98318 17.3056 4.79778C17.491 4.61237 17.7418 4.5072 18.004 4.50492C18.2662 4.50264 18.5188 4.60344 18.7074 4.78559L24.7074 10.7856C24.8472 10.9254 24.9424 11.1036 24.981 11.2976C25.0196 11.4915 24.9998 11.6926 24.9241 11.8753C24.8484 12.058 24.7203 12.2141 24.5559 12.324C24.3915 12.4339 24.1982 12.4926 24.0004 12.4926Z" fill="#FFC608"/>
<path d="M24.0001 18.4933C23.8029 18.4931 23.6102 18.4347 23.4461 18.3253L11.4461 10.3253C11.2254 10.1781 11.0723 9.94927 11.0203 9.68916C10.9946 9.56037 10.9945 9.42777 11.02 9.29893C11.0456 9.1701 11.0962 9.04755 11.1691 8.93829C11.242 8.82903 11.3357 8.7352 11.4448 8.66215C11.554 8.5891 11.6764 8.53826 11.8052 8.51254C12.0653 8.46059 12.3354 8.5141 12.5561 8.66129L24.5561 16.6613C24.7348 16.7804 24.8703 16.9539 24.9427 17.156C25.0152 17.3582 25.0206 17.5782 24.9582 17.7837C24.8959 17.9892 24.769 18.1691 24.5965 18.2969C24.4239 18.4247 24.2148 18.4936 24.0001 18.4933V18.4933Z" fill="#FFC608"/>
<path d="M40.0557 45.4032L36.9997 43.8752V35.4932H38.9997V36.4932H40.9997V34.4932C40.9997 34.2279 40.8944 33.9736 40.7068 33.7861C40.5193 33.5985 40.2649 33.4932 39.9997 33.4932H36.9997V31.4932H34.9997V33.4932H34.3257C33.1258 33.493 31.961 33.898 31.0201 34.6426C30.0791 35.3872 29.4172 36.4277 29.1415 37.5955C28.8658 38.7633 28.9926 39.9899 29.5012 41.0767C30.0098 42.1635 30.8704 43.0467 31.9437 43.5832L34.9997 45.1112V53.4932H30.9997V52.4932H28.9997V54.4932C28.9997 54.7584 29.1051 55.0127 29.2926 55.2003C29.4802 55.3878 29.7345 55.4932 29.9997 55.4932H34.9997V57.4932H36.9997V55.4932H37.6737C38.8736 55.4933 40.0384 55.0883 40.9794 54.3437C41.9203 53.5992 42.5822 52.5587 42.8579 51.3909C43.1336 50.2231 43.0069 48.9964 42.4983 47.9096C41.9897 46.8228 41.129 45.9396 40.0557 45.4032V45.4032ZM32.8377 41.7932C32.168 41.4578 31.6311 40.9062 31.3139 40.2277C30.9967 39.5493 30.9178 38.7836 31.09 38.0546C31.2621 37.3257 31.6753 36.6762 32.2625 36.2114C32.8498 35.7465 33.5767 35.4934 34.3257 35.4932H34.9997V42.8752L32.8377 41.7932ZM37.6737 53.4932H36.9997V46.1112L39.1617 47.1932C39.8314 47.5285 40.3684 48.0801 40.6856 48.7586C41.0028 49.4371 41.0817 50.2028 40.9095 50.9317C40.7373 51.6606 40.3242 52.3101 39.7369 52.775C39.1497 53.2398 38.4227 53.4929 37.6737 53.4932V53.4932Z" fill="#FFDF75"/>
<path d="M37 55.4938V56.4608C37.7596 56.4146 38.5003 56.2052 39.1716 55.8468C39.843 55.4883 40.4291 54.9893 40.89 54.3838C39.9702 55.0991 38.8392 55.4894 37.674 55.4938H37Z" fill="#FFAA00"/>
<path d="M35 55.4932H30C29.7348 55.4932 29.4804 55.3878 29.2929 55.2003C29.1054 55.0127 29 54.7584 29 54.4932V53.4932H28V55.4932C28 55.7584 28.1054 56.0127 28.2929 56.2003C28.4804 56.3878 28.7348 56.4932 29 56.4932H34V58.4932H36V57.4932H35V55.4932Z" fill="#FFAA00"/>
<path d="M39 35.4932H37V36.4932H38V37.4932H40V36.4932H39V35.4932Z" fill="#FFAA00"/>
<path d="M35 33.4932V32.4932H34V33.5262C34.11 33.5192 34.214 33.4932 34.326 33.4932H35Z" fill="#FFAA00"/>
<path d="M35 45.1105L31.944 43.5825C31.2414 43.2353 30.6248 42.7363 30.1388 42.1214C29.6528 41.5066 29.3096 40.7914 29.1341 40.0276C28.9586 39.2638 28.955 38.4705 29.1238 37.7052C29.2926 36.9399 29.6295 36.2217 30.11 35.6025C29.3883 36.1465 28.8177 36.8659 28.4524 37.6925C28.087 38.519 27.9391 39.4253 28.0227 40.3251C28.1063 41.2249 28.4185 42.0885 28.9298 42.8336C29.4411 43.5788 30.1345 44.1808 30.944 44.5825L34 46.1105V53.4925H35V45.1105Z" fill="#FFAA00"/>
<path d="M31.5332 37.0262C32.067 36.6793 32.6896 36.4942 33.3262 36.4932H34.0002V42.3752L35.0002 42.8752V35.4932H34.3262C33.7695 35.4942 33.222 35.6351 32.7339 35.903C32.2459 36.1709 31.833 36.5571 31.5332 37.0262V37.0262Z" fill="#FFAA00"/>
<path d="M41 50.1664C41.002 49.5484 40.8308 48.9423 40.506 48.4167C40.1811 47.8911 39.7156 47.4669 39.162 47.1924L37 46.1104V47.6104L38.162 48.1914C38.5796 48.3995 38.9485 48.6936 39.2445 49.0543C39.5405 49.4149 39.757 49.8341 39.8797 50.2842C40.0025 50.7344 40.0287 51.2054 39.9567 51.6664C39.8847 52.1274 39.7161 52.568 39.462 52.9594C39.932 52.6601 40.3192 52.2475 40.588 51.7594C40.8568 51.2714 40.9984 50.7235 41 50.1664V50.1664Z" fill="#FFAA00"/>
<path d="M45 61.4932V45.4932C44.9993 45.065 45.0808 44.6407 45.24 44.2432C43.24 45.3332 42 46.8332 42 48.4932V64.4932C42.0198 65.3785 42.3448 66.2298 42.92 66.9032C44.6608 66.6158 46.3762 66.1911 48.05 65.6332C46.16 64.5632 45 63.1032 45 61.4932V61.4932Z" fill="#FF9C00"/>
<path d="M42.2 47.3564C42.0691 47.721 42.0015 48.1052 42 48.4924V53.2504C42.6134 52.3983 42.9599 51.3832 42.9955 50.3338C43.0311 49.2845 42.7542 48.2482 42.2 47.3564V47.3564Z" fill="#FFC052"/>
<path d="M67 57.4932V61.4932C67 64.8032 62.08 67.4932 56 67.4932C49.92 67.4932 45 64.8032 45 61.4932V57.4932C45 60.8032 49.92 63.4932 56 63.4932C62.08 63.4932 67 60.8032 67 57.4932Z" fill="#FFCB52"/>
<path d="M67 49.4932V53.4932C67 56.8032 62.08 59.4932 56 59.4932C49.92 59.4932 45 56.8032 45 53.4932V49.4932C45 52.8032 49.92 55.4932 56 55.4932C62.08 55.4932 67 52.8032 67 49.4932Z" fill="#FFCB52"/>
<path d="M67 53.4932V57.4932C67 60.8032 62.08 63.4932 56 63.4932C49.92 63.4932 45 60.8032 45 57.4932V53.4932C45 56.8032 49.92 59.4932 56 59.4932C62.08 59.4932 67 56.8032 67 53.4932Z" fill="#F09413"/>
<path d="M67 45.4932V49.4932C67 52.8032 62.08 55.4932 56 55.4932C49.92 55.4932 45 52.8032 45 49.4932V45.4932C45 48.8032 49.92 51.4932 56 51.4932C62.08 51.4932 67 48.8032 67 45.4932Z" fill="#F09413"/>
<path d="M67 45.4932C67 48.8032 62.08 51.4932 56 51.4932C49.92 51.4932 45 48.8032 45 45.4932C45 42.1832 49.92 39.4932 56 39.4932C62.08 39.4932 67 42.1832 67 45.4932ZM63 45.4932C63 43.8332 59.87 42.4932 56 42.4932C52.13 42.4932 49 43.8332 49 45.4932C49 47.1532 52.13 48.4932 56 48.4932C59.87 48.4932 63 47.1532 63 45.4932Z" fill="#FFC052"/>
<path d="M56 48.4932C59.866 48.4932 63 47.15 63 45.4932C63 43.8363 59.866 42.4932 56 42.4932C52.134 42.4932 49 43.8363 49 45.4932C49 47.15 52.134 48.4932 56 48.4932Z" fill="#FFDF75"/>
<path d="M63.0001 45.4932C63.0017 45.665 62.9677 45.8352 62.9001 45.9932C62.3501 44.5732 59.4701 43.4932 56.0001 43.4932C52.5301 43.4932 49.6501 44.5732 49.1001 45.9932C49.0325 45.8352 48.9984 45.665 49.0001 45.4932C49.0001 43.8332 52.1301 42.4932 56.0001 42.4932C59.8701 42.4932 63.0001 43.8332 63.0001 45.4932Z" fill="#C97C10"/>
<path d="M67 47.4932V49.4932C67 52.8032 62.08 55.4932 56 55.4932C53.5967 55.529 51.2124 55.0624 49 54.1232C46.56 53.0232 45 51.3532 45 49.4932V45.4932C45 47.3532 46.56 49.0232 49 50.1232C48.9969 50.7416 49.1968 51.344 49.5688 51.838C49.9409 52.332 50.4647 52.6904 51.06 52.8582C52.6712 53.2878 54.3325 53.5014 56 53.4932C62.08 53.4932 67 50.8032 67 47.4932Z" fill="#DE8800"/>
<path d="M67 51.4932V53.4932C67 56.8032 62.08 59.4932 56 59.4932C53.5967 59.529 51.2124 59.0624 49 58.1232C46.56 57.0232 45 55.3532 45 53.4932V49.4932C45 51.3532 46.56 53.0232 49 54.1232C48.9969 54.7416 49.1968 55.344 49.5688 55.838C49.9409 56.332 50.4647 56.6904 51.06 56.8582C52.6712 57.2878 54.3325 57.5014 56 57.4932C62.08 57.4932 67 54.8032 67 51.4932Z" fill="#DE8800"/>
<path d="M67 55.4932V57.4932C67 60.8032 62.08 63.4932 56 63.4932C53.5967 63.529 51.2124 63.0624 49 62.1232C46.56 61.0232 45 59.3532 45 57.4932V53.4932C45 55.3532 46.56 57.0232 49 58.1232C48.9969 58.7416 49.1968 59.344 49.5688 59.838C49.9409 60.332 50.4647 60.6904 51.06 60.8582C52.6712 61.2878 54.3325 61.5014 56 61.4932C62.08 61.4932 67 58.8032 67 55.4932Z" fill="#DE8800"/>
<path d="M67 59.4932V61.4932C67 64.8032 62.08 67.4932 56 67.4932C53.5967 67.529 51.2124 67.0624 49 66.1232C46.56 65.0232 45 63.3532 45 61.4932V57.4932C45 59.3532 46.56 61.0232 49 62.1232C48.9969 62.7416 49.1968 63.344 49.5688 63.838C49.9409 64.332 50.4647 64.6904 51.06 64.8582C52.6712 65.2878 54.3325 65.5014 56 65.4932C62.08 65.4932 67 62.8032 67 59.4932Z" fill="#DE8800"/>
</svg>
