<svg width="72" height="72" viewBox="0 0 72 72" fill="none" xmlns="http://www.w3.org/2000/svg">
<g clip-path="url(#clip0_169_6650)">
<path d="M54.0027 48.7117C53.7183 46.1344 55.5625 45.9307 55.2781 43.3534C54.9938 40.7761 53.1496 40.9794 52.8652 38.4021C52.5808 35.8252 54.425 35.6215 54.1406 33.0445C53.8563 30.4676 52.0121 30.6712 51.7277 28.0942C51.4433 25.5181 53.2875 25.3148 53.0034 22.7388C52.7191 20.1621 50.8576 20.3657 50.5732 17.7891H20.9509C20.6665 20.3657 18.7745 20.1621 18.4902 22.7388C18.2058 25.3148 20.05 25.5181 19.7659 28.0942C19.4815 30.6712 17.6373 30.4676 17.353 33.0445C17.0686 35.6215 18.9128 35.8252 18.6284 38.4021C18.344 40.9794 16.4998 40.7761 16.2155 43.3534C15.9311 45.9307 17.7753 46.1344 17.4909 48.7117H54.0027Z" fill="#6D2E03"/>
<path d="M58.1551 54.6473V63.9799C58.1551 65.7175 56.7474 67.1221 55.0128 67.1221H16.4821C14.7476 67.1221 13.3398 65.7175 13.3398 63.9799V54.6473C13.3398 47.706 18.9677 42.0781 25.909 42.0781H45.586C52.5273 42.0781 58.1551 47.706 58.1551 54.6473Z" fill="#58595B"/>
<path d="M32.1357 35.3438V44.2814C32.1357 44.9727 32.3343 45.6498 32.7076 46.2318C34.1286 48.4465 37.3655 48.4465 38.7864 46.2318C39.1597 45.6498 39.3583 44.973 39.3583 44.2814V35.3441H32.1357V35.3438Z" fill="#FCC4AE"/>
<path d="M32.1367 38.1385C33.2717 38.5181 34.4849 38.7267 35.7478 38.7267C37.0107 38.7267 38.2243 38.5181 39.3593 38.1382V35.3438H32.1367V38.1385Z" fill="#F2AD97"/>
<path d="M35.7482 37.1546C29.4624 37.1546 24.3672 32.0591 24.3672 25.7735V19.8654C24.3672 13.5799 29.4627 8.48438 35.7482 8.48438C42.0337 8.48438 47.1293 13.5799 47.1293 19.8654V25.7732C47.1293 32.0591 42.0337 37.1546 35.7482 37.1546Z" fill="#FFD2C0"/>
<path d="M24.3672 19.8655V22.9028C28.8022 19.9421 31.6394 14.8909 31.6218 9.35264C31.6218 9.32028 31.6215 9.28822 31.6211 9.25586C27.3759 10.9087 24.3672 15.0358 24.3672 19.8655Z" fill="#F2AD97"/>
<path d="M42.9722 11.0703C44.588 13.0355 45.5586 15.5512 45.5586 18.2938V24.2016C45.5586 30.4871 40.4631 35.5827 34.1776 35.5827C31.435 35.5827 28.919 34.612 26.9541 32.9962C29.0415 35.5346 32.2058 37.1538 35.7487 37.1538C42.0342 37.1538 47.1298 32.0583 47.1298 25.7728V19.8649C47.1298 16.322 45.5106 13.1577 42.9722 11.0703V11.0703Z" fill="#FCC4AE"/>
<path d="M24.3673 25.7735V22.2168C22.3427 22.2168 20.7012 23.858 20.7012 25.8829C20.7012 27.9075 22.3424 29.549 24.3673 29.549C24.5806 29.549 24.7887 29.527 24.992 29.4921C24.5891 28.326 24.3673 27.076 24.3673 25.7735Z" fill="#FFD2C0"/>
<path d="M47.1286 22.2168V25.7736C47.1286 27.076 46.9067 28.3263 46.5039 29.4918C46.7072 29.5267 46.9152 29.5487 47.1286 29.5487C49.1532 29.5487 50.7947 27.9075 50.7947 25.8826C50.7947 23.858 49.1532 22.2168 47.1286 22.2168Z" fill="#FFD2C0"/>
<path d="M49.3876 22.9961C49.8753 23.6186 50.1662 24.4029 50.1662 25.2551C50.1662 27.2174 48.6243 28.8194 46.6862 28.9165C46.6302 29.1107 46.5696 29.3027 46.5039 29.4925C46.7072 29.5273 46.9152 29.5496 47.1286 29.5496C49.1532 29.5496 50.7947 27.9084 50.7947 25.8835C50.7947 24.7108 50.2442 23.667 49.3876 22.9961V22.9961Z" fill="#FCC4AE"/>
<path d="M31.6213 6.21019C31.6404 12.2534 28.2606 17.7169 23.1151 20.5167C22.0266 21.109 20.6902 20.2565 20.7992 19.0219C21.1691 14.8285 23.0328 10.9905 25.9623 8.28724C27.5451 6.82136 29.4383 5.69108 31.5744 5.01172C31.6046 5.40765 31.6213 5.80609 31.6213 6.21019V6.21019Z" fill="#6D2E03"/>
<path d="M49.7722 19.5205C40.2316 24.4458 28.2372 18.8242 25.9619 8.28814C27.5359 6.83043 29.4165 5.70455 31.5382 5.02424C40.4079 2.14497 49.2472 8.89491 50.594 17.9167C50.6911 18.5688 50.358 19.2183 49.7722 19.5205V19.5205Z" fill="#8C3F0A"/>
<path d="M50.594 17.9167C49.2472 8.89521 40.4079 2.14495 31.5382 5.02422C29.4165 5.70453 27.5359 6.83041 25.9619 8.28812C26.0204 8.5593 26.0857 8.82733 26.1567 9.09191C26.8685 8.72709 27.6157 8.41664 28.3956 8.16651C37.0906 5.34379 45.7564 11.7751 47.3631 20.5286C48.1782 20.2624 48.9835 19.9275 49.7719 19.5205C50.3583 19.2182 50.6914 18.5687 50.594 17.9167V17.9167Z" fill="#7C3108"/>
<path d="M50.594 17.9167C49.2472 8.89521 40.4079 2.14495 31.5382 5.02422C29.4165 5.70453 27.5359 6.83041 25.9619 8.28812C25.9808 8.37484 25.9999 8.46126 26.02 8.54736C27.2125 7.71716 28.5348 7.05477 29.9671 6.59537C38.8368 3.71609 47.676 10.466 49.0228 19.4879C49.0426 19.6198 49.0442 19.7515 49.0304 19.8803C49.2792 19.7672 49.5268 19.6475 49.7726 19.5205C50.3583 19.2182 50.6914 18.5687 50.594 17.9167Z" fill="#6D2E03"/>
<path d="M30.9052 25.662C31.6667 25.662 32.284 25.0446 32.284 24.2831C32.284 23.5216 31.6667 22.9043 30.9052 22.9043C30.1437 22.9043 29.5264 23.5216 29.5264 24.2831C29.5264 25.0446 30.1437 25.662 30.9052 25.662Z" fill="#995222"/>
<path d="M41.6015 25.662C42.363 25.662 42.9803 25.0446 42.9803 24.2831C42.9803 23.5216 42.363 22.9043 41.6015 22.9043C40.84 22.9043 40.2227 23.5216 40.2227 24.2831C40.2227 25.0446 40.84 25.662 41.6015 25.662Z" fill="#995222"/>
<path d="M24.3664 25.7746V23.7773C23.2028 23.7773 22.2598 24.7207 22.2598 25.8839C22.2598 27.0472 23.2031 27.9905 24.3664 27.9905C24.4405 27.9905 24.5103 27.9761 24.5825 27.9688C24.4437 27.2581 24.3664 26.5256 24.3664 25.7746V25.7746Z" fill="#F2AD97"/>
<path d="M47.1293 25.7746V23.7773C48.2925 23.7773 49.2359 24.7207 49.2359 25.8839C49.2359 27.0472 48.2925 27.9905 47.1293 27.9905C47.0551 27.9905 46.9854 27.9761 46.9131 27.9688C47.052 27.2581 47.1293 26.5256 47.1293 25.7746V25.7746Z" fill="#F2AD97"/>
<path d="M42.3393 20.068C39.9952 20.068 37.7296 19.5558 35.6117 18.5439C33.5723 17.5727 31.7404 16.1429 30.3075 14.4178C30.2007 14.2858 30.1504 14.1228 30.1661 13.9559C30.1818 13.7894 30.2604 13.6385 30.3923 13.5317C30.65 13.3177 31.0616 13.3589 31.2753 13.6134C34.0122 16.9191 38.0438 18.8107 42.339 18.8107C43.1528 18.8107 43.9636 18.7416 44.7491 18.6002C45.0885 18.5405 45.4187 18.773 45.4781 19.1092C45.5378 19.4518 45.3116 19.7786 44.9691 19.8379C44.1119 19.9925 43.2257 20.068 42.3393 20.068V20.068ZM29.3651 12.5799C29.1389 12.5799 28.9283 12.4605 28.8184 12.2657C28.7335 12.118 28.7115 11.9514 28.7555 11.788C28.7995 11.6243 28.9063 11.4895 29.0509 11.4075C29.3431 11.2381 29.7422 11.3509 29.9087 11.64C30.0816 11.9417 29.9747 12.3254 29.6731 12.4979C29.5788 12.5516 29.472 12.5799 29.3651 12.5799Z" fill="#995222"/>
<path d="M37.6125 29.9922C37.9255 29.9922 38.1627 30.2844 38.0904 30.5892C37.8211 31.7214 36.8034 32.5635 35.5889 32.5635C34.3744 32.5635 33.3566 31.7214 33.0873 30.5892C33.015 30.2847 33.2519 29.9922 33.5652 29.9922H37.6125Z" fill="#E59076"/>
<path d="M47.8365 42.2812C50.3167 44.5773 51.8693 47.8607 51.8693 51.5067V60.8393C51.8693 62.5748 50.4625 63.9816 48.727 63.9816H13.3398C13.3398 65.717 14.7466 67.1239 16.4821 67.1239H55.0116C56.7471 67.1239 58.1539 65.717 58.1539 63.9816V54.649C58.1539 48.4763 53.7038 43.3427 47.8365 42.2812Z" fill="#414042"/>
<path d="M43.8704 42.0786L39.3703 40.0487V42.0004L35.7476 47.6458L32.1249 42.0004L32.1252 40.0487L27.6279 42.0786L35.7476 64.1177H35.7479L43.8704 42.0786Z" fill="#D1D3D4"/>
<path d="M27.6279 42.0786L31.0194 51.278C31.1573 51.6522 31.6365 51.7572 31.9187 51.4753L35.7476 47.6458L32.1249 42.0001V40.0487L27.6279 42.0786Z" fill="#F1F2F2"/>
<path d="M43.8699 42.0786L40.4756 51.278C40.3376 51.6522 39.8584 51.7572 39.5763 51.4753L35.7471 47.6458L39.3698 42.0001V40.0487L43.8699 42.0786Z" fill="#F1F2F2"/>
<path d="M38.7807 50.679L36.5211 52.9386C36.0944 53.3653 35.4022 53.3653 34.9754 52.9386L32.7158 50.679L35.7484 47.6464L38.7807 50.679Z" fill="#58595B"/>
<path d="M36.5201 52.9385C36.0934 53.3655 35.4011 53.3655 34.9744 52.9385L34.1998 52.1639L33.5283 58.0972L35.7471 64.12L37.9659 58.0972L37.2943 52.1639L36.5201 52.9385Z" fill="#414042"/>
<path d="M35.7479 64.118L25.017 52.4947C24.8096 52.2684 24.8253 51.9165 25.0578 51.7154L26.984 50.0154C27.3423 49.7012 27.1537 49.1104 26.6824 49.0602L24.4168 48.8182C24.0649 48.7805 23.8418 48.4223 23.9612 48.0892L26.1419 42.078H27.6282L35.7479 64.118Z" fill="#808285"/>
<path d="M47.0782 48.8182L44.8126 49.0602C44.3412 49.1104 44.1527 49.7012 44.5109 50.0154L46.4371 51.7154C46.6697 51.9165 46.6854 52.2684 46.478 52.4947L35.7471 64.118L43.8699 42.078H45.3625L47.5338 48.0892C47.6532 48.4223 47.4301 48.7805 47.0782 48.8182V48.8182Z" fill="#808285"/>
<path d="M48.9395 71.8183L47.599 67.7481C47.5041 67.4597 47.1459 67.3613 46.9168 67.5605L43.6841 70.3735C43.3667 70.6494 42.8843 70.3462 42.9959 69.9405L47.3982 53.9277L54.1548 55.7851L49.7524 71.7979C49.6409 72.2036 49.0712 72.2177 48.9395 71.8183V71.8183Z" fill="#8C3F0A"/>
<path d="M47.3976 53.9277L47.2295 54.5392L51.7619 55.7855L48.0751 69.1951L48.9389 71.8183C49.0702 72.2177 49.6403 72.2036 49.7518 71.7979L54.1541 55.7855L47.3976 53.9277Z" fill="#7C3108"/>
<path d="M57.0395 71.8183L58.38 67.7481C58.4749 67.4597 58.8331 67.3613 59.0622 67.5605L62.2949 70.3735C62.6123 70.6494 63.0947 70.3462 62.9831 69.9405L58.5808 53.9277L51.8242 55.7851L56.2266 71.7979C56.3381 72.2036 56.9078 72.2177 57.0395 71.8183V71.8183Z" fill="#8C3F0A"/>
<path d="M62.9829 69.9405L58.5806 53.9277L56.3564 54.5392L60.2114 68.5607L62.2947 70.3735C62.6118 70.6494 63.0941 70.3459 62.9829 69.9405Z" fill="#7C3108"/>
<path d="M54.607 41.4681C55.9805 39.947 58.5035 40.9921 58.3988 43.0387C58.3328 44.3276 59.3962 45.3907 60.6852 45.325C62.7321 45.2204 63.7772 47.7433 62.2557 49.1168C61.2976 49.9815 61.2976 51.4851 62.2557 52.3502C63.7769 53.7237 62.7317 56.2466 60.6852 56.142C59.3962 56.076 58.3332 57.1394 58.3988 58.4283C58.5035 60.4752 55.9805 61.5203 54.607 59.9988C53.7423 59.0408 52.2387 59.0408 51.3736 59.9988C50.0001 61.52 47.4772 60.4749 47.5818 58.4283C47.6478 57.1394 46.5845 56.0763 45.2955 56.142C43.2486 56.2466 42.2035 53.7234 43.725 52.3502C44.6831 51.4854 44.6831 49.9819 43.725 49.1168C42.2038 47.7433 43.2489 45.2204 45.2955 45.325C46.5845 45.3907 47.6475 44.3276 47.5818 43.0387C47.4772 40.9918 50.0001 39.9466 51.3736 41.4681C52.2387 42.4262 53.7423 42.4262 54.607 41.4681Z" fill="#FFC91D"/>
<path d="M56.2927 57.0272C59.751 55.2062 61.0783 50.9265 59.2573 47.4682C57.4363 44.0099 53.1566 42.6826 49.6983 44.5036C46.24 46.3246 44.9127 50.6043 46.7337 54.0626C48.5547 57.5209 52.8344 58.8482 56.2927 57.0272Z" fill="#F79219"/>
<path d="M52.9904 56.219C56.0199 56.219 58.4759 53.7631 58.4759 50.7335C58.4759 47.704 56.0199 45.248 52.9904 45.248C49.9608 45.248 47.5049 47.704 47.5049 50.7335C47.5049 53.7631 49.9608 56.219 52.9904 56.219Z" fill="#8C3F0A"/>
<path d="M53.7966 47.5927L54.0952 48.5115C54.2089 48.8615 54.5351 49.0985 54.903 49.0985H55.8693C56.6919 49.0985 57.0341 50.1514 56.3686 50.635L55.5871 51.2029C55.2895 51.419 55.1648 51.8024 55.2785 52.1525L55.5771 53.0713C55.8313 53.8537 54.9357 54.5045 54.2699 54.0209L53.4884 53.453C53.1908 53.2369 52.7876 53.2369 52.4898 53.453L51.7083 54.0209C51.0427 54.5045 50.1469 53.8537 50.4011 53.0713L50.6996 52.1525C50.8133 51.8024 50.6886 51.419 50.391 51.2029L49.6095 50.635C48.944 50.1514 49.2859 49.0985 50.1088 49.0985H51.0751C51.4431 49.0985 51.7692 48.8615 51.883 48.5115L52.1815 47.5927C52.4354 46.8103 53.5424 46.8103 53.7966 47.5927V47.5927Z" fill="#FFC91D"/>
</g>
<defs>
<clipPath id="clip0_169_6650">
<rect width="72" height="72" fill="white"/>
</clipPath>
</defs>
</svg>
