<svg width="72" height="72" viewBox="0 0 72 72" fill="none" xmlns="http://www.w3.org/2000/svg">
<path d="M12.8535 36H59.6922V39.1936H12.8535V36Z" fill="#FFBF40"/>
<path d="M46.9183 62.6135V63.678C46.9166 64.2421 46.6917 64.7827 46.2928 65.1816C45.8939 65.5805 45.3534 65.8053 44.7892 65.807H27.757C27.1928 65.8053 26.6523 65.5805 26.2534 65.1816C25.8545 64.7827 25.6296 64.2421 25.6279 63.678V61.549C25.6296 60.9848 25.8545 60.4443 26.2534 60.0454C26.6523 59.6465 27.1928 59.4216 27.757 59.4199H44.7892C45.3534 59.4216 45.8939 59.6465 46.2928 60.0454C46.6917 60.4443 46.9166 60.9848 46.9183 61.549V62.6135Z" fill="#4B3C39"/>
<path d="M51.1758 43.4512H55.4338V51.9673H51.1758V43.4512Z" fill="#4B3C39"/>
<path d="M17.1113 43.4512H46.9178V51.9673H17.1113V43.4512Z" fill="#F0EBD7"/>
<path d="M62.8859 26.4202V31.7428H59.6924V21.0977H62.8859V26.4202Z" fill="#FFBF40"/>
<path d="M47.9819 7.25781V10.4514H24.5625V7.25781H30.9496H41.5948H47.9819Z" fill="#FFBF40"/>
<path d="M66.0793 9.3871C67.843 9.3871 69.2728 7.9573 69.2728 6.19355C69.2728 4.4298 67.843 3 66.0793 3C64.3155 3 62.8857 4.4298 62.8857 6.19355C62.8857 7.9573 64.3155 9.3871 66.0793 9.3871Z" fill="#D1013E"/>
<path d="M41.5954 7.25807H30.9502C30.9495 6.6987 31.0592 6.14468 31.2729 5.62775C31.4866 5.11082 31.8003 4.64114 32.1958 4.2456C32.5913 3.85006 33.061 3.53644 33.5779 3.3227C34.0949 3.10896 34.6489 2.9993 35.2083 3H37.3373C38.4666 3 39.5497 3.44862 40.3482 4.24716C41.1467 5.0457 41.5954 6.12876 41.5954 7.25807Z" fill="#D1013E"/>
<path d="M59.6922 39.1934V56.2256H12.8535V39.1934H59.6922ZM55.4342 51.9676V43.4514H51.1761V51.9676H55.4342ZM46.918 51.9676V43.4514H17.1116V51.9676H46.918Z" fill="#D1013E"/>
<path d="M49.0471 62.6133H59.6922V66.8713C59.6905 67.4355 59.4657 67.976 59.0668 68.3749C58.6679 68.7738 58.1273 68.9987 57.5632 69.0004H14.9825C14.4184 68.9987 13.8779 68.7738 13.479 68.3749C13.08 67.976 12.8552 67.4355 12.8535 66.8713V62.6133H25.6277V63.6778C25.6294 64.2419 25.8542 64.7825 26.2531 65.1814C26.6521 65.5803 27.1926 65.8051 27.7567 65.8068H44.789C45.3531 65.8051 45.8937 65.5803 46.2926 65.1814C46.6915 64.7825 46.9163 64.2419 46.918 63.6778V62.6133H49.0471Z" fill="#C7C3B2"/>
<path d="M49.0471 62.6137H46.918V61.5491C46.9163 60.985 46.6915 60.4445 46.2926 60.0455C45.8937 59.6466 45.3531 59.4218 44.789 59.4201H27.7567C27.1926 59.4218 26.6521 59.6466 26.2531 60.0455C25.8542 60.4445 25.6294 60.985 25.6277 61.5491V62.6137H12.8535V56.2266H59.6922V62.6137H49.0471Z" fill="#F0EBD7"/>
<path d="M59.6922 31.7415V35.9996H12.8535V21.0963C12.8535 18.2731 13.9751 15.5654 15.9714 13.5691C17.9678 11.5727 20.6754 10.4512 23.4987 10.4512H49.0471C51.8703 10.4512 54.578 11.5727 56.5743 13.5691C58.5707 15.5654 59.6922 18.2731 59.6922 21.0963V31.7415Z" fill="#D1013E"/>
<path d="M26.6918 16.8379H22.4337C21.2579 16.8379 20.3047 17.7911 20.3047 18.9669V29.6121C20.3047 30.7879 21.2579 31.7411 22.4337 31.7411H26.6918C27.8676 31.7411 28.8208 30.7879 28.8208 29.6121V18.9669C28.8208 17.7911 27.8676 16.8379 26.6918 16.8379Z" fill="#F0EBD7"/>
<path d="M38.4017 16.8379H34.1437C32.9678 16.8379 32.0146 17.7911 32.0146 18.9669V29.6121C32.0146 30.7879 32.9678 31.7411 34.1437 31.7411H38.4017C39.5776 31.7411 40.5308 30.7879 40.5308 29.6121V18.9669C40.5308 17.7911 39.5776 16.8379 38.4017 16.8379Z" fill="#F0EBD7"/>
<path d="M50.1117 16.8379H45.8536C44.6778 16.8379 43.7246 17.7911 43.7246 18.9669V29.6121C43.7246 30.7879 44.6778 31.7411 45.8536 31.7411H50.1117C51.2875 31.7411 52.2407 30.7879 52.2407 29.6121V18.9669C52.2407 17.7911 51.2875 16.8379 50.1117 16.8379Z" fill="#F0EBD7"/>
<path d="M44.7892 59.4199H27.757C27.1928 59.4216 26.6523 59.6465 26.2534 60.0454C25.8545 60.4443 25.6296 60.9848 25.6279 61.549V62.6135C25.6296 62.0493 25.8545 61.5088 26.2534 61.1099C26.6523 60.711 27.1928 60.4861 27.757 60.4844H44.7892C45.3534 60.4861 45.8939 60.711 46.2928 61.1099C46.6917 61.5088 46.9166 62.0493 46.9183 62.6135V61.549C46.9166 60.9848 46.6917 60.4443 46.2928 60.0454C45.8939 59.6465 45.3534 59.4216 44.7892 59.4199V59.4199Z" fill="#2E2523"/>
<path d="M44.7892 64.7423H27.757C27.1928 64.7406 26.6523 64.5158 26.2534 64.1169C25.8545 63.718 25.6296 63.1774 25.6279 62.6133V63.6778C25.6296 64.2419 25.8545 64.7825 26.2534 65.1814C26.6523 65.5803 27.1928 65.8051 27.757 65.8068H44.7892C45.3534 65.8051 45.8939 65.5803 46.2928 65.1814C46.6917 64.7825 46.9166 64.2419 46.9183 63.6778V62.6133C46.9166 63.1774 46.6917 63.718 46.2928 64.1169C45.8939 64.5158 45.3534 64.7406 44.7892 64.7423V64.7423Z" fill="#2E2523"/>
<path d="M66.0793 7.25794C65.4204 7.2576 64.778 7.05255 64.2408 6.67114C63.7035 6.28972 63.2981 5.7508 63.0805 5.12891C62.9038 5.6115 62.8461 6.12962 62.9124 6.63927C62.9787 7.14891 63.1671 7.63503 63.4614 8.05632C63.7558 8.47762 64.1475 8.82165 64.6032 9.05919C65.059 9.29673 65.5654 9.42077 66.0793 9.42077C66.5932 9.42077 67.0996 9.29673 67.5553 9.05919C68.0111 8.82165 68.4028 8.47762 68.6971 8.05632C68.9915 7.63503 69.1798 7.14891 69.2462 6.63927C69.3125 6.12962 69.2548 5.6115 69.078 5.12891C68.8605 5.7508 68.4551 6.28972 67.9178 6.67114C67.3806 7.05255 66.7381 7.2576 66.0793 7.25794V7.25794Z" fill="#A80132"/>
<path d="M57.5632 66.8712H14.9825C14.4184 66.8695 13.8779 66.6447 13.479 66.2458C13.08 65.8469 12.8552 65.3063 12.8535 64.7422V66.8712C12.8552 67.4354 13.08 67.9759 13.479 68.3748C13.8779 68.7737 14.4184 68.9986 14.9825 69.0003H57.5632C58.1273 68.9986 58.6679 68.7737 59.0668 68.3748C59.4657 67.9759 59.6905 67.4354 59.6922 66.8712V64.7422C59.6905 65.3063 59.4657 65.8469 59.0668 66.2458C58.6679 66.6447 58.1273 66.8695 57.5632 66.8712Z" fill="#B5B1A2"/>
<path d="M65.0148 9.19141V25.354H62.8857V27.483H66.0793C66.3616 27.483 66.6324 27.3708 66.832 27.1712C67.0317 26.9716 67.1438 26.7008 67.1438 26.4185V9.19141C66.4579 9.45112 65.7007 9.45112 65.0148 9.19141V9.19141Z" fill="#E3DECB"/>
<path d="M66.0793 9.38621C65.7159 9.3826 65.3559 9.31671 65.0148 9.19141V10.4507C65.2971 10.4507 65.5679 10.5629 65.7675 10.7625C65.9671 10.9622 66.0793 11.2329 66.0793 11.5152V26.4185H65.0148C64.7324 26.4185 64.4617 26.3063 64.262 26.1067C64.0624 25.907 63.9503 25.6363 63.9503 25.354H62.8857V27.483H66.0793C66.3616 27.483 66.6324 27.3708 66.832 27.1712C67.0317 26.9716 67.1438 26.7008 67.1438 26.4185V9.19141C66.8027 9.31671 66.4427 9.3826 66.0793 9.38621V9.38621Z" fill="#C7C3B2"/>
<path d="M60.7569 21.0977V27.4848C60.7569 28.0494 60.9812 28.5909 61.3805 28.9902C61.7797 29.3895 62.3213 29.6138 62.8859 29.6138V31.7428H59.6924V21.0977H60.7569Z" fill="#FF9C00"/>
<path d="M26.6915 7.25781C26.6915 7.82247 26.9158 8.36399 27.3151 8.76327C27.7144 9.16254 28.2559 9.38684 28.8206 9.38684H43.7238C44.2884 9.38684 44.83 9.16254 45.2292 8.76327C45.6285 8.36399 45.8528 7.82247 45.8528 7.25781H47.9819V10.4514H24.5625V7.25781H26.6915Z" fill="#FF9C00"/>
<path d="M38.4018 6.19418H34.1437C33.6589 6.19288 33.1809 6.08064 32.7462 5.86605C32.3114 5.65146 31.9316 5.34021 31.6357 4.95614C31.191 5.64195 30.953 6.44128 30.9502 7.25869H41.5954C41.5944 6.44083 41.3567 5.64074 40.9109 4.95508C40.6151 5.33954 40.2351 5.65112 39.8002 5.86591C39.3653 6.08071 38.8869 6.193 38.4018 6.19418V6.19418Z" fill="#A80132"/>
<path d="M23.993 27.6817L23.0052 27.2857L24.8425 22.6934H22.4346V21.6289H25.6281C25.7151 21.6289 25.8008 21.6503 25.8776 21.6911C25.9545 21.7319 26.0201 21.7909 26.0689 21.863C26.1176 21.935 26.148 22.0179 26.1572 22.1044C26.1665 22.1909 26.1544 22.2784 26.1221 22.3592L23.993 27.6817Z" fill="#D1013E"/>
<path d="M35.703 27.6817L34.7151 27.2857L36.5525 22.6934H34.1445V21.6289H37.3381C37.4251 21.6289 37.5108 21.6503 37.5876 21.6911C37.6644 21.7319 37.7301 21.7909 37.7788 21.863C37.8276 21.935 37.8579 22.0179 37.8672 22.1044C37.8765 22.1909 37.8644 22.2784 37.832 22.3592L35.703 27.6817Z" fill="#D1013E"/>
<path d="M47.412 27.6817L46.4241 27.2857L48.2615 22.6934H45.8535V21.6289H49.0471C49.1341 21.6289 49.2197 21.6503 49.2966 21.6911C49.3734 21.7319 49.4391 21.7909 49.4878 21.863C49.5366 21.935 49.5669 22.0179 49.5762 22.1044C49.5854 22.1909 49.5734 22.2784 49.541 22.3592L47.412 27.6817Z" fill="#D1013E"/>
<path d="M26.6918 15.7734H22.4338C21.5868 15.7734 20.7745 16.1099 20.1756 16.7088C19.5767 17.3077 19.2402 18.12 19.2402 18.967V29.6121C19.2402 30.4591 19.5767 31.2714 20.1756 31.8703C20.7745 32.4692 21.5868 32.8057 22.4338 32.8057H26.6918C27.5388 32.8057 28.3511 32.4692 28.95 31.8703C29.5489 31.2714 29.8854 30.4591 29.8854 29.6121V18.967C29.8854 18.12 29.5489 17.3077 28.95 16.7088C28.3511 16.1099 27.5388 15.7734 26.6918 15.7734ZM28.8209 29.6121C28.8209 30.1768 28.5966 30.7183 28.1973 31.1176C27.798 31.5169 27.2565 31.7412 26.6918 31.7412H22.4338C21.8691 31.7412 21.3276 31.5169 20.9283 31.1176C20.5291 30.7183 20.3048 30.1768 20.3048 29.6121V18.967C20.3048 18.4023 20.5291 17.8608 20.9283 17.4615C21.3276 17.0623 21.8691 16.838 22.4338 16.838H26.6918C27.2565 16.838 27.798 17.0623 28.1973 17.4615C28.5966 17.8608 28.8209 18.4023 28.8209 18.967V29.6121Z" fill="#A80132"/>
<path d="M38.4018 15.7734H34.1437C33.2968 15.7734 32.4845 16.1099 31.8856 16.7088C31.2867 17.3077 30.9502 18.12 30.9502 18.967V29.6121C30.9502 30.4591 31.2867 31.2714 31.8856 31.8703C32.4845 32.4692 33.2968 32.8057 34.1437 32.8057H38.4018C39.2488 32.8057 40.0611 32.4692 40.66 31.8703C41.2589 31.2714 41.5954 30.4591 41.5954 29.6121V18.967C41.5954 18.12 41.2589 17.3077 40.66 16.7088C40.0611 16.1099 39.2488 15.7734 38.4018 15.7734ZM40.5308 29.6121C40.5308 30.1768 40.3065 30.7183 39.9073 31.1176C39.508 31.5169 38.9665 31.7412 38.4018 31.7412H34.1437C33.5791 31.7412 33.0376 31.5169 32.6383 31.1176C32.239 30.7183 32.0147 30.1768 32.0147 29.6121V18.967C32.0147 18.4023 32.239 17.8608 32.6383 17.4615C33.0376 17.0623 33.5791 16.838 34.1437 16.838H38.4018C38.9665 16.838 39.508 17.0623 39.9073 17.4615C40.3065 17.8608 40.5308 18.4023 40.5308 18.967V29.6121Z" fill="#A80132"/>
<path d="M50.1118 15.7734H45.8537C45.0067 15.7734 44.1944 16.1099 43.5955 16.7088C42.9966 17.3077 42.6602 18.12 42.6602 18.967V29.6121C42.6602 30.4591 42.9966 31.2714 43.5955 31.8703C44.1944 32.4692 45.0067 32.8057 45.8537 32.8057H50.1118C50.9588 32.8057 51.771 32.4692 52.3699 31.8703C52.9689 31.2714 53.3053 30.4591 53.3053 29.6121V18.967C53.3053 18.12 52.9689 17.3077 52.3699 16.7088C51.771 16.1099 50.9588 15.7734 50.1118 15.7734ZM52.2408 29.6121C52.2408 30.1768 52.0165 30.7183 51.6172 31.1176C51.218 31.5169 50.6764 31.7412 50.1118 31.7412H45.8537C45.2891 31.7412 44.7475 31.5169 44.3482 31.1176C43.949 30.7183 43.7247 30.1768 43.7247 29.6121V18.967C43.7247 18.4023 43.949 17.8608 44.3482 17.4615C44.7475 17.0623 45.2891 16.838 45.8537 16.838H50.1118C50.6764 16.838 51.218 17.0623 51.6172 17.4615C52.0165 17.8608 52.2408 18.4023 52.2408 18.967V29.6121Z" fill="#A80132"/>
<path d="M52.7735 20.0313C53.0674 20.0313 53.3057 19.793 53.3057 19.4991C53.3057 19.2051 53.0674 18.9668 52.7735 18.9668C52.4795 18.9668 52.2412 19.2051 52.2412 19.4991C52.2412 19.793 52.4795 20.0313 52.7735 20.0313Z" fill="#FFBF40"/>
<path d="M49.5801 16.838C49.8741 16.838 50.1124 16.5997 50.1124 16.3057C50.1124 16.0117 49.8741 15.7734 49.5801 15.7734C49.2862 15.7734 49.0479 16.0117 49.0479 16.3057C49.0479 16.5997 49.2862 16.838 49.5801 16.838Z" fill="#FFBF40"/>
<path d="M48.5147 16.838C48.8086 16.838 49.0469 16.5997 49.0469 16.3057C49.0469 16.0117 48.8086 15.7734 48.5147 15.7734C48.2207 15.7734 47.9824 16.0117 47.9824 16.3057C47.9824 16.5997 48.2207 16.838 48.5147 16.838Z" fill="#FFBF40"/>
<path d="M47.4502 16.838C47.7442 16.838 47.9825 16.5997 47.9825 16.3057C47.9825 16.0117 47.7442 15.7734 47.4502 15.7734C47.1563 15.7734 46.918 16.0117 46.918 16.3057C46.918 16.5997 47.1563 16.838 47.4502 16.838Z" fill="#FFBF40"/>
<path d="M46.3858 16.838C46.6797 16.838 46.918 16.5997 46.918 16.3057C46.918 16.0117 46.6797 15.7734 46.3858 15.7734C46.0918 15.7734 45.8535 16.0117 45.8535 16.3057C45.8535 16.5997 46.0918 16.838 46.3858 16.838Z" fill="#FFBF40"/>
<path d="M49.5801 32.8067C49.8741 32.8067 50.1124 32.5684 50.1124 32.2744C50.1124 31.9805 49.8741 31.7422 49.5801 31.7422C49.2862 31.7422 49.0479 31.9805 49.0479 32.2744C49.0479 32.5684 49.2862 32.8067 49.5801 32.8067Z" fill="#FFBF40"/>
<path d="M48.5147 32.8067C48.8086 32.8067 49.0469 32.5684 49.0469 32.2744C49.0469 31.9805 48.8086 31.7422 48.5147 31.7422C48.2207 31.7422 47.9824 31.9805 47.9824 32.2744C47.9824 32.5684 48.2207 32.8067 48.5147 32.8067Z" fill="#FFBF40"/>
<path d="M47.4502 32.8067C47.7442 32.8067 47.9825 32.5684 47.9825 32.2744C47.9825 31.9805 47.7442 31.7422 47.4502 31.7422C47.1563 31.7422 46.918 31.9805 46.918 32.2744C46.918 32.5684 47.1563 32.8067 47.4502 32.8067Z" fill="#FFBF40"/>
<path d="M46.3858 32.8067C46.6797 32.8067 46.918 32.5684 46.918 32.2744C46.918 31.9805 46.6797 31.7422 46.3858 31.7422C46.0918 31.7422 45.8535 31.9805 45.8535 32.2744C45.8535 32.5684 46.0918 32.8067 46.3858 32.8067Z" fill="#FFBF40"/>
<path d="M52.7735 21.0958C53.0674 21.0958 53.3057 20.8575 53.3057 20.5635C53.3057 20.2696 53.0674 20.0312 52.7735 20.0312C52.4795 20.0312 52.2412 20.2696 52.2412 20.5635C52.2412 20.8575 52.4795 21.0958 52.7735 21.0958Z" fill="#FFBF40"/>
<path d="M52.7735 22.1602C53.0674 22.1602 53.3057 21.9219 53.3057 21.628C53.3057 21.334 53.0674 21.0957 52.7735 21.0957C52.4795 21.0957 52.2412 21.334 52.2412 21.628C52.2412 21.9219 52.4795 22.1602 52.7735 22.1602Z" fill="#FFBF40"/>
<path d="M52.7735 23.2247C53.0674 23.2247 53.3057 22.9864 53.3057 22.6924C53.3057 22.3985 53.0674 22.1602 52.7735 22.1602C52.4795 22.1602 52.2412 22.3985 52.2412 22.6924C52.2412 22.9864 52.4795 23.2247 52.7735 23.2247Z" fill="#FFBF40"/>
<path d="M52.7735 24.2891C53.0674 24.2891 53.3057 24.0508 53.3057 23.7569C53.3057 23.4629 53.0674 23.2246 52.7735 23.2246C52.4795 23.2246 52.2412 23.4629 52.2412 23.7569C52.2412 24.0508 52.4795 24.2891 52.7735 24.2891Z" fill="#FFBF40"/>
<path d="M52.7735 25.3536C53.0674 25.3536 53.3057 25.1153 53.3057 24.8213C53.3057 24.5274 53.0674 24.2891 52.7735 24.2891C52.4795 24.2891 52.2412 24.5274 52.2412 24.8213C52.2412 25.1153 52.4795 25.3536 52.7735 25.3536Z" fill="#FFBF40"/>
<path d="M52.7735 26.418C53.0674 26.418 53.3057 26.1797 53.3057 25.8858C53.3057 25.5918 53.0674 25.3535 52.7735 25.3535C52.4795 25.3535 52.2412 25.5918 52.2412 25.8858C52.2412 26.1797 52.4795 26.418 52.7735 26.418Z" fill="#FFBF40"/>
<path d="M52.7735 27.4825C53.0674 27.4825 53.3057 27.2442 53.3057 26.9502C53.3057 26.6563 53.0674 26.418 52.7735 26.418C52.4795 26.418 52.2412 26.6563 52.2412 26.9502C52.2412 27.2442 52.4795 27.4825 52.7735 27.4825Z" fill="#FFBF40"/>
<path d="M52.7735 28.5469C53.0674 28.5469 53.3057 28.3086 53.3057 28.0147C53.3057 27.7207 53.0674 27.4824 52.7735 27.4824C52.4795 27.4824 52.2412 27.7207 52.2412 28.0147C52.2412 28.3086 52.4795 28.5469 52.7735 28.5469Z" fill="#FFBF40"/>
<path d="M52.7735 29.6114C53.0674 29.6114 53.3057 29.3731 53.3057 29.0791C53.3057 28.7852 53.0674 28.5469 52.7735 28.5469C52.4795 28.5469 52.2412 28.7852 52.2412 29.0791C52.2412 29.3731 52.4795 29.6114 52.7735 29.6114Z" fill="#FFBF40"/>
<path d="M43.1924 20.0313C43.4864 20.0313 43.7247 19.793 43.7247 19.4991C43.7247 19.2051 43.4864 18.9668 43.1924 18.9668C42.8985 18.9668 42.6602 19.2051 42.6602 19.4991C42.6602 19.793 42.8985 20.0313 43.1924 20.0313Z" fill="#FFBF40"/>
<path d="M43.1924 21.0958C43.4864 21.0958 43.7247 20.8575 43.7247 20.5635C43.7247 20.2696 43.4864 20.0312 43.1924 20.0312C42.8985 20.0312 42.6602 20.2696 42.6602 20.5635C42.6602 20.8575 42.8985 21.0958 43.1924 21.0958Z" fill="#FFBF40"/>
<path d="M43.1924 22.1602C43.4864 22.1602 43.7247 21.9219 43.7247 21.628C43.7247 21.334 43.4864 21.0957 43.1924 21.0957C42.8985 21.0957 42.6602 21.334 42.6602 21.628C42.6602 21.9219 42.8985 22.1602 43.1924 22.1602Z" fill="#FFBF40"/>
<path d="M43.1924 23.2247C43.4864 23.2247 43.7247 22.9864 43.7247 22.6924C43.7247 22.3985 43.4864 22.1602 43.1924 22.1602C42.8985 22.1602 42.6602 22.3985 42.6602 22.6924C42.6602 22.9864 42.8985 23.2247 43.1924 23.2247Z" fill="#FFBF40"/>
<path d="M43.1924 24.2891C43.4864 24.2891 43.7247 24.0508 43.7247 23.7569C43.7247 23.4629 43.4864 23.2246 43.1924 23.2246C42.8985 23.2246 42.6602 23.4629 42.6602 23.7569C42.6602 24.0508 42.8985 24.2891 43.1924 24.2891Z" fill="#FFBF40"/>
<path d="M43.1924 25.3536C43.4864 25.3536 43.7247 25.1153 43.7247 24.8213C43.7247 24.5274 43.4864 24.2891 43.1924 24.2891C42.8985 24.2891 42.6602 24.5274 42.6602 24.8213C42.6602 25.1153 42.8985 25.3536 43.1924 25.3536Z" fill="#FFBF40"/>
<path d="M43.1924 26.418C43.4864 26.418 43.7247 26.1797 43.7247 25.8858C43.7247 25.5918 43.4864 25.3535 43.1924 25.3535C42.8985 25.3535 42.6602 25.5918 42.6602 25.8858C42.6602 26.1797 42.8985 26.418 43.1924 26.418Z" fill="#FFBF40"/>
<path d="M43.1924 27.4825C43.4864 27.4825 43.7247 27.2442 43.7247 26.9502C43.7247 26.6563 43.4864 26.418 43.1924 26.418C42.8985 26.418 42.6602 26.6563 42.6602 26.9502C42.6602 27.2442 42.8985 27.4825 43.1924 27.4825Z" fill="#FFBF40"/>
<path d="M43.1924 28.5469C43.4864 28.5469 43.7247 28.3086 43.7247 28.0147C43.7247 27.7207 43.4864 27.4824 43.1924 27.4824C42.8985 27.4824 42.6602 27.7207 42.6602 28.0147C42.6602 28.3086 42.8985 28.5469 43.1924 28.5469Z" fill="#FFBF40"/>
<path d="M43.1924 29.6114C43.4864 29.6114 43.7247 29.3731 43.7247 29.0791C43.7247 28.7852 43.4864 28.5469 43.1924 28.5469C42.8985 28.5469 42.6602 28.7852 42.6602 29.0791C42.6602 29.3731 42.8985 29.6114 43.1924 29.6114Z" fill="#FFBF40"/>
<path d="M41.0635 20.0313C41.3575 20.0313 41.5958 19.793 41.5958 19.4991C41.5958 19.2051 41.3575 18.9668 41.0635 18.9668C40.7696 18.9668 40.5312 19.2051 40.5312 19.4991C40.5312 19.793 40.7696 20.0313 41.0635 20.0313Z" fill="#FFBF40"/>
<path d="M37.8701 16.838C38.1641 16.838 38.4024 16.5997 38.4024 16.3057C38.4024 16.0117 38.1641 15.7734 37.8701 15.7734C37.5762 15.7734 37.3379 16.0117 37.3379 16.3057C37.3379 16.5997 37.5762 16.838 37.8701 16.838Z" fill="#FFBF40"/>
<path d="M36.8057 16.838C37.0997 16.838 37.338 16.5997 37.338 16.3057C37.338 16.0117 37.0997 15.7734 36.8057 15.7734C36.5117 15.7734 36.2734 16.0117 36.2734 16.3057C36.2734 16.5997 36.5117 16.838 36.8057 16.838Z" fill="#FFBF40"/>
<path d="M35.7412 16.838C36.0352 16.838 36.2735 16.5997 36.2735 16.3057C36.2735 16.0117 36.0352 15.7734 35.7412 15.7734C35.4473 15.7734 35.209 16.0117 35.209 16.3057C35.209 16.5997 35.4473 16.838 35.7412 16.838Z" fill="#FFBF40"/>
<path d="M34.6768 16.838C34.9707 16.838 35.209 16.5997 35.209 16.3057C35.209 16.0117 34.9707 15.7734 34.6768 15.7734C34.3828 15.7734 34.1445 16.0117 34.1445 16.3057C34.1445 16.5997 34.3828 16.838 34.6768 16.838Z" fill="#FFBF40"/>
<path d="M37.8701 32.8048C38.1641 32.8048 38.4024 32.5665 38.4024 32.2725C38.4024 31.9785 38.1641 31.7402 37.8701 31.7402C37.5762 31.7402 37.3379 31.9785 37.3379 32.2725C37.3379 32.5665 37.5762 32.8048 37.8701 32.8048Z" fill="#FFBF40"/>
<path d="M36.8057 32.8048C37.0997 32.8048 37.338 32.5665 37.338 32.2725C37.338 31.9785 37.0997 31.7402 36.8057 31.7402C36.5117 31.7402 36.2734 31.9785 36.2734 32.2725C36.2734 32.5665 36.5117 32.8048 36.8057 32.8048Z" fill="#FFBF40"/>
<path d="M35.7412 32.8048C36.0352 32.8048 36.2735 32.5665 36.2735 32.2725C36.2735 31.9785 36.0352 31.7402 35.7412 31.7402C35.4473 31.7402 35.209 31.9785 35.209 32.2725C35.209 32.5665 35.4473 32.8048 35.7412 32.8048Z" fill="#FFBF40"/>
<path d="M34.6768 32.8048C34.9707 32.8048 35.209 32.5665 35.209 32.2725C35.209 31.9785 34.9707 31.7402 34.6768 31.7402C34.3828 31.7402 34.1445 31.9785 34.1445 32.2725C34.1445 32.5665 34.3828 32.8048 34.6768 32.8048Z" fill="#FFBF40"/>
<path d="M41.0635 21.0958C41.3575 21.0958 41.5958 20.8575 41.5958 20.5635C41.5958 20.2696 41.3575 20.0312 41.0635 20.0312C40.7696 20.0312 40.5312 20.2696 40.5312 20.5635C40.5312 20.8575 40.7696 21.0958 41.0635 21.0958Z" fill="#FFBF40"/>
<path d="M41.0635 22.1602C41.3575 22.1602 41.5958 21.9219 41.5958 21.628C41.5958 21.334 41.3575 21.0957 41.0635 21.0957C40.7696 21.0957 40.5312 21.334 40.5312 21.628C40.5312 21.9219 40.7696 22.1602 41.0635 22.1602Z" fill="#FFBF40"/>
<path d="M41.0635 23.2247C41.3575 23.2247 41.5958 22.9864 41.5958 22.6924C41.5958 22.3985 41.3575 22.1602 41.0635 22.1602C40.7696 22.1602 40.5312 22.3985 40.5312 22.6924C40.5312 22.9864 40.7696 23.2247 41.0635 23.2247Z" fill="#FFBF40"/>
<path d="M41.0635 24.2891C41.3575 24.2891 41.5958 24.0508 41.5958 23.7569C41.5958 23.4629 41.3575 23.2246 41.0635 23.2246C40.7696 23.2246 40.5312 23.4629 40.5312 23.7569C40.5312 24.0508 40.7696 24.2891 41.0635 24.2891Z" fill="#FFBF40"/>
<path d="M41.0635 25.3536C41.3575 25.3536 41.5958 25.1153 41.5958 24.8213C41.5958 24.5274 41.3575 24.2891 41.0635 24.2891C40.7696 24.2891 40.5312 24.5274 40.5312 24.8213C40.5312 25.1153 40.7696 25.3536 41.0635 25.3536Z" fill="#FFBF40"/>
<path d="M41.0635 26.418C41.3575 26.418 41.5958 26.1797 41.5958 25.8858C41.5958 25.5918 41.3575 25.3535 41.0635 25.3535C40.7696 25.3535 40.5312 25.5918 40.5312 25.8858C40.5312 26.1797 40.7696 26.418 41.0635 26.418Z" fill="#FFBF40"/>
<path d="M41.0635 27.4825C41.3575 27.4825 41.5958 27.2442 41.5958 26.9502C41.5958 26.6563 41.3575 26.418 41.0635 26.418C40.7696 26.418 40.5312 26.6563 40.5312 26.9502C40.5312 27.2442 40.7696 27.4825 41.0635 27.4825Z" fill="#FFBF40"/>
<path d="M41.0635 28.5469C41.3575 28.5469 41.5958 28.3086 41.5958 28.0147C41.5958 27.7207 41.3575 27.4824 41.0635 27.4824C40.7696 27.4824 40.5312 27.7207 40.5312 28.0147C40.5312 28.3086 40.7696 28.5469 41.0635 28.5469Z" fill="#FFBF40"/>
<path d="M41.0635 29.6114C41.3575 29.6114 41.5958 29.3731 41.5958 29.0791C41.5958 28.7852 41.3575 28.5469 41.0635 28.5469C40.7696 28.5469 40.5312 28.7852 40.5312 29.0791C40.5312 29.3731 40.7696 29.6114 41.0635 29.6114Z" fill="#FFBF40"/>
<path d="M31.4834 20.0313C31.7774 20.0313 32.0157 19.793 32.0157 19.4991C32.0157 19.2051 31.7774 18.9668 31.4834 18.9668C31.1895 18.9668 30.9512 19.2051 30.9512 19.4991C30.9512 19.793 31.1895 20.0313 31.4834 20.0313Z" fill="#FFBF40"/>
<path d="M31.4834 21.0958C31.7774 21.0958 32.0157 20.8575 32.0157 20.5635C32.0157 20.2696 31.7774 20.0312 31.4834 20.0312C31.1895 20.0312 30.9512 20.2696 30.9512 20.5635C30.9512 20.8575 31.1895 21.0958 31.4834 21.0958Z" fill="#FFBF40"/>
<path d="M31.4834 22.1602C31.7774 22.1602 32.0157 21.9219 32.0157 21.628C32.0157 21.334 31.7774 21.0957 31.4834 21.0957C31.1895 21.0957 30.9512 21.334 30.9512 21.628C30.9512 21.9219 31.1895 22.1602 31.4834 22.1602Z" fill="#FFBF40"/>
<path d="M31.4834 23.2247C31.7774 23.2247 32.0157 22.9864 32.0157 22.6924C32.0157 22.3985 31.7774 22.1602 31.4834 22.1602C31.1895 22.1602 30.9512 22.3985 30.9512 22.6924C30.9512 22.9864 31.1895 23.2247 31.4834 23.2247Z" fill="#FFBF40"/>
<path d="M31.4834 24.2891C31.7774 24.2891 32.0157 24.0508 32.0157 23.7569C32.0157 23.4629 31.7774 23.2246 31.4834 23.2246C31.1895 23.2246 30.9512 23.4629 30.9512 23.7569C30.9512 24.0508 31.1895 24.2891 31.4834 24.2891Z" fill="#FFBF40"/>
<path d="M31.4834 25.3536C31.7774 25.3536 32.0157 25.1153 32.0157 24.8213C32.0157 24.5274 31.7774 24.2891 31.4834 24.2891C31.1895 24.2891 30.9512 24.5274 30.9512 24.8213C30.9512 25.1153 31.1895 25.3536 31.4834 25.3536Z" fill="#FFBF40"/>
<path d="M31.4834 26.418C31.7774 26.418 32.0157 26.1797 32.0157 25.8858C32.0157 25.5918 31.7774 25.3535 31.4834 25.3535C31.1895 25.3535 30.9512 25.5918 30.9512 25.8858C30.9512 26.1797 31.1895 26.418 31.4834 26.418Z" fill="#FFBF40"/>
<path d="M31.4834 27.4825C31.7774 27.4825 32.0157 27.2442 32.0157 26.9502C32.0157 26.6563 31.7774 26.418 31.4834 26.418C31.1895 26.418 30.9512 26.6563 30.9512 26.9502C30.9512 27.2442 31.1895 27.4825 31.4834 27.4825Z" fill="#FFBF40"/>
<path d="M31.4834 28.5469C31.7774 28.5469 32.0157 28.3086 32.0157 28.0147C32.0157 27.7207 31.7774 27.4824 31.4834 27.4824C31.1895 27.4824 30.9512 27.7207 30.9512 28.0147C30.9512 28.3086 31.1895 28.5469 31.4834 28.5469Z" fill="#FFBF40"/>
<path d="M31.4834 29.6114C31.7774 29.6114 32.0157 29.3731 32.0157 29.0791C32.0157 28.7852 31.7774 28.5469 31.4834 28.5469C31.1895 28.5469 30.9512 28.7852 30.9512 29.0791C30.9512 29.3731 31.1895 29.6114 31.4834 29.6114Z" fill="#FFBF40"/>
<path d="M29.3545 20.0313C29.6485 20.0313 29.8868 19.793 29.8868 19.4991C29.8868 19.2051 29.6485 18.9668 29.3545 18.9668C29.0606 18.9668 28.8223 19.2051 28.8223 19.4991C28.8223 19.793 29.0606 20.0313 29.3545 20.0313Z" fill="#FFBF40"/>
<path d="M26.1612 16.838C26.4551 16.838 26.6934 16.5997 26.6934 16.3057C26.6934 16.0117 26.4551 15.7734 26.1612 15.7734C25.8672 15.7734 25.6289 16.0117 25.6289 16.3057C25.6289 16.5997 25.8672 16.838 26.1612 16.838Z" fill="#FFBF40"/>
<path d="M25.0967 16.838C25.3907 16.838 25.629 16.5997 25.629 16.3057C25.629 16.0117 25.3907 15.7734 25.0967 15.7734C24.8028 15.7734 24.5645 16.0117 24.5645 16.3057C24.5645 16.5997 24.8028 16.838 25.0967 16.838Z" fill="#FFBF40"/>
<path d="M24.0323 16.838C24.3262 16.838 24.5645 16.5997 24.5645 16.3057C24.5645 16.0117 24.3262 15.7734 24.0323 15.7734C23.7383 15.7734 23.5 16.0117 23.5 16.3057C23.5 16.5997 23.7383 16.838 24.0323 16.838Z" fill="#FFBF40"/>
<path d="M22.9668 16.838C23.2608 16.838 23.4991 16.5997 23.4991 16.3057C23.4991 16.0117 23.2608 15.7734 22.9668 15.7734C22.6729 15.7734 22.4346 16.0117 22.4346 16.3057C22.4346 16.5997 22.6729 16.838 22.9668 16.838Z" fill="#FFBF40"/>
<path d="M26.1612 32.8067C26.4551 32.8067 26.6934 32.5684 26.6934 32.2744C26.6934 31.9805 26.4551 31.7422 26.1612 31.7422C25.8672 31.7422 25.6289 31.9805 25.6289 32.2744C25.6289 32.5684 25.8672 32.8067 26.1612 32.8067Z" fill="#FFBF40"/>
<path d="M25.0967 32.8067C25.3907 32.8067 25.629 32.5684 25.629 32.2744C25.629 31.9805 25.3907 31.7422 25.0967 31.7422C24.8028 31.7422 24.5645 31.9805 24.5645 32.2744C24.5645 32.5684 24.8028 32.8067 25.0967 32.8067Z" fill="#FFBF40"/>
<path d="M24.0323 32.8067C24.3262 32.8067 24.5645 32.5684 24.5645 32.2744C24.5645 31.9805 24.3262 31.7422 24.0323 31.7422C23.7383 31.7422 23.5 31.9805 23.5 32.2744C23.5 32.5684 23.7383 32.8067 24.0323 32.8067Z" fill="#FFBF40"/>
<path d="M22.9668 32.8067C23.2608 32.8067 23.4991 32.5684 23.4991 32.2744C23.4991 31.9805 23.2608 31.7422 22.9668 31.7422C22.6729 31.7422 22.4346 31.9805 22.4346 32.2744C22.4346 32.5684 22.6729 32.8067 22.9668 32.8067Z" fill="#FFBF40"/>
<path d="M29.3545 21.0958C29.6485 21.0958 29.8868 20.8575 29.8868 20.5635C29.8868 20.2696 29.6485 20.0312 29.3545 20.0312C29.0606 20.0312 28.8223 20.2696 28.8223 20.5635C28.8223 20.8575 29.0606 21.0958 29.3545 21.0958Z" fill="#FFBF40"/>
<path d="M29.3545 22.1602C29.6485 22.1602 29.8868 21.9219 29.8868 21.628C29.8868 21.334 29.6485 21.0957 29.3545 21.0957C29.0606 21.0957 28.8223 21.334 28.8223 21.628C28.8223 21.9219 29.0606 22.1602 29.3545 22.1602Z" fill="#FFBF40"/>
<path d="M29.3545 23.2247C29.6485 23.2247 29.8868 22.9864 29.8868 22.6924C29.8868 22.3985 29.6485 22.1602 29.3545 22.1602C29.0606 22.1602 28.8223 22.3985 28.8223 22.6924C28.8223 22.9864 29.0606 23.2247 29.3545 23.2247Z" fill="#FFBF40"/>
<path d="M29.3545 24.2891C29.6485 24.2891 29.8868 24.0508 29.8868 23.7569C29.8868 23.4629 29.6485 23.2246 29.3545 23.2246C29.0606 23.2246 28.8223 23.4629 28.8223 23.7569C28.8223 24.0508 29.0606 24.2891 29.3545 24.2891Z" fill="#FFBF40"/>
<path d="M29.3545 25.3536C29.6485 25.3536 29.8868 25.1153 29.8868 24.8213C29.8868 24.5274 29.6485 24.2891 29.3545 24.2891C29.0606 24.2891 28.8223 24.5274 28.8223 24.8213C28.8223 25.1153 29.0606 25.3536 29.3545 25.3536Z" fill="#FFBF40"/>
<path d="M29.3545 26.418C29.6485 26.418 29.8868 26.1797 29.8868 25.8858C29.8868 25.5918 29.6485 25.3535 29.3545 25.3535C29.0606 25.3535 28.8223 25.5918 28.8223 25.8858C28.8223 26.1797 29.0606 26.418 29.3545 26.418Z" fill="#FFBF40"/>
<path d="M29.3545 27.4825C29.6485 27.4825 29.8868 27.2442 29.8868 26.9502C29.8868 26.6563 29.6485 26.418 29.3545 26.418C29.0606 26.418 28.8223 26.6563 28.8223 26.9502C28.8223 27.2442 29.0606 27.4825 29.3545 27.4825Z" fill="#FFBF40"/>
<path d="M29.3545 28.5469C29.6485 28.5469 29.8868 28.3086 29.8868 28.0147C29.8868 27.7207 29.6485 27.4824 29.3545 27.4824C29.0606 27.4824 28.8223 27.7207 28.8223 28.0147C28.8223 28.3086 29.0606 28.5469 29.3545 28.5469Z" fill="#FFBF40"/>
<path d="M29.3545 29.6114C29.6485 29.6114 29.8868 29.3731 29.8868 29.0791C29.8868 28.7852 29.6485 28.5469 29.3545 28.5469C29.0606 28.5469 28.8223 28.7852 28.8223 29.0791C28.8223 29.3731 29.0606 29.6114 29.3545 29.6114Z" fill="#FFBF40"/>
<path d="M19.7735 20.0313C20.0674 20.0313 20.3057 19.793 20.3057 19.4991C20.3057 19.2051 20.0674 18.9668 19.7735 18.9668C19.4795 18.9668 19.2412 19.2051 19.2412 19.4991C19.2412 19.793 19.4795 20.0313 19.7735 20.0313Z" fill="#FFBF40"/>
<path d="M19.7735 21.0958C20.0674 21.0958 20.3057 20.8575 20.3057 20.5635C20.3057 20.2696 20.0674 20.0312 19.7735 20.0312C19.4795 20.0312 19.2412 20.2696 19.2412 20.5635C19.2412 20.8575 19.4795 21.0958 19.7735 21.0958Z" fill="#FFBF40"/>
<path d="M19.7735 22.1602C20.0674 22.1602 20.3057 21.9219 20.3057 21.628C20.3057 21.334 20.0674 21.0957 19.7735 21.0957C19.4795 21.0957 19.2412 21.334 19.2412 21.628C19.2412 21.9219 19.4795 22.1602 19.7735 22.1602Z" fill="#FFBF40"/>
<path d="M19.7735 23.2247C20.0674 23.2247 20.3057 22.9864 20.3057 22.6924C20.3057 22.3985 20.0674 22.1602 19.7735 22.1602C19.4795 22.1602 19.2412 22.3985 19.2412 22.6924C19.2412 22.9864 19.4795 23.2247 19.7735 23.2247Z" fill="#FFBF40"/>
<path d="M19.7735 24.2891C20.0674 24.2891 20.3057 24.0508 20.3057 23.7569C20.3057 23.4629 20.0674 23.2246 19.7735 23.2246C19.4795 23.2246 19.2412 23.4629 19.2412 23.7569C19.2412 24.0508 19.4795 24.2891 19.7735 24.2891Z" fill="#FFBF40"/>
<path d="M19.7735 25.3536C20.0674 25.3536 20.3057 25.1153 20.3057 24.8213C20.3057 24.5274 20.0674 24.2891 19.7735 24.2891C19.4795 24.2891 19.2412 24.5274 19.2412 24.8213C19.2412 25.1153 19.4795 25.3536 19.7735 25.3536Z" fill="#FFBF40"/>
<path d="M19.7735 26.418C20.0674 26.418 20.3057 26.1797 20.3057 25.8858C20.3057 25.5918 20.0674 25.3535 19.7735 25.3535C19.4795 25.3535 19.2412 25.5918 19.2412 25.8858C19.2412 26.1797 19.4795 26.418 19.7735 26.418Z" fill="#FFBF40"/>
<path d="M19.7735 27.4825C20.0674 27.4825 20.3057 27.2442 20.3057 26.9502C20.3057 26.6563 20.0674 26.418 19.7735 26.418C19.4795 26.418 19.2412 26.6563 19.2412 26.9502C19.2412 27.2442 19.4795 27.4825 19.7735 27.4825Z" fill="#FFBF40"/>
<path d="M19.7735 28.5469C20.0674 28.5469 20.3057 28.3086 20.3057 28.0147C20.3057 27.7207 20.0674 27.4824 19.7735 27.4824C19.4795 27.4824 19.2412 27.7207 19.2412 28.0147C19.2412 28.3086 19.4795 28.5469 19.7735 28.5469Z" fill="#FFBF40"/>
<path d="M19.7735 29.6114C20.0674 29.6114 20.3057 29.3731 20.3057 29.0791C20.3057 28.7852 20.0674 28.5469 19.7735 28.5469C19.4795 28.5469 19.2412 28.7852 19.2412 29.0791C19.2412 29.3731 19.4795 29.6114 19.7735 29.6114Z" fill="#FFBF40"/>
<path d="M50.1117 16.8379H45.8536C45.289 16.8379 44.7475 17.0622 44.3482 17.4615C43.9489 17.8607 43.7246 18.4023 43.7246 18.9669V20.0314C43.7246 19.4668 43.9489 18.9253 44.3482 18.526C44.7475 18.1267 45.289 17.9024 45.8536 17.9024H50.1117C50.6764 17.9024 51.2179 18.1267 51.6172 18.526C52.0164 18.9253 52.2407 19.4668 52.2407 20.0314V18.9669C52.2407 18.4023 52.0164 17.8607 51.6172 17.4615C51.2179 17.0622 50.6764 16.8379 50.1117 16.8379Z" fill="#C7C3B2"/>
<path d="M50.1117 30.6779H45.8536C45.289 30.6779 44.7475 30.4536 44.3482 30.0543C43.9489 29.655 43.7246 29.1135 43.7246 28.5488V29.6133C43.7246 30.178 43.9489 30.7195 44.3482 31.1188C44.7475 31.5181 45.289 31.7424 45.8536 31.7424H50.1117C50.6764 31.7424 51.2179 31.5181 51.6172 31.1188C52.0164 30.7195 52.2407 30.178 52.2407 29.6133V28.5488C52.2407 29.1135 52.0164 29.655 51.6172 30.0543C51.2179 30.4536 50.6764 30.6779 50.1117 30.6779Z" fill="#C7C3B2"/>
<path d="M38.4017 16.8379H34.1437C33.579 16.8379 33.0375 17.0622 32.6382 17.4615C32.239 17.8607 32.0146 18.4023 32.0146 18.9669V20.0314C32.0146 19.4668 32.239 18.9253 32.6382 18.526C33.0375 18.1267 33.579 17.9024 34.1437 17.9024H38.4017C38.9664 17.9024 39.5079 18.1267 39.9072 18.526C40.3065 18.9253 40.5308 19.4668 40.5308 20.0314V18.9669C40.5308 18.4023 40.3065 17.8607 39.9072 17.4615C39.5079 17.0622 38.9664 16.8379 38.4017 16.8379Z" fill="#C7C3B2"/>
<path d="M38.4017 30.6779H34.1437C33.579 30.6779 33.0375 30.4536 32.6382 30.0543C32.239 29.655 32.0146 29.1135 32.0146 28.5488V29.6133C32.0146 30.178 32.239 30.7195 32.6382 31.1188C33.0375 31.5181 33.579 31.7424 34.1437 31.7424H38.4017C38.9664 31.7424 39.5079 31.5181 39.9072 31.1188C40.3065 30.7195 40.5308 30.178 40.5308 29.6133V28.5488C40.5308 29.1135 40.3065 29.655 39.9072 30.0543C39.5079 30.4536 38.9664 30.6779 38.4017 30.6779Z" fill="#C7C3B2"/>
<path d="M26.6918 16.8379H22.4337C21.8691 16.8379 21.3275 17.0622 20.9283 17.4615C20.529 17.8607 20.3047 18.4023 20.3047 18.9669V20.0314C20.3047 19.4668 20.529 18.9253 20.9283 18.526C21.3275 18.1267 21.8691 17.9024 22.4337 17.9024H26.6918C27.2564 17.9024 27.798 18.1267 28.1972 18.526C28.5965 18.9253 28.8208 19.4668 28.8208 20.0314V18.9669C28.8208 18.4023 28.5965 17.8607 28.1972 17.4615C27.798 17.0622 27.2564 16.8379 26.6918 16.8379Z" fill="#C7C3B2"/>
<path d="M26.6918 30.6779H22.4337C21.8691 30.6779 21.3275 30.4536 20.9283 30.0543C20.529 29.655 20.3047 29.1135 20.3047 28.5488V29.6133C20.3047 30.178 20.529 30.7195 20.9283 31.1188C21.3275 31.5181 21.8691 31.7424 22.4337 31.7424H26.6918C27.2564 31.7424 27.798 31.5181 28.1972 31.1188C28.5965 30.7195 28.8208 30.178 28.8208 29.6133V28.5488C28.8208 29.1135 28.5965 29.655 28.1972 30.0543C27.798 30.4536 27.2564 30.6779 26.6918 30.6779Z" fill="#C7C3B2"/>
<path d="M12.8535 38.1289H59.6922V39.1934H12.8535V38.1289Z" fill="#FF9C00"/>
<path d="M12.8535 36H59.6922V37.0645H12.8535V36Z" fill="#FF9C00"/>
<path d="M51.1758 43.4512H55.4338V45.5802H51.1758V43.4512Z" fill="#2E2523"/>
<path d="M51.1758 49.8379H55.4338V51.9669H51.1758V49.8379Z" fill="#2E2523"/>
<path d="M55.4349 42.9199H51.1768C51.0356 42.9199 50.9002 42.976 50.8004 43.0758C50.7006 43.1756 50.6445 43.311 50.6445 43.4522V51.9683C50.6445 52.1095 50.7006 52.2449 50.8004 52.3447C50.9002 52.4445 51.0356 52.5006 51.1768 52.5006H55.4349C55.576 52.5006 55.7114 52.4445 55.8112 52.3447C55.911 52.2449 55.9671 52.1095 55.9671 51.9683V43.4522C55.9671 43.311 55.911 43.1756 55.8112 43.0758C55.7114 42.976 55.576 42.9199 55.4349 42.9199ZM55.4349 51.9683H51.1768V43.4522H55.4349V51.9683Z" fill="#FFBF40"/>
<path d="M46.9178 42.9199H17.1114C16.9702 42.9199 16.8348 42.976 16.735 43.0758C16.6352 43.1756 16.5791 43.311 16.5791 43.4522V51.9683C16.5791 52.1095 16.6352 52.2449 16.735 52.3447C16.8348 52.4445 16.9702 52.5006 17.1114 52.5006H46.9178C47.059 52.5006 47.1944 52.4445 47.2942 52.3447C47.394 52.2449 47.4501 52.1095 47.4501 51.9683V43.4522C47.4501 43.311 47.394 43.1756 47.2942 43.0758C47.1944 42.976 47.059 42.9199 46.9178 42.9199ZM46.9178 51.9683H17.1114V43.4522H46.9178V51.9683Z" fill="#FFBF40"/>
<path d="M21.3693 46.1133C21.3693 45.5254 20.8927 45.0488 20.3048 45.0488C19.7168 45.0488 19.2402 45.5254 19.2402 46.1133C19.2402 46.7013 19.7168 47.1779 20.3048 47.1779C20.8927 47.1779 21.3693 46.7013 21.3693 46.1133Z" fill="#D1013E"/>
<path d="M24.5636 46.1133C24.5636 45.5254 24.087 45.0488 23.4991 45.0488C22.9112 45.0488 22.4346 45.5254 22.4346 46.1133C22.4346 46.7013 22.9112 47.1779 23.4991 47.1779C24.087 47.1779 24.5636 46.7013 24.5636 46.1133Z" fill="#D1013E"/>
<path d="M21.3693 49.3067C21.3693 48.7188 20.8927 48.2422 20.3048 48.2422C19.7168 48.2422 19.2402 48.7188 19.2402 49.3067C19.2402 49.8946 19.7168 50.3712 20.3048 50.3712C20.8927 50.3712 21.3693 49.8946 21.3693 49.3067Z" fill="#D1013E"/>
<path d="M27.757 46.1133C27.757 45.5254 27.2804 45.0488 26.6924 45.0488C26.1045 45.0488 25.6279 45.5254 25.6279 46.1133C25.6279 46.7013 26.1045 47.1779 26.6924 47.1779C27.2804 47.1779 27.757 46.7013 27.757 46.1133Z" fill="#D1013E"/>
<path d="M17.1113 43.4512H46.9178V44.5157H17.1113V43.4512Z" fill="#C7C3B2"/>
<path d="M17.1113 50.9023H46.9178V51.9669H17.1113V50.9023Z" fill="#C7C3B2"/>
<path d="M24.5636 49.3067C24.5636 48.7188 24.087 48.2422 23.4991 48.2422C22.9112 48.2422 22.4346 48.7188 22.4346 49.3067C22.4346 49.8946 22.9112 50.3712 23.4991 50.3712C24.087 50.3712 24.5636 49.8946 24.5636 49.3067Z" fill="#D1013E"/>
<path d="M27.757 49.3067C27.757 48.7188 27.2804 48.2422 26.6924 48.2422C26.1045 48.2422 25.6279 48.7188 25.6279 49.3067C25.6279 49.8946 26.1045 50.3712 26.6924 50.3712C27.2804 50.3712 27.757 49.8946 27.757 49.3067Z" fill="#D1013E"/>
<path d="M12.8535 54.0977H59.6922V56.2267H12.8535V54.0977Z" fill="#A80132"/>
<path d="M12.8535 39.1934H59.6922V41.3224H12.8535V39.1934Z" fill="#A80132"/>
<path d="M12.8535 33.8711H59.6922V36.0001H12.8535V33.8711Z" fill="#A80132"/>
<path d="M49.0471 10.4512H23.4987C20.6754 10.4512 17.9678 11.5727 15.9714 13.5691C13.9751 15.5654 12.8535 18.2731 12.8535 21.0963V24.2899C12.8535 21.4666 13.9751 18.759 15.9714 16.7626C17.9678 14.7663 20.6754 13.6447 23.4987 13.6447H49.0471C51.8703 13.6447 54.578 14.7663 56.5743 16.7626C58.5707 18.759 59.6922 21.4666 59.6922 24.2899V21.0963C59.6922 18.2731 58.5707 15.5654 56.5743 13.5691C54.578 11.5727 51.8703 10.4512 49.0471 10.4512V10.4512Z" fill="#FF014C"/>
<path d="M12.8535 56.2266H59.6922V58.3556H12.8535V56.2266Z" fill="#FFFCED"/>
<path d="M46.918 61.5488H59.6922V62.6133H46.918V61.5488Z" fill="#D1013E"/>
<path d="M46.918 62.6133H59.6922V63.6778H46.918V62.6133Z" fill="#A80132"/>
<path d="M12.8535 61.5488H25.6277V62.6133H12.8535V61.5488Z" fill="#D1013E"/>
<path d="M12.8535 62.6133H25.6277V63.6778H12.8535V62.6133Z" fill="#A80132"/>
<path d="M44.7893 58.8867H27.757C27.0512 58.8867 26.3743 59.1671 25.8752 59.6662C25.3761 60.1653 25.0957 60.8422 25.0957 61.548V63.677C25.0957 64.3829 25.3761 65.0598 25.8752 65.5589C26.3743 66.0579 27.0512 66.3383 27.757 66.3383H44.7893C45.4951 66.3383 46.172 66.0579 46.6711 65.5589C47.1702 65.0598 47.4505 64.3829 47.4505 63.677V61.548C47.4505 60.8422 47.1702 60.1653 46.6711 59.6662C46.172 59.1671 45.4951 58.8867 44.7893 58.8867V58.8867ZM46.9183 62.6125V63.677C46.9166 64.2412 46.6917 64.7817 46.2928 65.1806C45.8939 65.5795 45.3534 65.8044 44.7893 65.8061H27.757C27.1929 65.8044 26.6523 65.5795 26.2534 65.1806C25.8545 64.7817 25.6296 64.2412 25.628 63.677V61.548C25.6296 60.9839 25.8545 60.4433 26.2534 60.0444C26.6523 59.6455 27.1929 59.4207 27.757 59.419H44.7893C45.3534 59.4207 45.8939 59.6455 46.2928 60.0444C46.6917 60.4433 46.9166 60.9839 46.9183 61.548V62.6125Z" fill="#D1013E"/>
</svg>
