<?xml version="1.0" encoding="utf-8"?>
<!-- Generator: Adobe Illustrator 26.0.3, SVG Export Plug-In . SVG Version: 6.00 Build 0)  -->
<svg version="1.1" id="Layer_1" xmlns="http://www.w3.org/2000/svg" xmlns:xlink="http://www.w3.org/1999/xlink" x="0px" y="0px"
	 width="20px" height="20px" viewBox="0 0 20 20" style="enable-background:new 0 0 20 20;" xml:space="preserve">
<style type="text/css">
	.st0{fill:#99D485;}
</style>
<path class="st0" d="M11.7,0.1C4.9-1-1,4.9,0.1,11.7c0.7,4.1,4,7.5,8.2,8.2C15.1,21,21,15.1,19.9,8.3C19.2,4.2,15.8,0.8,11.7,0.1z
	 M7.9,13.4L6,11.6c-0.4-0.4-0.4-1.1,0-1.6l0,0c0.4-0.4,1.1-0.4,1.5,0L9,11.3l3.9-4c0.4-0.4,1.1-0.4,1.6,0l0,0c0.4,0.4,0.4,1.1,0,1.5
	L10,13.3C9.4,13.9,8.5,13.9,7.9,13.4z"/>
</svg>
