<svg width="24" height="24" viewBox="0 0 24 24" fill="none" xmlns="http://www.w3.org/2000/svg">
<path d="M16.2134 0H7.78613C6.1225 0 4.78613 1.33636 4.78613 3V21C4.78613 22.6636 6.14977 24 7.78613 24H16.2134C17.8771 24 19.2134 22.6636 19.2134 21V3C19.2134 1.33636 17.8771 0 16.2134 0ZM12.0134 22.0636C11.2498 22.0636 10.6498 21.4636 10.6498 20.7C10.6498 19.9364 11.2498 19.3364 12.0134 19.3364C12.777 19.3364 13.377 19.9364 13.377 20.7C13.377 21.4636 12.777 22.0636 12.0134 22.0636ZM17.8498 17.8909H6.14977V4.00909H17.8498V17.8909Z" fill="white"/>
</svg>
