<?xml version="1.0" encoding="utf-8"?>
<!-- Generator: Adobe Illustrator 26.0.3, SVG Export Plug-In . SVG Version: 6.00 Build 0)  -->
<svg version="1.1" id="Layer_1" xmlns="http://www.w3.org/2000/svg" xmlns:xlink="http://www.w3.org/1999/xlink" x="0px" y="0px"
	 width="48px" height="48px" viewBox="0 0 48 48" style="enable-background:new 0 0 48 48;" xml:space="preserve">
<style type="text/css">
	.st0{fill:#D7B56D;}
	.st1{fill-opacity:0.2;}
	.st2{fill:none;}
	.st3{fill:#FFDF75;}
	.st4{fill:#D1013E;}
	.st5{fill:#5260B9;}
</style>
<path class="st0" d="M46,24c0,12.2-9.8,22-22,22S2,36.2,2,24S11.8,2,24,2S46,11.8,46,24z"/>
<path class="st0" d="M42,24c0,9.9-8.1,18-18,18S6,33.9,6,24S14.1,6,24,6S42,14.1,42,24z"/>
<path class="st1" d="M42,24c0,9.9-8.1,18-18,18S6,33.9,6,24S14.1,6,24,6S42,14.1,42,24z"/>
<g>
	<path class="st2" d="M24,7L24,7c9.4,0,17,7.6,17,17l0,0c0,9.4-7.6,17-17,17l0,0c-9.4,0-17-7.6-17-17l0,0C7,14.6,14.6,7,24,7z"/>
	<path class="st3" d="M18,8.1v31.8c1.9,0.7,3.9,1.1,6,1.1s4.1-0.4,6-1.1V8.1C28.1,7.4,26.1,7,24,7S19.9,7.4,18,8.1z"/>
	<path class="st4" d="M41,24c0-7.3-4.6-13.5-11-15.9v31.8C36.4,37.5,41,31.3,41,24z"/>
	<path class="st5" d="M7,24c0,7.3,4.6,13.5,11,15.9V8.1C11.6,10.5,7,16.7,7,24z"/>
</g>
</svg>
