<svg width="48" height="48" viewBox="0 0 48 48" fill="none" xmlns="http://www.w3.org/2000/svg">
<path d="M11.25 41.25L8.7525 42.5025L7.5 45L6.2475 42.5025L3.75 41.25L6.2475 39.9975L7.5 37.5L8.7525 39.9975L11.25 41.25Z" fill="#FF9C00"/>
<path d="M44.25 6.75L41.7525 8.0025L40.5 10.5L39.2475 8.0025L36.75 6.75L39.2475 5.4975L40.5 3L41.7525 5.4975L44.25 6.75Z" fill="#FF9C00"/>
<path d="M30 42C36.6274 42 42 36.6274 42 30C42 23.3726 36.6274 18 30 18C23.3726 18 18 23.3726 18 30C18 36.6274 23.3726 42 30 42Z" fill="#FFC052"/>
<path d="M42.0001 30C42.0001 33.1826 40.7358 36.2348 38.4854 38.4853C36.2349 40.7357 33.1827 42 30.0001 42C26.8175 42 23.7653 40.7357 21.5148 38.4853C19.2644 36.2348 18.0001 33.1826 18.0001 30C17.9985 29.6244 18.016 29.2489 18.0526 28.875C18.3318 31.8504 19.7113 34.6146 21.921 36.6266C24.1307 38.6386 27.0116 39.7537 30.0001 39.7537C32.9886 39.7537 35.8695 38.6386 38.0792 36.6266C40.2889 34.6146 41.6684 31.8504 41.9476 28.875C41.9841 29.2489 42.0017 29.6244 42.0001 30Z" fill="#F0A53B"/>
<path d="M42.1949 17.8047C43.7992 19.4042 45.0716 21.305 45.9391 23.3978C46.8066 25.4906 47.2521 27.7342 47.2499 29.9997H45.7499C45.7531 27.9313 45.3464 25.8828 44.5535 23.9724C43.7605 22.0621 42.5969 20.3278 41.1299 18.8697L42.1949 17.8047Z" fill="#FFAF3F"/>
<path d="M30 45.7489C32.0684 45.7521 34.1169 45.3455 36.0272 44.5525C37.9376 43.7595 39.6719 42.5959 41.13 41.1289L42.195 42.1939C40.5954 43.7982 38.6947 45.0706 36.6019 45.9381C34.5091 46.8056 32.2655 47.2511 30 47.2489V45.7489Z" fill="#FFAF3F"/>
<path d="M18.87 41.13L17.805 42.195C15.7006 40.0958 14.1783 37.4853 13.3875 34.62C12.9613 33.1171 12.7468 31.5621 12.75 30H14.25C14.2469 32.0684 14.6535 34.1169 15.4465 36.0272C16.2394 37.9376 17.403 39.6719 18.87 41.13V41.13Z" fill="#FFAF3F"/>
<path d="M29.9997 12.7502V14.2502C27.9313 14.247 25.8828 14.6536 23.9724 15.4466C22.0621 16.2396 20.3278 17.4031 18.8697 18.8702L17.8047 17.8052C20.5422 15.0673 24.1222 13.3314 27.9672 12.8777C28.6411 12.7897 29.3201 12.7471 29.9997 12.7502Z" fill="#FFAF3F"/>
<path d="M18.8697 41.1289C20.3278 42.5959 22.0621 43.7595 23.9724 44.5525C25.8828 45.3455 27.9313 45.7521 29.9997 45.7489V47.2489C27.7342 47.2511 25.4906 46.8056 23.3978 45.9381C21.305 45.0706 19.4042 43.7982 17.8047 42.1939L18.8697 41.1289Z" fill="#F09413"/>
<path d="M18.8702 18.8697C17.4031 20.3278 16.2396 22.0621 15.4466 23.9724C14.6536 25.8828 14.247 27.9313 14.2502 29.9997H12.7502C12.7471 29.3201 12.7897 28.6411 12.8777 27.9672C13.1766 25.3656 14.0723 22.8682 15.4952 20.6697C16.1613 19.6354 16.9357 18.675 17.8052 17.8047L18.8702 18.8697Z" fill="#F09413"/>
<path d="M34.62 13.3875C37.4853 14.1782 40.0958 15.7005 42.195 17.805L41.13 18.87C39.6719 17.403 37.9376 16.2394 36.0272 15.4464C34.1169 14.6534 32.0684 14.2468 30 14.25V12.75C30.5025 12.75 30.9975 12.7725 31.485 12.8175C32.5463 12.9031 33.5965 13.094 34.62 13.3875V13.3875Z" fill="#F09413"/>
<path d="M45.7499 30H47.2499C47.2521 32.2655 46.8066 34.5091 45.9391 36.6019C45.0716 38.6947 43.7992 40.5954 42.1949 42.195L41.1299 41.13C42.5969 39.6719 43.7605 37.9376 44.5535 36.0272C45.3464 34.1169 45.7531 32.0684 45.7499 30Z" fill="#F09413"/>
<path d="M44.2502 30H45.7502C45.7534 32.0684 45.3468 34.1169 44.5538 36.0272C43.7609 37.9376 42.5973 39.6719 41.1302 41.13L40.0727 40.0725L38.6102 38.61L38.4902 38.49C39.6047 37.3751 40.4883 36.0513 41.0906 34.5945C41.6929 33.1377 42.002 31.5764 42.0002 30H44.2502Z" fill="#FFAF3F"/>
<path d="M21.3901 38.6102L21.5101 38.4902C22.625 39.6047 23.9488 40.4883 25.4056 41.0906C26.8624 41.6929 28.4237 42.002 30.0001 42.0002V45.7502C27.9317 45.7534 25.8832 45.3468 23.9729 44.5538C22.0625 43.7609 20.3282 42.5973 18.8701 41.1302L19.9276 40.0727L21.3901 38.6102Z" fill="#FFAF3F"/>
<path d="M21.39 21.3911L21.51 21.5111C20.3956 22.626 19.5119 23.9498 18.9096 25.4066C18.3074 26.8634 17.9982 28.4247 18 30.0011H14.25C14.2468 27.9327 14.6535 25.8842 15.4464 23.9739C16.2394 22.0635 17.403 20.3292 18.87 18.8711L19.9275 19.9286L21.39 21.3911Z" fill="#FFAF3F"/>
<path d="M38.61 21.39L38.49 21.51C37.3751 20.3956 36.0513 19.5119 34.5945 18.9096C33.1377 18.3074 31.5764 17.9982 30 18V14.25C32.0684 14.2468 34.1169 14.6535 36.0272 15.4464C37.9376 16.2394 39.6719 17.403 41.13 18.87L40.0725 19.9275L38.61 21.39Z" fill="#FFAF3F"/>
<path d="M21.51 38.49L21.39 38.61L19.9275 40.0725L18.87 41.13C17.403 39.6719 16.2394 37.9376 15.4464 36.0272C14.6535 34.1169 14.2468 32.0684 14.25 30H18C17.9982 31.5764 18.3074 33.1377 18.9096 34.5945C19.5119 36.0513 20.3956 37.3751 21.51 38.49Z" fill="#FFCB52"/>
<path d="M30.0001 15.75V18C28.4237 17.9982 26.8624 18.3074 25.4056 18.9096C23.9488 19.5119 22.625 20.3956 21.5101 21.51L21.3901 21.39L19.9276 19.9275L18.8701 18.87C20.3282 17.403 22.0625 16.2394 23.9729 15.4464C25.8832 14.6535 27.9317 14.2468 30.0001 14.25V15.75Z" fill="#FFCB52"/>
<path d="M45.7502 30.0011H42.0002C42.002 28.4247 41.6929 26.8634 41.0906 25.4066C40.4883 23.9498 39.6047 22.626 38.4902 21.5111L38.6102 21.3911L40.0727 19.9286L41.1302 18.8711C42.5973 20.3292 43.7609 22.0635 44.5538 23.9739C45.3468 25.8842 45.7534 27.9327 45.7502 30.0011Z" fill="#FFCB52"/>
<path d="M40.0725 40.0727L41.13 41.1302C39.6719 42.5973 37.9376 43.7609 36.0272 44.5538C34.1169 45.3468 32.0684 45.7534 30 45.7502V42.0002C31.5764 42.002 33.1377 41.6929 34.5945 41.0906C36.0513 40.4883 37.3751 39.6047 38.49 38.4902L38.61 38.6102L40.0725 40.0727Z" fill="#FFCB52"/>
<path d="M30 18C27.6266 18 25.3066 18.7038 23.3332 20.0224C21.3598 21.3409 19.8217 23.2151 18.9135 25.4078C18.0052 27.6005 17.7676 30.0133 18.2306 32.3411C18.6936 34.6689 19.8365 36.8071 21.5147 38.4853C23.193 40.1635 25.3312 41.3064 27.6589 41.7694C29.9867 42.2324 32.3995 41.9948 34.5922 41.0866C36.7849 40.1783 38.6591 38.6402 39.9776 36.6668C41.2962 34.6935 42 32.3734 42 30C42 26.8174 40.7357 23.7652 38.4853 21.5147C36.2349 19.2643 33.1826 18 30 18ZM30 41.25C27.775 41.25 25.5999 40.5902 23.7498 39.354C21.8998 38.1179 20.4578 36.3609 19.6064 34.3052C18.7549 32.2495 18.5321 29.9875 18.9662 27.8052C19.4003 25.6229 20.4717 23.6184 22.0451 22.045C23.6184 20.4717 25.623 19.4002 27.8052 18.9662C29.9875 18.5321 32.2495 18.7549 34.3052 19.6064C36.3609 20.4578 38.1179 21.8998 39.354 23.7498C40.5902 25.5999 41.25 27.775 41.25 30C41.25 32.9837 40.0647 35.8452 37.955 37.955C35.8452 40.0647 32.9837 41.25 30 41.25Z" fill="#C97C10"/>
<path d="M30.75 29.25V26.25H33V24.75H30.75V23.25H29.25V24.75C28.4544 24.75 27.6913 25.0661 27.1287 25.6287C26.5661 26.1913 26.25 26.9544 26.25 27.75C26.25 28.5456 26.5661 29.3087 27.1287 29.8713C27.6913 30.4339 28.4544 30.75 29.25 30.75V33.75H27V35.25H29.25V36.75H30.75V35.25C31.5457 35.25 32.3087 34.9339 32.8713 34.3713C33.4339 33.8087 33.75 33.0456 33.75 32.25C33.75 31.4544 33.4339 30.6913 32.8713 30.1287C32.3087 29.5661 31.5457 29.25 30.75 29.25ZM28.1903 28.8097C27.9808 28.6 27.8383 28.3329 27.7805 28.0421C27.7228 27.7514 27.7525 27.4501 27.8659 27.1762C27.9793 26.9024 28.1713 26.6682 28.4176 26.5034C28.6639 26.3385 28.9536 26.2504 29.25 26.25V29.25C29.053 29.2503 28.8579 29.2116 28.676 29.136C28.4941 29.0605 28.329 28.9496 28.1903 28.8097V28.8097ZM31.8097 33.3097C31.671 33.4496 31.5059 33.5605 31.324 33.636C31.1421 33.7116 30.947 33.7503 30.75 33.75V30.75C31.0464 30.7504 31.3361 30.8385 31.5824 31.0034C31.8287 31.1682 32.0207 31.4024 32.1341 31.6762C32.2475 31.9501 32.2772 32.2514 32.2195 32.5421C32.1617 32.8329 32.0192 33.1 31.8097 33.3097Z" fill="#FFDF75"/>
<path d="M36.0049 30.0414C35.8318 31.2006 35.4234 32.3121 34.8049 33.3076C34.6041 33.5494 34.4997 33.8568 34.5117 34.1709C34.5768 34.3982 34.7223 34.5941 34.9212 34.7221C35.3066 34.9866 35.7478 35.1586 36.2105 35.2247C36.6732 35.2908 37.1449 35.2492 37.5889 35.1031C38.4647 34.8102 39.2169 34.2318 39.7249 33.4606C40.1851 32.8233 40.4512 32.0665 40.4911 31.2814C40.5311 30.4963 40.3431 29.7164 39.9499 29.0356C39.6306 28.5132 39.1495 28.1092 38.5797 27.8851C38.2654 27.7736 37.9314 27.7284 37.5988 27.7523C37.2662 27.7762 36.9421 27.8686 36.6469 28.0239C36.0799 28.4439 36.0949 29.4316 36.0049 30.0414V30.0414Z" fill="#FFDF75"/>
<path d="M25.6502 25.0802C24.8135 25.6336 24.0989 26.3524 23.5503 27.1922C23.4048 27.4172 23.2503 27.664 22.9855 27.733C22.7816 27.7689 22.5715 27.7334 22.3908 27.6325C22.0368 27.4522 21.7302 27.1912 21.4957 26.8706C21.2612 26.55 21.1053 26.1787 21.0408 25.7867C20.9268 25.0219 21.0862 24.2414 21.4908 23.5825C21.8301 22.992 22.3284 22.5087 22.9289 22.1876C23.5294 21.8664 24.208 21.7204 24.8875 21.766C25.4193 21.8072 25.9247 22.0142 26.3327 22.3577C26.5418 22.5454 26.7082 22.7758 26.8206 23.0333C26.933 23.2907 26.9889 23.5693 26.9845 23.8502C26.8802 24.4292 26.0957 24.7862 25.6502 25.0802Z" fill="#FFDF75"/>
<path d="M40.6064 40.6065L41.1314 41.1315C42.5984 39.6731 43.7618 37.9385 44.5545 36.0279C45.3472 34.1173 45.7535 32.0685 45.75 30H45C45.0025 31.9702 44.6156 33.9215 43.8616 35.7417C43.1076 37.5619 42.0014 39.2152 40.6064 40.6065V40.6065Z" fill="#FAD039"/>
<path d="M19.3932 40.6055L18.8682 41.1305C20.3266 42.5974 22.0612 43.7608 23.9718 44.5535C25.8824 45.3463 27.9311 45.7526 29.9997 45.749V44.999C28.0295 45.0015 26.0782 44.6146 24.258 43.8607C22.4378 43.1067 20.7845 42.0004 19.3932 40.6055V40.6055Z" fill="#FAD039"/>
<path d="M19.3935 19.3941L18.8685 18.8691C17.4016 20.3276 16.2382 22.0622 15.4455 23.9728C14.6527 25.8834 14.2464 27.9321 14.25 30.0006H15C14.9975 28.0304 15.3844 26.0792 16.1383 24.259C16.8923 22.4387 17.9986 20.7855 19.3935 19.3941V19.3941Z" fill="#FAD039"/>
<path d="M40.6065 19.3935L41.1315 18.8685C39.6731 17.4016 37.9385 16.2382 36.0279 15.4455C34.1173 14.6527 32.0685 14.2464 30 14.25V15C31.9702 14.9975 33.9215 15.3844 35.7417 16.1383C37.5619 16.8923 39.2152 17.9986 40.6065 19.3935V19.3935Z" fill="#FAD039"/>
<path d="M15 30H14.25C14.2468 32.0684 14.6535 34.1169 15.4464 36.0272C16.2394 37.9376 17.403 39.6719 18.87 41.13L19.395 40.605C18 39.214 16.8936 37.561 16.1393 35.741C15.3851 33.9211 14.9979 31.97 15 30V30Z" fill="#FFDF75"/>
<path d="M30.0001 15V14.25C27.9317 14.2468 25.8832 14.6535 23.9729 15.4464C22.0625 16.2394 20.3282 17.403 18.8701 18.87L19.3951 19.395C20.7861 18 22.4391 16.8936 24.2591 16.1393C26.079 15.3851 28.0301 14.9979 30.0001 15V15Z" fill="#FFDF75"/>
<path d="M40.6064 19.3946C42.0014 20.7859 43.1076 22.4392 43.8616 24.2594C44.6156 26.0796 45.0025 28.0309 45 30.0011H45.75C45.7531 27.9327 45.3465 25.8842 44.5535 23.9739C43.7606 22.0635 42.597 20.3292 41.1299 18.8711L40.6064 19.3946Z" fill="#FFDF75"/>
<path d="M30 45.0005V45.7505C32.0684 45.7537 34.1169 45.347 36.0272 44.5541C37.9376 43.7611 39.6719 42.5975 41.13 41.1305L40.605 40.6055C39.214 42.0005 37.561 43.1069 35.741 43.8612C33.9211 44.6154 31.97 45.0026 30 45.0005Z" fill="#FFDF75"/>
<path d="M30.75 35.892C31.268 35.7623 31.7414 35.4951 32.1203 35.1188C32.2451 34.9917 32.3585 34.8539 32.4593 34.707C31.9588 35.0591 31.3619 35.2482 30.75 35.2485V35.892Z" fill="#F0A53B"/>
<path d="M29.25 35.25H27V34.5H26.25V36H28.5V37.5H30V36.75H29.25V35.25Z" fill="#F0A53B"/>
<path d="M29.25 30.751C28.7019 30.7521 28.164 30.6027 27.695 30.3191C27.226 30.0355 26.8438 29.6286 26.5902 29.1428C26.3365 28.6569 26.221 28.1108 26.2564 27.5638C26.2918 27.0169 26.4766 26.4901 26.7907 26.041C26.2678 26.406 25.8748 26.9282 25.6687 27.5317C25.4627 28.1352 25.4543 28.7887 25.6448 29.3973C25.8353 30.0059 26.2148 30.5379 26.7283 30.9162C27.2417 31.2945 27.8623 31.4994 28.5 31.501V33.751H29.25V30.751Z" fill="#F0A53B"/>
<path d="M30.75 26.25H32.25V27H30.75V26.25Z" fill="#F0A53B"/>
<path d="M29.25 24H28.5V24.8565C28.7444 24.789 28.9965 24.7532 29.25 24.75V24Z" fill="#F0A53B"/>
<path d="M32.25 32.25C32.25 31.8522 32.092 31.4706 31.8107 31.1893C31.5294 30.908 31.1478 30.75 30.75 30.75V31.7085C31.0724 31.8916 31.3145 32.1889 31.4283 32.5417C31.5422 32.8945 31.5196 33.2773 31.365 33.6143C31.5303 33.5402 31.681 33.4371 31.8098 33.3097C31.9497 33.1711 32.0606 33.006 32.1362 32.824C32.2118 32.6421 32.2505 32.447 32.25 32.25V32.25Z" fill="#F0A53B"/>
<path d="M27.8848 27.135C28.0778 27.0468 28.2875 27.0008 28.4998 27V29.0415C28.7268 29.1765 28.9857 29.2484 29.2498 29.25V26.25C28.9612 26.2506 28.679 26.3344 28.4369 26.4914C28.1948 26.6484 28.0031 26.8718 27.8848 27.135Z" fill="#F0A53B"/>
<path d="M29.475 8.85714C29.2806 8.55638 29.2002 8.19597 29.2483 7.84108C29.2965 7.48618 29.47 7.16022 29.7375 6.92214L30 6.68214L30.555 6.18714C28.374 3.8547 25.5838 2.17904 22.5 1.34964V2.54964C22.4551 2.90541 22.2733 3.22968 21.9933 3.4537C21.7133 3.67772 21.357 3.78387 21 3.74964H15C14.6431 3.78387 14.2868 3.67772 14.0068 3.4537C13.7268 3.22968 13.545 2.90541 13.5 2.54964V1.34964C10.4191 2.17639 7.63127 3.8496 5.45255 6.17964L6.00755 6.67464L6.27755 6.92214C6.54325 7.16142 6.71545 7.4872 6.76352 7.84152C6.81158 8.19584 6.7324 8.55572 6.54005 8.85714L3.79505 14.1446C3.41255 14.8796 2.68505 15.1946 2.16005 14.8571L1.83005 14.7146L1.13255 14.4146C0.875392 15.5922 0.747138 16.7943 0.750048 17.9996C0.748367 19.202 0.874068 20.4012 1.12505 21.5771L1.83005 21.2771L2.16005 21.1346C2.68505 20.7971 3.41255 21.1196 3.79505 21.8471L6.54005 27.1421C6.73195 27.4437 6.81088 27.8035 6.76283 28.1577C6.71478 28.5119 6.54286 28.8376 6.27755 29.0771L5.44505 29.8196C7.60311 32.1167 10.3505 33.7771 13.3875 34.6196C13.3001 34.3412 13.2275 34.0583 13.17 33.7721C12.8889 32.5344 12.748 31.2689 12.75 29.9996C12.75 29.6021 12.765 29.2046 12.795 28.8146C12.81 28.5446 12.8325 28.2746 12.87 28.0121C11.292 27.2035 9.92743 26.0333 8.88766 24.597C7.8479 23.1606 7.16237 21.4989 6.887 19.7472C6.61163 17.9955 6.75422 16.2036 7.30313 14.5175C7.85205 12.8314 8.79174 11.299 10.0456 10.0452C11.2994 8.79133 12.8318 7.85164 14.5179 7.30272C16.204 6.75381 17.9959 6.61122 19.7476 6.88659C21.4993 7.16196 23.161 7.84749 24.5974 8.88726C26.0337 9.92702 27.2039 11.2916 28.0125 12.8696C28.275 12.8321 28.545 12.8096 28.815 12.7946C29.205 12.7646 29.6025 12.7496 30 12.7496C30.511 12.7481 31.0217 12.7731 31.53 12.8246L29.475 8.85714Z" fill="#D1013E"/>
<path d="M17.9995 6.75C15.4746 6.7499 13.0231 7.59915 11.0394 9.16113C9.05564 10.7231 7.65502 12.907 7.06283 15.3614C6.47065 17.8159 6.72134 20.3982 7.77458 22.6929C8.82781 24.9876 10.6223 26.8613 12.8695 28.0125C12.8912 27.748 12.9288 27.485 12.982 27.225C13.3517 24.8883 14.2077 22.6552 15.4945 20.67C14.6178 19.4552 13.402 18.5264 11.9995 18C15.427 17.0325 17.9995 11.25 17.9995 11.25C18.7084 12.7724 19.6 14.2029 20.6545 15.51C22.6419 14.214 24.8809 13.3527 27.2245 12.9825C27.4845 12.9293 27.7475 12.8917 28.012 12.87C27.0673 11.0277 25.6328 9.48173 23.8664 8.40199C22.0999 7.32225 20.0698 6.75063 17.9995 6.75V6.75Z" fill="#FFFCED"/>
<path d="M20.655 15.51C18.5838 16.8387 16.8237 18.5988 15.495 20.67C14.6184 19.4552 13.4025 18.5264 12 18C15.4275 17.0325 18 11.25 18 11.25C18.709 12.7724 19.6005 14.2029 20.655 15.51V15.51Z" fill="#D1013E"/>
<path d="M2.16 21.136C2.685 20.7985 3.4125 21.121 3.795 21.8485L6.54 27.1435C6.7319 27.4451 6.81083 27.8048 6.76278 28.159C6.71473 28.5132 6.54281 28.839 6.2775 29.0785L5.445 29.821C3.27512 27.5225 1.78043 24.6707 1.125 21.5785L2.16 21.136Z" fill="#F7F3E1"/>
<path d="M3.79531 14.1447C3.41281 14.8797 2.68531 15.1947 2.16031 14.8572L1.13281 14.4147C1.78205 11.3225 3.27767 8.47144 5.45281 6.17969L6.27781 6.92219C6.54351 7.16147 6.71572 7.48725 6.76378 7.84157C6.81185 8.19589 6.73266 8.55577 6.54031 8.85719L3.79531 14.1447Z" fill="#F7F3E1"/>
<path d="M22.5 1.35V2.55C22.455 2.90577 22.2733 3.23004 21.9932 3.45406C21.7132 3.67808 21.357 3.78423 21 3.75H15C14.643 3.78423 14.2868 3.67808 14.0068 3.45406C13.7267 3.23004 13.545 2.90577 13.5 2.55V1.35C16.4467 0.55 19.5533 0.55 22.5 1.35V1.35Z" fill="#F7F3E1"/>
<path d="M34.6197 13.3875C34.3438 13.3001 34.0634 13.2275 33.7797 13.17C33.039 13.001 32.287 12.8857 31.5297 12.825L29.4747 8.8575C29.2803 8.55674 29.1998 8.19633 29.248 7.84144C29.2961 7.48654 29.4697 7.16058 29.7372 6.9225L29.9997 6.6825L30.5547 6.1875C32.4774 8.21952 33.873 10.6915 34.6197 13.3875Z" fill="#F7F3E1"/>
<path d="M18.0005 6C15.2809 5.99878 12.6415 6.92141 10.5149 8.61671C8.3883 10.312 6.90064 12.6794 6.29573 15.3309C5.69082 17.9824 6.00453 20.7608 7.18545 23.2107C8.36637 25.6605 10.3445 27.6366 12.7955 28.815C12.8105 28.545 12.833 28.275 12.8705 28.0125C11.2925 27.2039 9.92792 26.0337 8.88815 24.5973C7.84839 23.161 7.16286 21.4992 6.88749 19.7476C6.61212 17.9959 6.75471 16.2039 7.30362 14.5179C7.85254 12.8318 8.79223 11.2993 10.0461 10.0455C11.2999 8.79169 12.8323 7.852 14.5184 7.30309C16.2045 6.75417 17.9964 6.61159 19.7481 6.88696C21.4998 7.16232 23.1615 7.84785 24.5979 8.88762C26.0342 9.92739 27.2044 11.292 28.013 12.87C28.2755 12.8325 28.5455 12.81 28.8155 12.795C27.8354 10.7591 26.3004 9.04119 24.3872 7.83909C22.4739 6.63699 20.2601 5.99951 18.0005 6V6Z" fill="#A80132"/>
<path d="M17.9995 6.75C15.4746 6.7499 13.0231 7.59915 11.0394 9.16113C9.05564 10.7231 7.65502 12.907 7.06283 15.3614C6.47065 17.8159 6.72134 20.3982 7.77458 22.6929C8.82781 24.9876 10.6223 26.8613 12.8695 28.0125C12.8912 27.748 12.9288 27.485 12.982 27.225C11.5479 26.4443 10.3157 25.3399 9.38326 23.9996C8.45079 22.6592 7.84375 21.1199 7.61037 19.5039C7.37699 17.8879 7.5237 16.2397 8.03885 14.6903C8.554 13.1409 9.42339 11.733 10.5779 10.5785C11.7325 9.42391 13.1404 8.55452 14.6898 8.03937C16.2392 7.52423 17.8874 7.37752 19.5034 7.6109C21.1194 7.84428 22.6587 8.45132 23.999 9.38379C25.3394 10.3163 26.4438 11.5485 27.2245 12.9825C27.4845 12.9293 27.7475 12.8917 28.012 12.87C27.0673 11.0277 25.6328 9.48173 23.8664 8.40199C22.0999 7.32225 20.0698 6.75063 17.9995 6.75V6.75Z" fill="#E3DECB"/>
<path d="M6.2775 29.0785L5.445 29.821C3.27512 27.5225 1.78043 24.6707 1.125 21.5785L2.16 21.136C2.685 20.7985 3.4125 21.121 3.795 21.8485L6.54 27.1435C6.7319 27.4451 6.81083 27.8048 6.76278 28.159C6.71473 28.5132 6.54281 28.839 6.2775 29.0785V29.0785Z" fill="#E3DECB"/>
<path d="M1.50005 17.9998C1.49971 16.8964 1.60951 15.7957 1.8278 14.7141L1.13255 14.4141C0.87534 15.5919 0.747085 16.7942 0.75005 17.9998C0.748368 19.2022 0.87407 20.4014 1.12505 21.5773L1.82705 21.2773C1.60942 20.1984 1.49988 19.1005 1.50005 17.9998V17.9998Z" fill="#8F0029"/>
<path d="M13.5006 2.12586V1.34961C10.4197 2.17636 7.63184 3.84957 5.45312 6.17961L6.00512 6.67686C8.0471 4.51118 10.6372 2.93858 13.5006 2.12586V2.12586Z" fill="#8F0029"/>
<path d="M13.3878 34.6192C10.3508 33.7766 7.60337 32.1163 5.44531 29.8192L6.00031 29.3242C7.96493 31.4025 10.4356 32.935 13.1703 33.7717C13.2278 34.0579 13.3004 34.3408 13.3878 34.6192V34.6192Z" fill="#8F0029"/>
<path d="M30 6.68364L30.5527 6.18714C28.3723 3.85506 25.5829 2.17942 22.5 1.34964V2.12589C25.3658 2.93974 27.9576 4.51478 30 6.68364V6.68364Z" fill="#8F0029"/>
<path d="M1.827 21.2773L1.125 21.5773C1.78043 24.6695 3.27512 27.5214 5.445 29.8198L6.00375 29.3218C3.88555 27.0844 2.43834 24.2971 1.827 21.2773V21.2773Z" fill="#C7C3B2"/>
<path d="M6.00481 6.67469L5.45281 6.17969C3.27767 8.47144 1.78205 11.3225 1.13281 14.4147L1.82806 14.7147C2.44039 11.6966 3.88752 8.91095 6.00481 6.67469V6.67469Z" fill="#E3DECB"/>
<path d="M18 1.5C19.5217 1.50025 21.0361 1.71099 22.5 2.12625V1.35C19.5533 0.55 16.4467 0.55 13.5 1.35V2.12625C14.9639 1.71099 16.4783 1.50025 18 1.5V1.5Z" fill="#E3DECB"/>
<path d="M34.62 13.3875C34.3441 13.3001 34.0637 13.2275 33.78 13.17C33.0378 10.7447 31.744 8.52414 30 6.6825L30.555 6.1875C32.4776 8.21952 33.8733 10.6915 34.62 13.3875Z" fill="#E3DECB"/>
<path d="M3.75 18.75C4.16421 18.75 4.5 18.4142 4.5 18C4.5 17.5858 4.16421 17.25 3.75 17.25C3.33579 17.25 3 17.5858 3 18C3 18.4142 3.33579 18.75 3.75 18.75Z" fill="#FFFCED"/>
<path d="M10.5 30.75C10.9142 30.75 11.25 30.4142 11.25 30C11.25 29.5858 10.9142 29.25 10.5 29.25C10.0858 29.25 9.75 29.5858 9.75 30C9.75 30.4142 10.0858 30.75 10.5 30.75Z" fill="#FFFCED"/>
<path d="M10.5 6.75C10.9142 6.75 11.25 6.41421 11.25 6C11.25 5.58579 10.9142 5.25 10.5 5.25C10.0858 5.25 9.75 5.58579 9.75 6C9.75 6.41421 10.0858 6.75 10.5 6.75Z" fill="#FFFCED"/>
<path d="M25.5 6.75C25.9142 6.75 26.25 6.41421 26.25 6C26.25 5.58579 25.9142 5.25 25.5 5.25C25.0858 5.25 24.75 5.58579 24.75 6C24.75 6.41421 25.0858 6.75 25.5 6.75Z" fill="#FFFCED"/>
<path d="M27.9601 12.7793C27.9804 12.8076 27.998 12.8377 28.0126 12.8693C28.1701 12.8468 28.3276 12.8318 28.4926 12.8168C28.3201 12.8018 28.1401 12.7868 27.9601 12.7793ZM12.7501 29.9993C12.7501 29.6018 12.7651 29.2043 12.7951 28.8143C12.8101 28.5443 12.8326 28.2743 12.8701 28.0118C11.8931 27.5055 10.9939 26.8615 10.2001 26.0993C10.1239 26.3853 10.0663 26.6759 10.0276 26.9693C9.83998 27.9683 9.74707 28.9828 9.75014 29.9993C9.74678 30.7975 9.80445 31.5949 9.92264 32.3843C9.96014 32.6993 10.0126 33.0143 10.0726 33.3218H10.0801C11.1358 33.8653 12.244 34.3 13.3876 34.6193C13.3002 34.3408 13.2276 34.0579 13.1701 33.7718C12.889 32.534 12.7481 31.2686 12.7501 29.9993V29.9993Z" fill="#8F0029"/>
<path d="M27.9602 12.78C27.6752 12.7575 27.3827 12.75 27.0902 12.75H27.0002C24.5031 12.747 22.0356 13.2896 19.7702 14.34C20.0402 14.73 20.3402 15.1275 20.6552 15.51C22.6426 14.214 24.8816 13.3527 27.2252 12.9825C27.4852 12.9293 27.7482 12.8917 28.0127 12.87C27.998 12.8384 27.9804 12.8083 27.9602 12.78V12.78ZM13.7702 18.945C12.22 20.7902 11.0775 22.9422 10.4177 25.26C10.3352 25.5375 10.2602 25.815 10.2002 26.1C10.9939 26.8622 11.8931 27.5063 12.8702 28.0125C12.8919 27.748 12.9295 27.485 12.9827 27.225C13.3524 24.8883 14.2084 22.6552 15.4952 20.67C14.9877 20.0313 14.4089 19.4525 13.7702 18.945V18.945Z" fill="#E3DECB"/>
<path d="M20.6545 15.5098C18.5833 16.8385 16.8232 18.5986 15.4945 20.6698C14.987 20.0311 14.4083 19.4524 13.7695 18.9448C15.4004 16.9809 17.4507 15.4074 19.7695 14.3398C20.0395 14.7298 20.3395 15.1273 20.6545 15.5098V15.5098Z" fill="#A80132"/>
<path d="M27.9598 12.7793C27.9801 12.8076 27.9977 12.8377 28.0123 12.8693C28.1698 12.8468 28.3273 12.8318 28.4923 12.8168C28.3198 12.8018 28.1398 12.7868 27.9598 12.7793ZM10.0273 26.9693C10.8619 27.7069 11.793 28.3276 12.7948 28.8143C12.8098 28.5443 12.8323 28.2743 12.8698 28.0118C11.8928 27.5055 10.9936 26.8614 10.1998 26.0993C10.1236 26.3853 10.066 26.6759 10.0273 26.9693V26.9693Z" fill="#8F0029"/>
<path d="M27.9602 12.78C27.6752 12.7575 27.3827 12.75 27.0902 12.75C27.1352 12.825 27.1802 12.9 27.2252 12.9825C27.4852 12.9293 27.7482 12.8917 28.0127 12.87C27.998 12.8384 27.9804 12.8083 27.9602 12.78V12.78ZM10.2002 26.1C10.9939 26.8622 11.8931 27.5062 12.8702 28.0125C12.8919 27.748 12.9295 27.485 12.9827 27.225C12.0323 26.7049 11.1673 26.0422 10.4177 25.26C10.3352 25.5375 10.2602 25.815 10.2002 26.1V26.1Z" fill="#E3DECB"/>
<path d="M13.3869 34.6198C12.2433 34.3005 11.1351 33.8657 10.0794 33.3223H10.0719C10.0119 33.0148 9.95937 32.6998 9.92188 32.3848C10.9513 32.9627 12.0401 33.4279 13.1694 33.7723C13.2268 34.0584 13.2995 34.3413 13.3869 34.6198V34.6198Z" fill="#8F0029"/>
<path d="M10.5 30.75C10.9142 30.75 11.25 30.4142 11.25 30C11.25 29.5858 10.9142 29.25 10.5 29.25C10.0858 29.25 9.75 29.5858 9.75 30C9.75 30.4142 10.0858 30.75 10.5 30.75Z" fill="#E3DECB"/>
</svg>
