<svg width="48" height="48" viewBox="0 0 48 48" fill="none" xmlns="http://www.w3.org/2000/svg">
<path d="M24.0002 0C16.6255 7.74975 4.375 6 4.375 6V27C4.375 39.375 24.0002 48 24.0002 48C24.0002 48 43.6255 39.375 43.6255 27V6C43.6255 6 31.375 7.74975 24.0002 0Z" fill="#32BEA6"/>
<path d="M23.9999 6.9082C18.7499 12.4275 10.0244 11.1832 10.0244 11.1832V26.1382C10.0244 34.95 23.9999 41.0917 23.9999 41.0917C23.9999 41.0917 37.9762 34.9492 37.9762 26.1367V11.1817C37.9762 11.1817 29.2499 12.4275 23.9999 6.9082Z" fill="#415E72"/>
<path d="M22.6259 31.6449L15.3779 25.5894L17.3009 23.2869L22.0499 27.2552L29.8312 16.2227L32.2837 17.9514L22.6259 31.6449Z" fill="white"/>
</svg>
