<svg width="120" height="120" viewBox="0 0 120 120" fill="none" xmlns="http://www.w3.org/2000/svg">
<path d="M87.625 36.625H100.625C101.056 36.625 101.469 36.7962 101.774 37.101C102.079 37.4057 102.25 37.819 102.25 38.25V49.625H95.75C95.319 49.625 94.9057 49.7962 94.601 50.101C94.2962 50.4057 94.125 50.819 94.125 51.25V59.375H87.625C87.194 59.375 86.7807 59.2038 86.476 58.899C86.1712 58.5943 86 58.181 86 57.75V38.25C86 37.819 86.1712 37.4057 86.476 37.101C86.7807 36.7962 87.194 36.625 87.625 36.625Z" fill="#E3DECB"/>
<path d="M32.375 10.625H19.375C18.4775 10.625 17.75 11.3525 17.75 12.25V31.75C17.75 32.6475 18.4775 33.375 19.375 33.375H32.375C33.2725 33.375 34 32.6475 34 31.75V12.25C34 11.3525 33.2725 10.625 32.375 10.625Z" fill="#F7F3E1"/>
<path d="M24.25 54.5H11.25C10.3525 54.5 9.625 55.2275 9.625 56.125V75.625C9.625 76.5225 10.3525 77.25 11.25 77.25H24.25C25.1475 77.25 25.875 76.5225 25.875 75.625V56.125C25.875 55.2275 25.1475 54.5 24.25 54.5Z" fill="#F7F3E1"/>
<path d="M110.375 51.25V70.75C110.375 71.181 110.204 71.5943 109.899 71.899C109.594 72.2038 109.181 72.375 108.75 72.375H95.75C95.319 72.375 94.9057 72.2038 94.601 71.899C94.2962 71.5943 94.125 71.181 94.125 70.75V51.25C94.125 50.819 94.2962 50.4057 94.601 50.101C94.9057 49.7962 95.319 49.625 95.75 49.625H108.75C109.181 49.625 109.594 49.7962 109.899 50.101C110.204 50.4057 110.375 50.819 110.375 51.25Z" fill="#F7F3E1"/>
<path d="M85.9836 77.2989L82.7499 88.6251V111.375H37.2499V88.6251L34.0161 77.2989C34.2975 77.1898 34.5851 77.0975 34.8774 77.0226L42.0274 75.2351L42.1249 75.6251L59.9999 96.7501L77.8749 75.6251L77.9724 75.2351L85.1224 77.0226C85.4147 77.0975 85.7023 77.1898 85.9836 77.2989Z" fill="#3B2F2D"/>
<path d="M92.5 86.4801V111.375H82.75V88.6251L85.9838 77.2988C87.889 77.9628 89.5401 79.2036 90.7079 80.849C91.8756 82.4943 92.502 84.4625 92.5 86.4801V86.4801Z" fill="#F7F3E1"/>
<path d="M37.25 88.6251V111.375H27.5V86.4801C27.498 84.4625 28.1244 82.4943 29.2921 80.849C30.4599 79.2036 32.111 77.9628 34.0163 77.2988L37.25 88.6251Z" fill="#F7F3E1"/>
<path d="M69.7498 78.875V73.1875L77.9723 75.235L77.8748 75.625L59.9998 96.75L42.1248 75.625L42.0273 75.235L50.2498 73.1875V78.875L59.9998 75.625L69.7498 78.875Z" fill="#F7F3E1"/>
<path d="M60 72.375V75.625L50.25 78.875V69.125C51.3284 69.1263 52.4047 69.2188 53.4675 69.4012C55.8809 69.7598 58.1447 70.7904 60 72.375Z" fill="#3B2F2D"/>
<path d="M69.75 73.1875V78.875L60 75.625V72.375C61.8553 70.7904 64.1191 69.7598 66.5325 69.4012C67.5953 69.2188 68.6716 69.1263 69.75 69.125V73.1875Z" fill="#3B2F2D"/>
<path d="M66.4998 69.1252L66.5323 69.4014C64.1189 69.76 61.8551 70.7905 59.9998 72.3752C58.1445 70.7905 55.8807 69.76 53.4673 69.4014L53.4998 69.1252V62.7227C55.5193 63.7273 57.7442 64.2501 59.9998 64.2501C62.2554 64.2501 64.4803 63.7273 66.4998 62.7227V69.1252Z" fill="#F5C8AB"/>
<path d="M79.4999 46.375C79.5036 48.1094 78.9631 49.8013 77.9544 51.2123C76.9457 52.6233 75.5198 53.6823 73.8774 54.24C74.3752 52.7524 74.6277 51.1937 74.6249 49.625V43.125H76.2499C77.1111 43.1276 77.9363 43.4708 78.5452 44.0797C79.1541 44.6887 79.4974 45.5138 79.4999 46.375V46.375Z" fill="#F5C8AB"/>
<path d="M45.375 43.125V49.625C45.3723 51.1937 45.6247 52.7524 46.1225 54.24C44.4802 53.6823 43.0542 52.6233 42.0456 51.2123C41.0369 49.8013 40.4963 48.1094 40.5 46.375C40.5026 45.5138 40.8458 44.6887 41.4548 44.0797C42.0637 43.4708 42.8889 43.1276 43.75 43.125H45.375Z" fill="#F5C8AB"/>
<path d="M73.8613 54.24C73.2538 56.0692 72.2907 57.7603 71.0274 59.216C69.7641 60.6718 68.2255 61.8634 66.5 62.7225C64.6272 63.6535 62.5763 64.1713 60.486 64.241C58.3958 64.3106 56.3149 63.9304 54.3843 63.1261C52.4537 62.3219 50.7184 61.1122 49.2959 59.5791C47.8733 58.0461 46.7966 56.2253 46.1388 54.24H46.1225C45.6247 52.7524 45.3723 51.1937 45.375 49.625V36.625C50.25 36.625 53.5 28.5 53.5 28.5C53.5 28.5 64.875 36.625 74.625 36.625V49.625C74.6278 51.1937 74.3753 52.7524 73.8775 54.24H73.8613Z" fill="#FCD9C2"/>
<path d="M43.75 43.125C42.8888 43.1276 42.0637 43.4708 41.4547 44.0797C40.8458 44.6887 40.5026 45.5138 40.5 46.375L38.875 38.25V31.75C38.875 26.1473 41.1007 20.7741 45.0624 16.8124C49.0241 12.8507 54.3973 10.625 60 10.625C65.6027 10.625 70.9759 12.8507 74.9376 16.8124C78.8993 20.7741 81.125 26.1473 81.125 31.75V38.25L79.5 46.375C79.4974 45.5138 79.1542 44.6887 78.5453 44.0797C77.9363 43.4708 77.1112 43.1276 76.25 43.125H74.625V36.625C64.875 36.625 53.5 28.5 53.5 28.5C53.5 28.5 50.25 36.625 45.375 36.625V43.125H43.75Z" fill="#2E2523"/>
<path d="M97.3765 52.0625L99.0015 54.5L97.3765 56.9375L95.7515 54.5L97.3765 52.0625Z" fill="#A80132"/>
<path d="M50.25 82.125L60 78.875L69.75 82.125V78.875L60 75.625L50.25 78.875V82.125Z" fill="#E3DECB"/>
<path d="M76.1199 51.4937C77.2603 50.0314 77.8781 48.2294 77.8749 46.375C77.8723 45.5138 77.5291 44.6887 76.9202 44.0797C76.3112 43.4708 75.4861 43.1276 74.6249 43.125V49.625C74.6242 50.8609 74.4664 52.0917 74.1553 53.2878C74.903 52.8001 75.5665 52.1942 76.1199 51.4937V51.4937Z" fill="#EDBD9F"/>
<path d="M45.3752 43.125C44.514 43.1276 43.6889 43.4708 43.0799 44.0797C42.471 44.6887 42.1278 45.5138 42.1252 46.375C42.1159 47.7467 42.4516 49.0987 43.1016 50.3067C43.7516 51.5147 44.6949 52.5398 45.8448 53.2878C45.5337 52.0917 45.3758 50.8609 45.3752 49.625V43.125Z" fill="#EDBD9F"/>
<path d="M107.126 65.0627L108.751 67.5002L107.126 69.9377L105.501 67.5002L107.126 65.0627Z" fill="#A80132"/>
<path d="M90.0628 39.1145C90.0628 38.899 89.9772 38.6924 89.8248 38.54C89.6725 38.3876 89.4658 38.302 89.2503 38.302C89.0348 38.302 88.8282 38.3876 88.6758 38.54C88.5234 38.6924 88.4378 38.899 88.4378 39.1145C88.2169 39.128 88.0094 39.2253 87.8577 39.3866C87.706 39.5478 87.6216 39.7609 87.6216 39.9823C87.6216 40.2036 87.706 40.4167 87.8577 40.5779C88.0094 40.7392 88.2169 40.8365 88.4378 40.85C88.5765 40.8497 88.714 40.8249 88.8441 40.7769V41.5H89.6566V40.7769C89.7866 40.8249 89.9242 40.8497 90.0628 40.85C90.2838 40.8365 90.4913 40.7392 90.6429 40.5779C90.7946 40.4167 90.8791 40.2036 90.8791 39.9823C90.8791 39.7609 90.7946 39.5478 90.6429 39.3866C90.4913 39.2253 90.2838 39.128 90.0628 39.1145V39.1145Z" fill="#2E2523"/>
<path d="M94.9378 47.2395C94.9378 47.024 94.8522 46.8174 94.6998 46.665C94.5475 46.5126 94.3408 46.427 94.1253 46.427C93.9098 46.427 93.7032 46.5126 93.5508 46.665C93.3984 46.8174 93.3128 47.024 93.3128 47.2395C93.0919 47.253 92.8844 47.3503 92.7327 47.5116C92.581 47.6728 92.4966 47.8859 92.4966 48.1073C92.4966 48.3286 92.581 48.5417 92.7327 48.7029C92.8844 48.8642 93.0919 48.9615 93.3128 48.975C93.4515 48.9747 93.589 48.9499 93.7191 48.9019V49.625H94.5316V48.9019C94.6616 48.9499 94.7992 48.9747 94.9378 48.975C95.1588 48.9615 95.3663 48.8642 95.5179 48.7029C95.6696 48.5417 95.7541 48.3286 95.7541 48.1073C95.7541 47.8859 95.6696 47.6728 95.5179 47.5116C95.3663 47.3503 95.1588 47.253 94.9378 47.2395V47.2395Z" fill="#2E2523"/>
<path d="M29.125 15.5C29.125 15.5 27.5 16.228 27.5 17.45C27.5 17.957 27.9062 18.1 28.3125 18.1C28.4564 18.1014 28.5974 18.0595 28.7171 17.9797V18.7549H29.5296V17.9765C29.6497 18.0585 29.7921 18.1017 29.9375 18.1C30.3438 18.1 30.75 17.957 30.75 17.45C30.75 16.228 29.125 15.5 29.125 15.5Z" fill="#2E2523"/>
<path d="M22.6169 15.5C22.6169 15.5 21 16.228 21 17.45C21 17.957 21.4062 18.1 21.8125 18.1C21.9564 18.1014 22.0974 18.0595 22.2171 17.9797V18.7549H23.0296V17.9765C23.1497 18.0585 23.2921 18.1017 23.4375 18.1C23.8438 18.1 24.25 17.957 24.25 17.45C24.25 16.228 22.625 15.5 22.6169 15.5V15.5Z" fill="#2E2523"/>
<path d="M25.875 20.375C25.875 20.375 24.25 21.103 24.25 22.325C24.25 22.832 24.6562 22.975 25.0625 22.975C25.2064 22.9764 25.3474 22.9345 25.4671 22.8547V23.6299H26.2796V22.8515C26.3997 22.9335 26.5421 22.9767 26.6875 22.975C27.0938 22.975 27.5 22.832 27.5 22.325C27.5 21.103 25.875 20.375 25.875 20.375V20.375Z" fill="#2E2523"/>
<path d="M22.6169 25.25C22.6169 25.25 21 25.978 21 27.2C21 27.707 21.4062 27.85 21.8125 27.85C21.9564 27.8515 22.0974 27.8095 22.2171 27.7298V28.5049H23.0296V27.7265C23.1497 27.8086 23.2921 27.8517 23.4375 27.85C23.8438 27.85 24.25 27.707 24.25 27.2C24.25 25.978 22.625 25.25 22.6169 25.25V25.25Z" fill="#2E2523"/>
<path d="M29.125 25.25C29.125 25.25 27.5 25.978 27.5 27.2C27.5 27.707 27.9062 27.85 28.3125 27.85C28.4564 27.8515 28.5974 27.8095 28.7171 27.7298V28.5049H29.5296V27.7265C29.6491 27.8103 29.7916 27.8551 29.9375 27.8549C30.3438 27.8549 30.75 27.7119 30.75 27.2049C30.75 25.978 29.125 25.25 29.125 25.25V25.25Z" fill="#2E2523"/>
<path d="M14.5001 62.625C14.0348 62.4487 13.6322 62.1385 13.3429 61.7337C13.0537 61.3288 12.8909 60.8473 12.8751 60.35C12.8607 60.232 12.8706 60.1122 12.9042 59.9982C12.9378 59.8841 12.9944 59.7782 13.0705 59.6868C13.1467 59.5955 13.2407 59.5207 13.3468 59.4671C13.4529 59.4134 13.5689 59.3821 13.6876 59.375C14.0938 59.375 14.3262 59.5375 14.5001 60.025C14.6739 59.5375 14.9063 59.375 15.3126 59.375C15.4313 59.3821 15.5472 59.4134 15.6534 59.4671C15.7595 59.5207 15.8535 59.5955 15.9296 59.6868C16.0057 59.7782 16.0623 59.8841 16.096 59.9982C16.1296 60.1122 16.1395 60.232 16.1251 60.35C16.131 60.8527 15.9767 61.3441 15.6845 61.7532C15.3923 62.1622 14.9775 62.4676 14.5001 62.625V62.625Z" fill="#A80132"/>
<path d="M21.0001 62.625C20.5348 62.4487 20.1322 62.1385 19.8429 61.7337C19.5537 61.3288 19.3909 60.8473 19.3751 60.35C19.3607 60.232 19.3706 60.1122 19.4042 59.9982C19.4378 59.8841 19.4944 59.7782 19.5705 59.6868C19.6467 59.5955 19.7407 59.5207 19.8468 59.4671C19.9529 59.4134 20.0689 59.3821 20.1876 59.375C20.5938 59.375 20.8262 59.5375 21.0001 60.025C21.1739 59.5375 21.4063 59.375 21.8126 59.375C21.9313 59.3821 22.0472 59.4134 22.1534 59.4671C22.2595 59.5207 22.3535 59.5955 22.4296 59.6868C22.5057 59.7782 22.5623 59.8841 22.596 59.9982C22.6296 60.1122 22.6395 60.232 22.6251 60.35C22.631 60.8527 22.4767 61.3441 22.1845 61.7532C21.8923 62.1622 21.4775 62.4676 21.0001 62.625Z" fill="#A80132"/>
<path d="M14.5001 67.5002C14.0348 67.3239 13.6322 67.0138 13.3429 66.6089C13.0537 66.204 12.8909 65.7226 12.8751 65.2252C12.8607 65.1072 12.8706 64.9875 12.9042 64.8734C12.9378 64.7594 12.9944 64.6534 13.0705 64.5621C13.1467 64.4707 13.2407 64.396 13.3468 64.3423C13.4529 64.2887 13.5689 64.2574 13.6876 64.2502C14.0938 64.2502 14.3262 64.4127 14.5001 64.9002C14.6739 64.4127 14.9063 64.2502 15.3126 64.2502C15.4313 64.2574 15.5472 64.2887 15.6534 64.3423C15.7595 64.396 15.8535 64.4707 15.9296 64.5621C16.0057 64.6534 16.0623 64.7594 16.096 64.8734C16.1296 64.9875 16.1395 65.1072 16.1251 65.2252C16.131 65.7279 15.9767 66.2194 15.6845 66.6284C15.3923 67.0375 14.9775 67.3428 14.5001 67.5002V67.5002Z" fill="#A80132"/>
<path d="M21.0001 67.5002C20.5348 67.3239 20.1322 67.0138 19.8429 66.6089C19.5537 66.204 19.3909 65.7226 19.3751 65.2252C19.3607 65.1072 19.3706 64.9875 19.4042 64.8734C19.4378 64.7594 19.4944 64.6534 19.5705 64.5621C19.6467 64.4707 19.7407 64.396 19.8468 64.3423C19.9529 64.2887 20.0689 64.2574 20.1876 64.2502C20.5938 64.2502 20.8262 64.4127 21.0001 64.9002C21.1739 64.4127 21.4063 64.2502 21.8126 64.2502C21.9313 64.2574 22.0472 64.2887 22.1534 64.3423C22.2595 64.396 22.3535 64.4707 22.4296 64.5621C22.5057 64.6534 22.5623 64.7594 22.596 64.8734C22.6296 64.9875 22.6395 65.1072 22.6251 65.2252C22.631 65.7279 22.4767 66.2194 22.1845 66.6284C21.8923 67.0375 21.4775 67.3428 21.0001 67.5002Z" fill="#A80132"/>
<path d="M14.5001 72.375C14.0348 72.1987 13.6322 71.8885 13.3429 71.4837C13.0537 71.0788 12.8909 70.5973 12.8751 70.1C12.8607 69.982 12.8706 69.8622 12.9042 69.7482C12.9378 69.6341 12.9944 69.5282 13.0705 69.4368C13.1467 69.3455 13.2407 69.2707 13.3468 69.2171C13.4529 69.1634 13.5689 69.1321 13.6876 69.125C14.0938 69.125 14.3262 69.2875 14.5001 69.775C14.6739 69.2875 14.9063 69.125 15.3126 69.125C15.4313 69.1321 15.5472 69.1634 15.6534 69.2171C15.7595 69.2707 15.8535 69.3455 15.9296 69.4368C16.0057 69.5282 16.0623 69.6341 16.096 69.7482C16.1296 69.8622 16.1395 69.982 16.1251 70.1C16.131 70.6026 15.9767 71.0941 15.6845 71.5032C15.3923 71.9122 14.9775 72.2176 14.5001 72.375V72.375Z" fill="#A80132"/>
<path d="M21.0001 72.375C20.5348 72.1987 20.1322 71.8885 19.8429 71.4837C19.5537 71.0788 19.3909 70.5973 19.3751 70.1C19.3607 69.982 19.3706 69.8622 19.4042 69.7482C19.4378 69.6341 19.4944 69.5282 19.5705 69.4368C19.6467 69.3455 19.7407 69.2707 19.8468 69.2171C19.9529 69.1634 20.0689 69.1321 20.1876 69.125C20.5938 69.125 20.8262 69.2875 21.0001 69.775C21.1739 69.2875 21.4063 69.125 21.8126 69.125C21.9313 69.1321 22.0472 69.1634 22.1534 69.2171C22.2595 69.2707 22.3535 69.3455 22.4296 69.4368C22.5057 69.5282 22.5623 69.6341 22.596 69.7482C22.6296 69.8622 22.6395 69.982 22.6251 70.1C22.631 70.6026 22.4767 71.0941 22.1845 71.5032C21.8923 71.9122 21.4775 72.2176 21.0001 72.375Z" fill="#A80132"/>
<path d="M53.5 28.5C53.5 28.5 50.25 36.625 45.375 36.625V39.875C50.25 39.875 53.5 31.75 53.5 31.75C53.5 31.75 64.875 39.875 74.625 39.875V36.625C64.875 36.625 53.5 28.5 53.5 28.5Z" fill="#F5C8AB"/>
<path d="M61.625 49.3926C61.625 52.0853 60.897 52.875 60 52.875C59.103 52.875 58.375 52.0853 58.375 49.3926C58.375 46.7 59.1014 43.125 60 43.125C60.8986 43.125 61.625 46.7 61.625 49.3926Z" fill="#FFBCA3"/>
<path d="M55.125 56.125H64.875C64.875 56.125 64.875 59.375 60 59.375C55.125 59.375 55.125 56.125 55.125 56.125Z" fill="#FF8088"/>
<path d="M68.125 46.375C69.0225 46.375 69.75 44.9199 69.75 43.125C69.75 41.3301 69.0225 39.875 68.125 39.875C67.2275 39.875 66.5 41.3301 66.5 43.125C66.5 44.9199 67.2275 46.375 68.125 46.375Z" fill="#1E2626"/>
<path d="M51.8735 46.375C52.771 46.375 53.4985 44.9199 53.4985 43.125C53.4985 41.3301 52.771 39.875 51.8735 39.875C50.9761 39.875 50.2485 41.3301 50.2485 43.125C50.2485 44.9199 50.9761 46.375 51.8735 46.375Z" fill="#1E2626"/>
<path d="M58.6218 66.27C61.3138 66.4147 64.0043 65.9607 66.4998 64.9408V62.7227C64.4803 63.7273 62.2554 64.2501 59.9998 64.2501C57.7442 64.2501 55.5193 63.7273 53.4998 62.7227V69.1252L53.4673 69.4014C54.595 69.6062 55.696 69.937 56.7498 70.3878V67.8755C56.7533 67.6424 56.8064 67.4127 56.9054 67.2016C57.0044 66.9905 57.1471 66.8028 57.3241 66.651C57.5011 66.4992 57.7083 66.3868 57.932 66.3211C58.1557 66.2554 58.3908 66.238 58.6218 66.27V66.27Z" fill="#EDBD9F"/>
<path d="M58.916 22.0001C60.6739 23.2063 62.5535 24.2248 64.5239 25.0389C69.3676 24.745 74.126 23.6284 78.5948 21.7369C78.1041 20.8429 77.5491 19.9859 76.934 19.1726C71.2265 21.1791 65.2033 22.137 59.1549 22.0001C59.072 22.0001 58.9989 22.0001 58.916 22.0001Z" fill="#614E4A"/>
<path d="M80.8406 28.4448C80.4773 26.0962 79.718 23.8263 78.5948 21.7319C74.126 23.6235 69.3677 24.7401 64.5239 25.0339C69.7118 27.1481 75.2402 28.3038 80.8406 28.4448V28.4448Z" fill="#4B3C39"/>
<path d="M58.9163 22.0001H59.1552C65.2039 22.1355 71.2272 21.1759 76.9343 19.1677C74.9897 16.5047 72.4405 14.3415 69.4964 12.8564C66.5523 11.3712 63.2976 10.6065 60.0002 10.6251C57.2603 10.6248 54.5466 11.1597 52.0117 12.1997C52.4376 14.2162 53.2693 16.125 54.4563 17.8099C55.6434 19.4947 57.1608 20.9204 58.9163 22.0001V22.0001Z" fill="#4B3C39"/>
<path d="M64.524 25.034C62.5538 24.2215 60.6743 23.2046 58.9161 22.0001C53.4587 22.1586 48.0209 21.2762 42.8936 19.4001C42.3078 20.2048 41.7794 21.0497 41.3125 21.9286C44.1335 23.3554 49.6731 25.2501 59.155 25.2501C61.079 25.2501 62.8665 25.1705 64.524 25.034Z" fill="#3B2F2D"/>
<path d="M55.762 74.8482C55.2904 74.9425 54.8038 74.9309 54.3372 74.8144C53.8706 74.6978 53.4357 74.4791 53.0639 74.1741C52.6921 73.8691 52.3925 73.4854 52.1869 73.0506C51.9814 72.6159 51.8748 72.1409 51.875 71.66V69.1998C51.3583 69.1543 50.8187 69.125 50.25 69.125V78.875L60 75.625V74L55.762 74.8482Z" fill="#241D1B"/>
<path d="M68.125 69.1998V71.66C68.1252 72.1409 68.0186 72.6159 67.8131 73.0506C67.6075 73.4854 67.3079 73.8691 66.9361 74.1741C66.5643 74.4791 66.1294 74.6978 65.6628 74.8144C65.1962 74.9309 64.7096 74.9425 64.238 74.8482L60 74V75.625L69.75 78.875V69.125C69.1813 69.125 68.6417 69.1543 68.125 69.1998V69.1998Z" fill="#241D1B"/>
<path d="M89.25 104.875C88.388 104.875 87.5614 104.533 86.9519 103.923C86.3424 103.314 86 102.487 86 101.625V88.6251L88.7917 78.8523C87.9493 78.1809 87.0001 77.6558 85.9838 77.2988L82.75 88.6251V111.375H92.5V101.625C92.5 102.487 92.1576 103.314 91.5481 103.923C90.9386 104.533 90.112 104.875 89.25 104.875V104.875Z" fill="#E3DECB"/>
<path d="M31.2082 78.8523L34 88.6251V101.625C34 102.487 33.6576 103.314 33.0481 103.923C32.4386 104.533 31.612 104.875 30.75 104.875C29.888 104.875 29.0614 104.533 28.4519 103.923C27.8424 103.314 27.5 102.487 27.5 101.625V111.375H37.25V88.6251L34.0163 77.2988C32.9999 77.6558 32.0507 78.1809 31.2082 78.8523V78.8523Z" fill="#E3DECB"/>
<path d="M73 104.875H47C44.4141 104.875 41.9342 103.848 40.1057 102.019C38.2772 100.191 37.25 97.7109 37.25 95.125V111.375H82.75V95.125C82.75 97.7109 81.7228 100.191 79.8943 102.019C78.0658 103.848 75.5859 104.875 73 104.875V104.875Z" fill="#241D1B"/>
</svg>
