<svg width="120" height="120" viewBox="0 0 120 120" fill="none" xmlns="http://www.w3.org/2000/svg">
<path d="M73.8603 80.2514C93.7609 80.2514 109.894 64.0774 109.894 44.1257C109.894 24.174 93.7609 8 73.8603 8C53.9598 8 37.8271 24.174 37.8271 44.1257C37.8271 64.0774 53.9598 80.2514 73.8603 80.2514Z" fill="#D1013E"/>
<path d="M73.8604 8C72.417 8 70.9941 8.08757 69.5947 8.2532C87.4845 10.3689 101.362 25.6213 101.362 44.1257C101.362 62.6302 87.4845 77.8826 69.5947 79.9982C70.9938 80.1636 72.4168 80.2514 73.8604 80.2514C93.7611 80.2514 109.894 64.0773 109.894 44.1257C109.894 24.1741 93.7611 8 73.8604 8V8Z" fill="#A80132"/>
<path d="M84.4907 28.6446C83.7601 28.1487 82.7651 28.3386 82.2691 29.0698L63.0493 57.3853C62.553 58.1161 62.7433 59.1111 63.4743 59.6071C63.7495 59.7939 64.0619 59.8835 64.3712 59.8835C64.8834 59.8835 65.3867 59.6378 65.696 59.1821L84.9157 30.8666C85.4122 30.1356 85.2219 29.1406 84.4907 28.6446V28.6446Z" fill="white"/>
<path d="M84.3917 45.0422C81.0629 45.0422 78.3545 48.3709 78.3545 52.4627C78.3545 56.5544 81.0629 59.8831 84.3917 59.8831C87.7204 59.8831 90.4287 56.5544 90.4287 52.4627C90.4287 48.3709 87.7206 45.0422 84.3917 45.0422ZM84.3917 56.6838C82.8533 56.6838 81.5537 54.7508 81.5537 52.4627C81.5537 50.1745 82.8535 48.2415 84.3917 48.2415C85.93 48.2415 87.2295 50.1745 87.2295 52.4627C87.2297 54.7508 85.9302 56.6838 84.3917 56.6838Z" fill="white"/>
<path d="M69.3663 35.7888C69.3663 31.6971 66.6579 28.3684 63.3292 28.3684C60.0004 28.3684 57.292 31.6971 57.292 35.7888C57.292 39.8806 60.0002 43.2092 63.3292 43.2092C66.6579 43.2092 69.3663 39.8806 69.3663 35.7888V35.7888ZM60.4912 35.7888C60.4912 33.5007 61.791 31.5677 63.3292 31.5677C64.8675 31.5677 66.167 33.5007 66.167 35.7888C66.167 38.0769 64.8675 40.01 63.3292 40.01C61.791 40.01 60.4912 38.0771 60.4912 35.7888Z" fill="white"/>
<path d="M35.5047 109.467C35.5047 111.97 29.8192 114 22.8058 114C15.7924 114 10.1069 111.97 10.1069 109.467C10.1069 108.114 10.1069 102.237 10.1069 102.237H35.5049C35.5047 102.237 35.5047 106.963 35.5047 109.467Z" fill="#FFC608"/>
<path d="M26.9735 102.237V109.467C26.9735 111.436 23.4548 113.111 18.54 113.737C19.8735 113.907 21.3089 114 22.8057 114C29.8191 114 35.5046 111.97 35.5046 109.467C35.5046 106.963 35.5046 102.237 35.5046 102.237H26.9735Z" fill="#FF9C00" fill-opacity="0.3"/>
<path d="M35.5047 102.237C35.5047 104.741 29.8192 106.77 22.8058 106.77C15.7924 106.77 10.1069 104.741 10.1069 102.237C10.1069 100.885 10.1069 95.0076 10.1069 95.0076H35.5049C35.5047 95.0074 35.5047 99.7333 35.5047 102.237Z" fill="#F09413"/>
<path d="M26.9735 95.0073V102.237C26.9735 104.206 23.4548 105.882 18.54 106.507C19.8735 106.677 21.3089 106.77 22.8057 106.77C29.8191 106.77 35.5046 104.74 35.5046 102.237C35.5046 99.7332 35.5046 95.0073 35.5046 95.0073H26.9735Z" fill="#DE8800"/>
<path d="M35.5047 95.0074C35.5047 97.511 29.8192 99.5407 22.8058 99.5407C15.7924 99.5407 10.1069 97.511 10.1069 95.0074C10.1069 93.6548 10.1069 87.7778 10.1069 87.7778H35.5049C35.5047 87.7778 35.5047 92.5037 35.5047 95.0074Z" fill="#FFC608"/>
<path d="M26.9735 87.7778V95.0074C26.9735 96.9766 23.4548 98.6522 18.54 99.2778C19.8735 99.4476 21.3089 99.5407 22.8057 99.5407C29.8191 99.5407 35.5046 97.511 35.5046 95.0074C35.5046 92.5037 35.5046 87.7778 35.5046 87.7778H26.9735Z" fill="#FF9C00" fill-opacity="0.3"/>
<path d="M35.5047 87.7781C35.5047 90.2817 29.8192 92.3115 22.8058 92.3115C15.7924 92.3115 10.1069 90.2817 10.1069 87.7781C10.1069 86.4256 10.1069 80.5486 10.1069 80.5486H35.5049C35.5047 80.5484 35.5047 85.2743 35.5047 87.7781Z" fill="#F09413"/>
<path d="M26.9735 80.5483V87.7779C26.9735 89.7474 23.4548 91.4227 18.54 92.0483C19.8735 92.2181 21.3089 92.3112 22.8057 92.3112C29.8191 92.3112 35.5046 90.2815 35.5046 87.7779C35.5046 85.2742 35.5046 80.5483 35.5046 80.5483H26.9735Z" fill="#DE8800"/>
<path d="M22.8058 85.0816C29.8192 85.0816 35.5047 83.052 35.5047 80.5483C35.5047 78.0446 29.8192 76.0149 22.8058 76.0149C15.7924 76.0149 10.1069 78.0446 10.1069 80.5483C10.1069 83.052 15.7924 85.0816 22.8058 85.0816Z" fill="#FFC608"/>
<path d="M60.9026 109.467C60.9026 111.97 55.2172 114 48.2038 114C41.1904 114 35.5049 111.97 35.5049 109.467C35.5049 108.114 35.5049 102.237 35.5049 102.237H60.9026V109.467Z" fill="#F09413"/>
<path d="M52.3709 102.237V109.467C52.3709 111.436 48.8522 113.112 43.9375 113.737C45.271 113.907 46.7063 114 48.2032 114C55.2166 114 60.9021 111.97 60.9021 109.467C60.9021 106.963 60.9021 102.237 60.9021 102.237H52.3709Z" fill="#DE8800"/>
<path d="M60.9026 102.237C60.9026 104.741 55.2172 106.77 48.2038 106.77C41.1904 106.77 35.5049 104.741 35.5049 102.237C35.5049 100.885 35.5049 95.0076 35.5049 95.0076H60.9026C60.9026 95.0074 60.9026 99.7333 60.9026 102.237Z" fill="#FFC608"/>
<path d="M52.3709 95.0073V102.237C52.3709 104.206 48.8522 105.882 43.9375 106.507C45.271 106.677 46.7063 106.77 48.2032 106.77C55.2166 106.77 60.9021 104.74 60.9021 102.237C60.9021 99.7332 60.9021 95.0073 60.9021 95.0073H52.3709Z" fill="#FF9C00" fill-opacity="0.3"/>
<path d="M60.9026 95.0074C60.9026 97.511 55.2172 99.5407 48.2038 99.5407C41.1904 99.5407 35.5049 97.511 35.5049 95.0074C35.5049 93.6548 35.5049 87.7778 35.5049 87.7778H60.9026V95.0074Z" fill="#F09413"/>
<path d="M52.3709 87.7778V95.0074C52.3709 96.9766 48.8522 98.6522 43.9375 99.2778C45.271 99.4476 46.7063 99.5407 48.2032 99.5407C55.2166 99.5407 60.9021 97.511 60.9021 95.0074C60.9021 92.5037 60.9021 87.7778 60.9021 87.7778H52.3709Z" fill="#DE8800"/>
<path d="M60.9026 87.7779C60.9026 90.2815 55.2172 92.3112 48.2038 92.3112C41.1904 92.3112 35.5049 90.2815 35.5049 87.7779C35.5049 86.4253 35.5049 80.5483 35.5049 80.5483H60.9026C60.9026 80.5481 60.9026 85.274 60.9026 87.7779Z" fill="#FFC608"/>
<path d="M52.3709 80.5481V87.7776C52.3709 89.7471 48.8522 91.4224 43.9375 92.0481C45.271 92.2178 46.7063 92.311 48.2032 92.311C55.2166 92.311 60.9021 90.2813 60.9021 87.7776C60.9021 85.274 60.9021 80.5481 60.9021 80.5481H52.3709Z" fill="#FF9C00" fill-opacity="0.3"/>
<path d="M60.9026 80.4334C60.9026 82.937 55.2172 84.9668 48.2038 84.9668C41.1904 84.9668 35.5049 82.937 35.5049 80.4334C35.5049 79.0809 35.5049 73.2039 35.5049 73.2039H60.9026C60.9026 73.2037 60.9026 77.9296 60.9026 80.4334Z" fill="#F09413"/>
<path d="M52.3709 73.2039V80.4334C52.3709 82.4027 48.8522 84.0782 43.9375 84.7038C45.271 84.8736 46.7063 84.9668 48.2032 84.9668C55.2166 84.9668 60.9021 82.937 60.9021 80.4334C60.9021 77.9298 60.9021 73.2039 60.9021 73.2039H52.3709Z" fill="#DE8800"/>
<path d="M60.9026 73.0892C60.9026 75.5928 55.2172 77.6225 48.2038 77.6225C41.1904 77.6225 35.5049 75.5928 35.5049 73.0892C35.5049 71.7366 35.5049 65.8596 35.5049 65.8596H60.9026C60.9026 65.8594 60.9026 70.5853 60.9026 73.0892Z" fill="#FFC608"/>
<path d="M52.3714 65.8594V73.0889C52.3714 75.0582 48.8527 76.7337 43.938 77.3593C45.2715 77.5291 46.7068 77.6223 48.2037 77.6223C55.217 77.6223 60.9025 75.5925 60.9025 73.0889C60.9025 70.5853 60.9025 65.8594 60.9025 65.8594H52.3714Z" fill="#FF9C00" fill-opacity="0.3"/>
<path d="M48.2038 70.3927C55.2172 70.3927 60.9027 68.363 60.9027 65.8593C60.9027 63.3556 55.2172 61.3259 48.2038 61.3259C41.1904 61.3259 35.5049 63.3556 35.5049 65.8593C35.5049 68.363 41.1904 70.3927 48.2038 70.3927Z" fill="#F09413"/>
<path d="M86.3006 102.237V109.467C86.3006 109.467 80.6151 114 73.6017 114C66.5883 114 60.9028 111.97 60.9028 109.467C60.9028 108.114 60.9028 102.237 60.9028 102.237H86.3006Z" fill="#FFC608"/>
<path d="M77.7694 102.237V109.467C77.7694 111.436 74.2506 113.111 69.3359 113.737C70.6694 113.907 72.1048 114 73.6016 114C80.615 114 86.3005 111.97 86.3005 109.467C86.3005 106.963 86.3005 102.237 86.3005 102.237H77.7694Z" fill="#FF9C00" fill-opacity="0.3"/>
<path d="M86.3006 102.237C86.3006 104.741 80.6151 106.77 73.6017 106.77C66.5883 106.77 60.9028 104.741 60.9028 102.237C60.9028 100.885 60.9028 95.0076 60.9028 95.0076H86.3008C86.3006 95.0074 86.3006 99.7333 86.3006 102.237Z" fill="#F09413"/>
<path d="M77.7694 95.0073V102.237C77.7694 104.206 74.2507 105.882 69.3359 106.507C70.6694 106.677 72.1048 106.77 73.6016 106.77C80.615 106.77 86.3005 104.74 86.3005 102.237C86.3005 99.7332 86.3005 95.0073 86.3005 95.0073H77.7694Z" fill="#DE8800"/>
<path d="M73.6017 99.5406C80.6151 99.5406 86.3006 97.5109 86.3006 95.0072C86.3006 92.5035 80.6151 90.4739 73.6017 90.4739C66.5883 90.4739 60.9028 92.5035 60.9028 95.0072C60.9028 97.5109 66.5883 99.5406 73.6017 99.5406Z" fill="#FFC608"/>
</svg>
