<svg width="120" height="120" viewBox="0 0 120 120" fill="none" xmlns="http://www.w3.org/2000/svg">
<path d="M106.5 88V107.5H91.5L106.5 88Z" fill="#F0EBD7"/>
<path d="M89.49 83.17L93 79L106.5 88L91.5 107.5H69L71.52 104.5L89.49 83.17ZM97.5 88C97.5 87.7033 97.412 87.4133 97.2472 87.1666C97.0824 86.92 96.8481 86.7277 96.574 86.6142C96.2999 86.5007 95.9983 86.4709 95.7074 86.5288C95.4164 86.5867 95.1491 86.7296 94.9393 86.9393C94.7296 87.1491 94.5867 87.4164 94.5288 87.7074C94.471 87.9983 94.5007 88.2999 94.6142 88.574C94.7277 88.8481 94.92 89.0824 95.1667 89.2472C95.4133 89.412 95.7033 89.5 96 89.5C96.3978 89.5 96.7794 89.342 97.0607 89.0607C97.342 88.7794 97.5 88.3978 97.5 88Z" fill="#3B2F2D"/>
<path d="M85.5 80.5L89.49 83.17L71.52 104.5H63.75C56.445 104.5 49.32 105.19 43.395 100.885L36 95.5H63C64.5913 95.5 66.1174 94.8679 67.2426 93.7427C68.3679 92.6175 69 91.0913 69 89.5V76C69 70 73.5 62.5 73.5 62.5C73.5 62.5 69 50.5 69 44.5V40.705C69.0781 39.6533 69.5674 38.6747 70.362 37.9812C71.1566 37.2877 72.1924 36.9352 73.245 37C74.1298 36.9669 75.0025 37.2127 75.74 37.7025C76.4775 38.1924 77.0425 38.9016 77.355 39.73L82.62 55.375L85.5 68.5V80.5Z" fill="#FFE8DA"/>
<path d="M69 44.5V89.5C69 91.0913 68.3679 92.6174 67.2426 93.7426C66.1174 94.8679 64.5913 95.5 63 95.5H30C28.5411 95.5007 27.1324 94.9671 26.04 94H26.715C27.7622 93.9997 28.7805 93.6561 29.6138 93.0219C30.4471 92.3876 31.0494 91.4976 31.3286 90.4883C31.6077 89.4789 31.5482 88.4059 31.1593 87.4336C30.7703 86.4613 30.0733 85.6433 29.175 85.105L24 82V81.76C24.4678 81.9222 24.9599 82.0034 25.455 82H26.715C27.7622 81.9997 28.7805 81.6561 29.6138 81.0219C30.4471 80.3876 31.0494 79.4976 31.3286 78.4883C31.6077 77.4789 31.5482 76.4059 31.1593 75.4336C30.7703 74.4613 30.0733 73.6433 29.175 73.105L24 70V69.76C24.4678 69.9222 24.9599 70.0034 25.455 70H26.715C27.9816 69.9921 29.1941 69.4855 30.0898 68.5898C30.9855 67.6942 31.4921 66.4816 31.5 65.215C31.4987 64.3878 31.284 63.575 30.8767 62.855C30.4694 62.135 29.8833 61.5323 29.175 61.105L24 58V20.5C24 18.9087 24.6321 17.3826 25.7574 16.2574C26.8826 15.1321 28.4087 14.5 30 14.5H36L39.825 19H53.175L57 14.5H63C64.5913 14.5 66.1174 15.1321 67.2426 16.2574C68.3679 17.3826 69 18.9087 69 20.5V44.5ZM51.75 63.16C53.1363 63.101 54.4488 62.5188 55.4229 61.5307C56.3971 60.5426 56.9607 59.222 57 57.835C57 53.83 53.79 51.895 50.445 48.505C47.82 45.835 46.5 44.5 46.5 44.5C46.5 44.5 45.195 45.835 42.57 48.505C39.21 51.895 36 53.83 36 57.835C36.0393 59.222 36.6029 60.5426 37.5771 61.5307C38.5512 62.5188 39.8637 63.101 41.25 63.16C41.9934 63.1171 42.7173 62.9058 43.3669 62.542C44.0166 62.1782 44.575 61.6714 45 61.06V65.5L43.5 68.5H49.5L48 65.5V61.06C48.425 61.6714 48.9834 62.1782 49.6331 62.542C50.2827 62.9058 51.0066 63.1171 51.75 63.16V63.16Z" fill="#D1013E"/>
<path d="M57 14.5L53.175 19H39.825L36 14.5H57Z" fill="#3B2F2D"/>
<path d="M48 61.06C47.46 60.415 46.98 59.74 46.5 59.17C46.02 59.74 45.54 60.415 45 61.06C44.575 61.6714 44.0166 62.1782 43.3669 62.542C42.7173 62.9058 41.9934 63.1171 41.25 63.16C39.8637 63.101 38.5512 62.5188 37.5771 61.5307C36.6029 60.5426 36.0393 59.222 36 57.835C36 53.83 39.21 51.895 42.57 48.505C45.195 45.835 46.5 44.5 46.5 44.5C46.5 44.5 47.82 45.835 50.445 48.505C53.79 51.895 57 53.83 57 57.835C56.9607 59.222 56.3971 60.5426 55.4229 61.5307C54.4488 62.5188 53.1363 63.101 51.75 63.16C51.0066 63.1171 50.2827 62.9058 49.6331 62.542C48.9834 62.1782 48.425 61.6714 48 61.06V61.06Z" fill="#3B2F2D"/>
<path d="M48 65.4999L49.5 68.4999H43.5L45 65.4999V61.0599C45.54 60.4149 46.02 59.7399 46.5 59.1699C46.98 59.7399 47.46 60.4149 48 61.0599V65.4999Z" fill="#3B2F2D"/>
<path d="M23.9998 69.76C23.5721 69.635 23.167 69.4426 22.7998 69.19L18.3148 66.205L18.0448 66.025C16.8271 65.209 15.9037 64.0235 15.4105 62.6431C14.9174 61.2627 14.8806 59.7605 15.3057 58.3576C15.7307 56.9548 16.5951 55.7255 17.7715 54.851C18.9479 53.9765 20.374 53.5029 21.8398 53.5H23.9998V58L29.1748 61.105C29.8831 61.5323 30.4692 62.135 30.8765 62.855C31.2838 63.575 31.4985 64.3878 31.4998 65.215C31.492 66.4816 30.9853 67.6941 30.0896 68.5898C29.194 69.4855 27.9815 69.9921 26.7148 70H25.4548C24.9597 70.0034 24.4676 69.9222 23.9998 69.76V69.76Z" fill="#FCD9C2"/>
<path d="M23.9996 81.7601C23.5719 81.6351 23.1668 81.4426 22.7996 81.1901L18.3146 78.2051L18.0446 78.0251C17.1118 77.4041 16.3462 76.5632 15.8151 75.5765C15.2841 74.5898 15.004 73.4876 14.9996 72.3671C14.9951 71.2465 15.2665 70.1421 15.7896 69.1512C16.3128 68.1603 17.0718 67.3134 17.9996 66.6851L18.3146 66.2051L22.7996 69.1901C23.1668 69.4427 23.5719 69.6351 23.9996 69.7601V70.0001L29.1746 73.1051C30.0729 73.6434 30.7699 74.4613 31.1589 75.4337C31.5479 76.406 31.6073 77.479 31.3282 78.4883C31.049 79.4977 30.4467 80.3876 29.6134 81.0219C28.7801 81.6562 27.7618 81.9998 26.7146 82.0001H25.4546C24.9595 82.0034 24.4674 81.9223 23.9996 81.7601V81.7601Z" fill="#F5C8AB"/>
<path d="M31.4996 89.2151C31.4988 90.4839 30.9944 91.7005 30.0972 92.5977C29.2001 93.4949 27.9834 93.9993 26.7146 94.0001H25.4546C24.5089 93.9992 23.5848 93.7173 22.7996 93.1901L18.0446 90.0251C17.1118 89.4042 16.3462 88.5633 15.8151 87.5765C15.2841 86.5898 15.004 85.4876 14.9996 84.3671C14.9951 83.2465 15.2665 82.1421 15.7896 81.1512C16.3128 80.1603 17.0718 79.3134 17.9996 78.6851L18.3146 78.2051L22.7996 81.1901C23.1668 81.4427 23.5719 81.6351 23.9996 81.7601V82.0001L29.1746 85.1051C29.8829 85.5323 30.469 86.1351 30.8763 86.8551C31.2836 87.575 31.4983 88.3879 31.4996 89.2151V89.2151Z" fill="#EDBD9F"/>
<path d="M23.9998 41.5V53.5L16.7098 50.38C15.5897 49.8996 14.6693 49.0478 14.1039 47.9681C13.5384 46.8884 13.3624 45.6468 13.6055 44.4524C13.8486 43.2581 14.4959 42.1841 15.4385 41.4113C16.381 40.6385 17.561 40.2143 18.7798 40.21C19.2721 40.2146 19.7614 40.2852 20.2348 40.42L23.9998 41.5Z" fill="#F5C8AB"/>
<path d="M96 89.5C96.8284 89.5 97.5 88.8284 97.5 88C97.5 87.1716 96.8284 86.5 96 86.5C95.1716 86.5 94.5 87.1716 94.5 88C94.5 88.8284 95.1716 89.5 96 89.5Z" fill="#F0EBD7"/>
<path d="M69 44.5C69 50.5 73.5 62.5 73.5 62.5C73.5 62.5 69 70 69 76V44.5Z" fill="#EDBD9F"/>
<path d="M53.175 17.5H39.825L37.275 14.5H36L39.825 19H53.175L57 14.5H55.725L53.175 17.5Z" fill="#241D1B"/>
<path d="M29.1747 61.105L23.9997 58V53.5H21.9087C21.0697 53.4994 20.2528 53.7689 19.5788 54.2686C18.9049 54.7683 18.4096 55.4716 18.1664 56.2746C17.9231 57.0775 17.9448 57.9374 18.2281 58.7271C18.5115 59.5168 19.0414 60.1944 19.7397 60.6595L26.8362 65.3905C27.2142 65.6418 27.6445 65.8038 28.0944 65.8641C28.5443 65.9244 29.0021 65.8816 29.433 65.7388C29.8638 65.5959 30.2566 65.3569 30.5814 65.0398C30.9062 64.7227 31.1546 64.3358 31.3077 63.9085C30.9765 62.7381 30.2144 61.7364 29.1747 61.105V61.105Z" fill="#F5C8AB"/>
<path d="M85.5 80.3635L79.764 84.535C79.3164 84.8604 78.7875 85.0556 78.2359 85.0992C77.6842 85.1427 77.1313 85.0327 76.6382 84.7815C76.1451 84.5304 75.7311 84.1477 75.442 83.6758C75.1529 83.204 74.9999 82.6614 75 82.108V62.5C75 62.5 67.518 41.5495 73.4805 37.0165C73.401 37.0165 73.3305 37 73.245 37C72.1924 36.9352 71.1566 37.2877 70.362 37.9812C69.5674 38.6747 69.0781 39.6533 69 40.705V44.5C69 50.5 73.5 62.5 73.5 62.5C73.5 62.5 69 70 69 76V89.5C69 91.0913 68.3679 92.6175 67.2426 93.7427C66.1174 94.8679 64.5913 95.5 63 95.5H36L43.395 100.885C49.32 105.19 56.445 104.5 63.75 104.5H71.52L89.49 83.17L85.5 80.5V80.3635Z" fill="#FFD4B8"/>
<path d="M103.5 98.5L106.5 94.4995V88L91.5 107.5H106.5V104.5C105.804 104.5 105.121 104.306 104.529 103.94C103.936 103.574 103.457 103.05 103.146 102.427C102.834 101.804 102.703 101.107 102.765 100.413C102.828 99.7196 103.082 99.0571 103.5 98.5V98.5Z" fill="#D9D4C2"/>
<path d="M90.15 101.831C87.8655 101.377 85.8114 100.139 84.3421 98.3317C82.8729 96.5242 82.0808 94.2606 82.1025 91.9314L71.52 104.5L69 107.5H91.5L96.4935 101.008C94.526 101.969 92.2976 102.258 90.15 101.831V101.831Z" fill="#241D1B"/>
<path d="M48.846 68.4999H43.5L45 65.4999V64.5654C44.434 63.9164 43.8805 63.2469 43.3395 62.5569C42.7135 62.9499 41.9891 63.158 41.25 63.1569C39.8642 63.098 38.5522 62.5162 37.578 61.5287C36.6039 60.5413 36.0401 59.2214 36 57.8349C36.0092 56.2741 36.5552 54.7641 37.5465 53.5584C31.4695 41.5186 28.3673 28.1974 28.5 14.7114C27.2143 15.0407 26.0745 15.7881 25.2599 16.8359C24.4453 17.8838 24.0021 19.1727 24 20.4999V57.9999L29.175 61.1049C29.8833 61.5322 30.4694 62.1349 30.8767 62.8549C31.284 63.5749 31.4987 64.3878 31.5 65.2149C31.4921 66.4816 30.9855 67.6941 30.0898 68.5897C29.1941 69.4854 27.9816 69.9921 26.715 69.9999H25.455C24.9599 70.0033 24.4678 69.9222 24 69.7599V69.9999L29.175 73.1049C30.0733 73.6432 30.7703 74.4612 31.1593 75.4335C31.5482 76.4058 31.6077 77.4789 31.3286 78.4882C31.0494 79.4975 30.4471 80.3875 29.6138 81.0218C28.7805 81.6561 27.7622 81.9997 26.715 81.9999H25.455C24.9599 82.0033 24.4678 81.9222 24 81.7599V81.9999L29.175 85.1049C30.0733 85.6432 30.7703 86.4612 31.1593 87.4335C31.5482 88.4058 31.6077 89.4789 31.3286 90.4882C31.0494 91.4975 30.4471 92.3875 29.6138 93.0218C28.7805 93.6561 27.7622 93.9997 26.715 93.9999H26.04C27.1324 94.967 28.5411 95.5006 30 95.4999H63C64.5913 95.4999 66.1174 94.8678 67.2426 93.7426C68.3679 92.6174 69 91.0912 69 89.4999V77.4429C61.4472 76.8932 54.3214 73.7312 48.846 68.4999V68.4999Z" fill="#A80132"/>
<path d="M36 57.8351C36.0393 59.2221 36.6029 60.5426 37.5771 61.5307C38.5512 62.5188 39.8637 63.101 41.25 63.16C41.9891 63.1611 42.7135 62.9531 43.3395 62.5601C41.1421 59.7402 39.2032 56.728 37.5465 53.5601C36.5556 54.7653 36.0095 56.2748 36 57.8351V57.8351Z" fill="#241D1B"/>
<path d="M45 64.5654V65.4999L43.5 68.4999H48.846C47.4873 67.2657 46.203 65.9518 45 64.5654V64.5654Z" fill="#241D1B"/>
<path d="M37.275 16H30C28.8076 16.0036 27.6651 16.4788 26.822 17.322C25.9788 18.1651 25.5036 19.3076 25.5 20.5V58.9L24 58V20.5C24 18.9087 24.6321 17.3826 25.7574 16.2574C26.8826 15.1321 28.4087 14.5 30 14.5H36L37.275 16Z" fill="#3B2F2D"/>
<path d="M69 20.5V89.5C69 91.0913 68.3679 92.6174 67.2427 93.7426C66.1175 94.8679 64.5913 95.5 63 95.5H30C29.3454 95.5065 28.695 95.3947 28.08 95.17C27.9405 95.1333 27.8048 95.0831 27.675 95.02C27.0767 94.7742 26.5239 94.4293 26.04 94H26.715C27.29 94.0028 27.8602 93.8959 28.395 93.685C28.9033 93.8971 29.4493 94.0043 30 94H63C64.1924 93.9964 65.3349 93.5212 66.1781 92.6781C67.0212 91.8349 67.4965 90.6924 67.5 89.5V20.5C67.4965 19.3076 67.0212 18.1651 66.1781 17.322C65.3349 16.4788 64.1924 16.0036 63 16H55.725L57 14.5H63C64.5913 14.5 66.1175 15.1321 67.2427 16.2574C68.3679 17.3826 69 18.9087 69 20.5Z" fill="#3B2F2D"/>
</svg>
