<svg width="48" height="49" viewBox="0 0 48 49" fill="none" xmlns="http://www.w3.org/2000/svg">
<path d="M47.7547 23.7065L44.5434 19.0089L44.8892 13.3356C44.924 12.7648 44.6096 12.2298 44.0941 11.9823L38.9751 9.52497L36.5177 4.40593C36.2668 3.88337 35.7206 3.568 35.1431 3.61234L29.491 4.04293L24.8079 0.755305C24.323 0.414898 23.6769 0.414898 23.192 0.755305L18.5089 4.04284L12.8568 3.61225C12.2797 3.5679 11.7331 3.88328 11.4823 4.40584L9.02481 9.52488L3.90577 11.9823C3.38321 12.2331 3.06802 12.7788 3.11208 13.3568L3.54268 19.0089L0.255235 23.6921C-0.0850782 24.177 -0.0850782 24.8232 0.255235 25.3081L3.54277 29.9912L3.11218 35.6433C3.06811 36.2212 3.3833 36.767 3.90586 37.0178L9.0249 39.4752L11.4823 44.5943C11.7332 45.1168 12.2784 45.4321 12.8568 45.3879L18.5089 44.9572L23.192 48.2448C23.4345 48.415 23.7172 48.5001 24 48.5001C24.2827 48.5001 24.5655 48.415 24.8079 48.2448L29.491 44.9572L35.1431 45.3879C35.72 45.4318 36.2668 45.1167 36.5177 44.5943L38.9751 39.4752L44.0941 37.0178C44.6167 36.7671 44.9318 36.2212 44.8878 35.6433L44.4572 29.9912L47.7447 25.3081C48.0814 24.8284 48.0854 24.1902 47.7547 23.7065V23.7065Z" fill="url(#paint0_linear_169_6609)"/>
<defs>
<linearGradient id="paint0_linear_169_6609" x1="-1.0259" y1="35.0914" x2="41.5965" y2="-33.5375" gradientUnits="userSpaceOnUse">
<stop stop-color="#B0773E"/>
<stop offset="0.21" stop-color="#DFB679"/>
<stop offset="0.33" stop-color="#F6D596"/>
<stop offset="0.52" stop-color="#FFE7AA"/>
<stop offset="0.73" stop-color="#F6D596"/>
<stop offset="1" stop-color="#B0773E"/>
</linearGradient>
</defs>
</svg>
