<svg width="18" height="18" viewBox="0 0 18 18" fill="none" xmlns="http://www.w3.org/2000/svg">
<path d="M9.63012 1.38731L11.5582 5.22292C11.6083 5.32252 11.6824 5.40865 11.774 5.47401C11.8657 5.53936 11.9721 5.58196 12.0843 5.59808L16.4005 6.21775C16.5298 6.23609 16.6513 6.28962 16.7512 6.37211C16.8511 6.4546 16.9254 6.56276 16.9658 6.68451C17.0061 6.80625 17.0109 6.93672 16.9795 7.06099C16.9482 7.18525 16.8819 7.29843 16.7883 7.38772L13.6649 10.3758C13.5836 10.4533 13.5227 10.5491 13.4876 10.6547C13.4524 10.7604 13.444 10.8728 13.4631 10.9823L14.1971 15.2016C14.2185 15.3276 14.2036 15.457 14.154 15.5752C14.1044 15.6933 14.0222 15.7955 13.9165 15.8703C13.8108 15.9451 13.6859 15.9894 13.5558 15.9983C13.4258 16.0073 13.2958 15.9805 13.1805 15.9209L9.32546 13.9299C9.2249 13.8782 9.11303 13.8511 8.99944 13.8511C8.88585 13.8511 8.77391 13.8782 8.67335 13.9299L4.81715 15.9209C4.70184 15.9805 4.57183 16.0073 4.44178 15.9983C4.31173 15.9894 4.18681 15.9451 4.08112 15.8703C3.97542 15.7955 3.89317 15.6933 3.84359 15.5752C3.794 15.457 3.77907 15.3276 3.8005 15.2016L4.53452 10.9823C4.55404 10.8729 4.54597 10.7604 4.511 10.6547C4.47603 10.549 4.41522 10.4533 4.33388 10.3758L1.21171 7.38772C1.11808 7.29843 1.05184 7.18525 1.02047 7.06099C0.989109 6.93672 0.993855 6.80625 1.03421 6.68451C1.07457 6.56276 1.14891 6.4546 1.24882 6.37211C1.34873 6.28962 1.47025 6.23609 1.59955 6.21775L5.9158 5.59808C6.02791 5.58187 6.13429 5.5392 6.22591 5.47386C6.31753 5.40852 6.39165 5.32246 6.44186 5.22292L8.36996 1.38731C8.42721 1.27126 8.51666 1.17326 8.6281 1.10476C8.73954 1.03627 8.86848 1 9.00004 1C9.13159 1 9.26046 1.03627 9.3719 1.10476C9.48334 1.17326 9.57287 1.27126 9.63012 1.38731Z" fill="#C5C6CA" stroke="#C5C6CA" stroke-linecap="round" stroke-linejoin="round"/>
</svg>
