<svg width="32" height="32" viewBox="0 0 32 32" fill="none" xmlns="http://www.w3.org/2000/svg">
<g clip-path="url(#clip0_155_13873)">
<path d="M32 16C32 7.16344 24.8366 0 16 0C7.16344 0 0 7.16344 0 16C0 24.8366 7.16344 32 16 32C24.8366 32 32 24.8366 32 16Z" fill="url(#paint0_linear_155_13873)"/>
<path opacity="0.1" d="M28.0419 5.47368C25.7093 9.75578 22.4103 14.1726 18.2882 18.2947C14.1661 22.4168 9.74929 25.7095 5.4735 28.0421C5.20543 27.8091 4.94508 27.5663 4.69245 27.3137C3.16541 25.8376 1.94752 24.0723 1.10979 22.1207C0.272062 20.1691 -0.168741 18.0702 -0.186914 15.9465C-0.205087 13.8227 0.199734 11.7166 1.00394 9.75097C1.80815 7.7853 2.99566 5.99942 4.49721 4.49744C5.99877 2.99547 7.78432 1.80746 9.74976 1.00271C11.7152 0.197947 13.8212 -0.207462 15.9449 -0.189881C18.0687 -0.172301 20.1677 0.267916 22.1195 1.1051C24.0714 1.94229 25.837 3.15969 27.3135 4.68631C27.5661 4.93894 27.8089 5.2014 28.0419 5.47368V5.47368Z" fill="white"/>
<path d="M19.7896 7.57898H12.2107C10.9823 7.57898 9.80425 8.06695 8.93566 8.93554C8.06707 9.80413 7.5791 10.9822 7.5791 12.2106V19.7895C7.5791 21.0179 8.06707 22.1959 8.93566 23.0645C9.80425 23.9331 10.9823 24.4211 12.2107 24.4211H19.7896C21.018 24.4211 22.1961 23.9331 23.0646 23.0645C23.9332 22.1959 24.4212 21.0179 24.4212 19.7895V12.2106C24.4212 10.9822 23.9332 9.80413 23.0646 8.93554C22.1961 8.06695 21.018 7.57898 19.7896 7.57898ZM22.9475 19.1242C22.9475 20.1382 22.5447 21.1106 21.8277 21.8276C21.1108 22.5446 20.1383 22.9474 19.1244 22.9474H12.8759C11.862 22.9474 10.8895 22.5446 10.1726 21.8276C9.45558 21.1106 9.05279 20.1382 9.05279 19.1242V12.8758C9.05279 11.8619 9.45558 10.8894 10.1726 10.1724C10.8895 9.45546 11.862 9.05266 12.8759 9.05266H19.1244C20.1383 9.05266 21.1108 9.45546 21.8277 10.1724C22.5447 10.8894 22.9475 11.8619 22.9475 12.8758V19.1242Z" fill="white"/>
<path d="M19.0722 12.96L19.0322 12.92L18.9985 12.8863C18.2025 12.0931 17.1244 11.6479 16.0006 11.6484C15.4331 11.6523 14.8719 11.7679 14.3491 11.9887C13.8264 12.2095 13.3522 12.5312 12.9538 12.9353C12.5553 13.3394 12.2404 13.8181 12.027 14.3439C11.8136 14.8698 11.7059 15.4325 11.7101 16C11.7092 17.1517 12.1632 18.2571 12.9732 19.0758C13.37 19.4774 13.8428 19.7959 14.364 20.0128C14.8853 20.2297 15.4445 20.3406 16.009 20.339C16.8558 20.3212 17.6792 20.0574 18.3787 19.5798C19.0781 19.1021 19.6235 18.4312 19.9482 17.6489C20.273 16.8667 20.363 16.0068 20.2075 15.1742C20.0519 14.3416 19.6575 13.5723 19.0722 12.96V12.96ZM16.0006 18.8548C15.4344 18.8627 14.8785 18.702 14.4038 18.3932C13.9292 18.0844 13.557 17.6414 13.3348 17.1205C13.1126 16.5996 13.0503 16.0244 13.1559 15.468C13.2615 14.9116 13.5302 14.3992 13.9278 13.996C14.3254 13.5927 14.834 13.3168 15.3888 13.2034C15.9436 13.09 16.5197 13.1441 17.0436 13.359C17.5676 13.5738 18.0158 13.9396 18.3313 14.4099C18.6468 14.8802 18.8153 15.4337 18.8153 16C18.8181 16.3723 18.7475 16.7415 18.6075 17.0865C18.4675 17.4315 18.2609 17.7455 17.9995 18.0107C17.7381 18.2758 17.427 18.4868 17.0841 18.6316C16.7411 18.7765 16.3729 18.8523 16.0006 18.8548V18.8548Z" fill="white"/>
<path d="M21.5642 10.4484C21.5653 10.5835 21.5397 10.7175 21.489 10.8427C21.4382 10.9679 21.3633 11.0819 21.2685 11.1781C21.1736 11.2743 21.0607 11.3509 20.9363 11.4034C20.8118 11.456 20.6782 11.4834 20.5431 11.4842C20.4091 11.4842 20.2765 11.4575 20.1529 11.4059C20.0293 11.3542 19.9172 11.2785 19.8231 11.1832C19.6805 11.0385 19.5835 10.8551 19.5441 10.6558C19.5047 10.4564 19.5247 10.2499 19.6016 10.0619C19.6785 9.8738 19.8089 9.71243 19.9766 9.59777C20.1444 9.48312 20.3421 9.42022 20.5452 9.41687C20.783 9.41682 21.0132 9.50028 21.1957 9.65266L21.2168 9.67371C21.2507 9.70135 21.2818 9.73239 21.3094 9.76634L21.3326 9.79161C21.4833 9.97726 21.5651 10.2093 21.5642 10.4484V10.4484Z" fill="white"/>
</g>
<defs>
<linearGradient id="paint0_linear_155_13873" x1="4.68632" y1="4.68632" x2="27.3137" y2="27.3137" gradientUnits="userSpaceOnUse">
<stop stop-color="#FAE100"/>
<stop offset="0.15" stop-color="#FCB720"/>
<stop offset="0.3" stop-color="#FF7950"/>
<stop offset="0.5" stop-color="#FF1C74"/>
<stop offset="1" stop-color="#6C1CD1"/>
</linearGradient>
<clipPath id="clip0_155_13873">
<rect width="32" height="32" fill="white"/>
</clipPath>
</defs>
</svg>
