<svg width="32" height="32" viewBox="0 0 32 32" fill="none" xmlns="http://www.w3.org/2000/svg">
<path d="M16 32C24.8366 32 32 24.8366 32 16C32 7.16344 24.8366 0 16 0C7.16344 0 0 7.16344 0 16C0 24.8366 7.16344 32 16 32Z" fill="#080D0C" fill-opacity="0.6"/>
<path d="M21.0696 14.1055L20.7478 16.8927C20.7344 17.0199 20.6748 17.1378 20.5803 17.2239C20.4858 17.31 20.3629 17.3585 20.2351 17.36H17.326L17.3114 25.6236C17.3124 25.7216 17.2748 25.8159 17.2068 25.8864C17.1387 25.9568 17.0457 25.9976 16.9478 26H14.0005C13.9515 26 13.903 25.9902 13.8579 25.971C13.8128 25.9518 13.7721 25.9237 13.7381 25.8884C13.7041 25.8531 13.6777 25.8113 13.6603 25.7654C13.6429 25.7196 13.6349 25.6708 13.6369 25.6218V17.36H11.4551C11.3865 17.3593 11.3188 17.3451 11.2558 17.3182C11.1927 17.2913 11.1356 17.2523 11.0877 17.2033C11.0397 17.1543 11.0019 17.0964 10.9763 17.0328C10.9508 16.9693 10.938 16.9013 10.9387 16.8327L10.9278 14.0455C10.9268 13.9767 10.9394 13.9084 10.9648 13.8445C10.9903 13.7806 11.028 13.7223 11.076 13.673C11.1239 13.6237 11.1811 13.5844 11.2443 13.5572C11.3075 13.53 11.3754 13.5155 11.4441 13.5145H13.6369V10.8236C13.6369 7.7 15.4914 6 18.2114 6H20.4405C20.5094 6.00071 20.5775 6.01502 20.6409 6.04211C20.7043 6.0692 20.7617 6.10854 20.8098 6.15786C20.858 6.20719 20.8959 6.26553 20.9215 6.32955C20.947 6.39356 20.9596 6.46199 20.9587 6.53091V8.87636C20.9596 8.94528 20.947 9.01371 20.9215 9.07773C20.8959 9.14174 20.858 9.20009 20.8098 9.24941C20.7617 9.29874 20.7043 9.33807 20.6409 9.36516C20.5775 9.39225 20.5094 9.40656 20.4405 9.40727H19.0732C17.5951 9.40727 17.3078 10.1345 17.3078 11.1855V13.5145H20.5569C20.6308 13.5155 20.7036 13.532 20.7707 13.5631C20.8377 13.5942 20.8974 13.6391 20.9458 13.695C20.9942 13.7508 21.0303 13.8162 21.0516 13.887C21.073 13.9577 21.0791 14.0322 21.0696 14.1055V14.1055Z" fill="white"/>
</svg>
