<svg width="32" height="32" viewBox="0 0 32 32" fill="none" xmlns="http://www.w3.org/2000/svg">
<path d="M25.5603 17.2878V23.8842H21.7359V17.7299C21.7359 16.1846 21.1837 15.1293 19.799 15.1293C18.7423 15.1293 18.1145 15.8397 17.8373 16.5277C17.7366 16.7735 17.7106 17.1149 17.7106 17.4598V23.8839H13.8859C13.8859 23.8839 13.9373 13.4605 13.8859 12.3815H17.7109V14.0115C17.7032 14.0243 17.6924 14.0369 17.6855 14.0492H17.7109V14.0115C18.2192 13.2294 19.1256 12.1114 21.1578 12.1114C23.6739 12.1114 25.5603 13.7554 25.5603 17.2878ZM9.88491 6.83691C8.57663 6.83691 7.7207 7.6957 7.7207 8.82401C7.7207 9.92836 8.55182 10.812 9.83472 10.812H9.85953C11.1935 10.812 12.0229 9.92836 12.0229 8.82401C11.9975 7.6957 11.1935 6.83691 9.88491 6.83691ZM7.94802 23.8842H11.7713V12.3815H7.94802V23.8842Z" fill="#F1F2F2"/>
<path d="M16 32C24.8366 32 32 24.8366 32 16C32 7.16344 24.8366 0 16 0C7.16344 0 0 7.16344 0 16C0 24.8366 7.16344 32 16 32Z" fill="#007AB9"/>
<path d="M25.5603 17.2875V23.884H21.7359V17.7296C21.7359 16.1843 21.1837 15.129 19.799 15.129C18.7423 15.129 18.1145 15.8395 17.8373 16.5274C17.7366 16.7733 17.7106 17.1147 17.7106 17.4595V23.8837H13.8859C13.8859 23.8837 13.9373 13.4602 13.8859 12.3813H17.7109V14.0113C17.7032 14.0241 17.6924 14.0366 17.6856 14.0489H17.7109V14.0113C18.2192 13.2292 19.1256 12.1112 21.1578 12.1112C23.6739 12.1112 25.5603 13.7551 25.5603 17.2875ZM9.88492 6.83667C8.57663 6.83667 7.7207 7.69545 7.7207 8.82376C7.7207 9.92812 8.55182 10.8117 9.83472 10.8117H9.85953C11.1935 10.8117 12.0229 9.92812 12.0229 8.82376C11.9975 7.69545 11.1935 6.83667 9.88492 6.83667ZM7.94802 23.884H11.7713V12.3813H7.94802V23.884Z" fill="#F1F2F2"/>
</svg>
