<svg width="32" height="32" viewBox="0 0 32 32" fill="none" xmlns="http://www.w3.org/2000/svg">
<g clip-path="url(#clip0_178_5290)">
<path d="M32 16C32 7.16344 24.8366 0 16 0C7.16344 0 0 7.16344 0 16C0 24.8366 7.16344 32 16 32C24.8366 32 32 24.8366 32 16Z" fill="#080D0C" fill-opacity="0.6"/>
<path opacity="0.1" d="M28.0419 5.47368C25.7093 9.75579 22.4103 14.1726 18.2882 18.2947C14.1661 22.4168 9.74929 25.7095 5.47351 28.0421C5.20543 27.8091 4.94508 27.5663 4.69245 27.3137C3.16541 25.8376 1.94752 24.0723 1.10979 22.1207C0.272062 20.1691 -0.168741 18.0702 -0.186914 15.9465C-0.205087 13.8227 0.199734 11.7166 1.00394 9.75097C1.80815 7.7853 2.99566 5.99942 4.49721 4.49744C5.99877 2.99547 7.78432 1.80746 9.74976 1.00271C11.7152 0.197947 13.8212 -0.207462 15.9449 -0.189881C18.0687 -0.172301 20.1677 0.267916 22.1195 1.1051C24.0714 1.94229 25.837 3.15969 27.3135 4.68631C27.5661 4.93894 27.8089 5.2014 28.0419 5.47368V5.47368Z" fill="white"/>
<path d="M19.7896 7.5791H12.2107C10.9823 7.5791 9.80425 8.06707 8.93566 8.93566C8.06707 9.80425 7.5791 10.9823 7.5791 12.2107V19.7896C7.5791 21.018 8.06707 22.1961 8.93566 23.0646C9.80425 23.9332 10.9823 24.4212 12.2107 24.4212H19.7896C21.018 24.4212 22.1961 23.9332 23.0646 23.0646C23.9332 22.1961 24.4212 21.018 24.4212 19.7896V12.2107C24.4212 10.9823 23.9332 9.80425 23.0646 8.93566C22.1961 8.06707 21.018 7.5791 19.7896 7.5791ZM22.9475 19.1244C22.9475 20.1383 22.5447 21.1108 21.8277 21.8277C21.1108 22.5447 20.1383 22.9475 19.1244 22.9475H12.8759C11.862 22.9475 10.8895 22.5447 10.1726 21.8277C9.45558 21.1108 9.05279 20.1383 9.05279 19.1244V12.8759C9.05279 11.862 9.45558 10.8895 10.1726 10.1726C10.8895 9.45558 11.862 9.05279 12.8759 9.05279H19.1244C20.1383 9.05279 21.1108 9.45558 21.8277 10.1726C22.5447 10.8895 22.9475 11.862 22.9475 12.8759V19.1244Z" fill="white"/>
<path d="M19.0722 12.96L19.0322 12.92L18.9985 12.8863C18.2025 12.0931 17.1244 11.6479 16.0006 11.6484C15.4331 11.6523 14.8719 11.7679 14.3491 11.9887C13.8264 12.2095 13.3522 12.5312 12.9538 12.9353C12.5553 13.3394 12.2404 13.8181 12.027 14.3439C11.8136 14.8698 11.7059 15.4325 11.7101 16C11.7092 17.1517 12.1632 18.2571 12.9732 19.0758C13.37 19.4774 13.8428 19.7959 14.364 20.0128C14.8853 20.2297 15.4445 20.3406 16.009 20.339C16.8558 20.3212 17.6792 20.0574 18.3787 19.5798C19.0781 19.1021 19.6235 18.4312 19.9482 17.6489C20.273 16.8667 20.363 16.0068 20.2075 15.1742C20.0519 14.3416 19.6575 13.5723 19.0722 12.96V12.96ZM16.0006 18.8548C15.4343 18.8627 14.8785 18.702 14.4038 18.3932C13.9292 18.0844 13.557 17.6414 13.3348 17.1205C13.1126 16.5996 13.0503 16.0244 13.1559 15.468C13.2615 14.9116 13.5302 14.3992 13.9278 13.996C14.3254 13.5927 14.834 13.3168 15.3888 13.2034C15.9436 13.09 16.5196 13.1441 17.0436 13.359C17.5676 13.5738 18.0158 13.9396 18.3313 14.4099C18.6468 14.8802 18.8153 15.4337 18.8153 16C18.8181 16.3723 18.7475 16.7415 18.6075 17.0865C18.4675 17.4315 18.2609 17.7455 17.9995 18.0107C17.7381 18.2758 17.427 18.4868 17.0841 18.6316C16.7411 18.7765 16.3729 18.8523 16.0006 18.8548V18.8548Z" fill="white"/>
<path d="M21.5642 11.4486C21.5653 11.5837 21.5397 11.7176 21.489 11.8429C21.4382 11.9681 21.3633 12.082 21.2685 12.1782C21.1736 12.2745 21.0607 12.351 20.9363 12.4035C20.8118 12.4561 20.6782 12.4835 20.5431 12.4844C20.4091 12.4843 20.2765 12.4577 20.1529 12.406C20.0293 12.3543 19.9172 12.2786 19.8231 12.1833C19.6805 12.0386 19.5835 11.8552 19.5441 11.6559C19.5047 11.4566 19.5247 11.2501 19.6016 11.062C19.6785 10.8739 19.8089 10.7126 19.9766 10.5979C20.1444 10.4832 20.3421 10.4203 20.5452 10.417C20.783 10.4169 21.0132 10.5004 21.1957 10.6528L21.2168 10.6738C21.2507 10.7015 21.2818 10.7325 21.3094 10.7665L21.3326 10.7917C21.4833 10.9774 21.5651 11.2095 21.5642 11.4486V11.4486Z" fill="white"/>
</g>
<defs>
<clipPath id="clip0_178_5290">
<rect width="32" height="32" fill="white"/>
</clipPath>
</defs>
</svg>
