<svg width="48" height="48" viewBox="0 0 48 48" fill="none" xmlns="http://www.w3.org/2000/svg">
<g clip-path="url(#clip0_181_4905)">
<path d="M46.0641 27.66C45.3025 26.6074 44.9496 25.3218 44.951 24.0226C44.9512 24.0151 44.9512 24.0076 44.9512 23.9999C44.9512 12.429 35.571 3.04883 24.0001 3.04883C21.4688 3.04883 19.0434 3.49934 16.7974 4.32266C15.5824 4.76802 14.2513 4.85362 13.0056 4.50272C11.9053 4.19276 10.7298 4.06203 9.51216 4.14583C4.39708 4.49781 0.279149 8.68984 0.0140864 13.8102C-0.112459 16.2542 0.620474 18.5213 1.93597 20.3397C2.69752 21.3922 3.05045 22.6778 3.0489 23.977C3.0489 23.9846 3.0489 23.9921 3.0489 23.9998C3.0489 35.5707 12.4289 44.9508 24 44.9508C26.5314 44.9508 28.9568 44.5003 31.2026 43.677C32.4177 43.2316 33.7487 43.146 34.9944 43.4969C36.0948 43.8069 37.2701 43.9376 38.4879 43.8538C43.603 43.5018 47.7208 39.3099 47.986 34.1897C48.1125 31.7457 47.3796 29.4784 46.0641 27.66ZM24.767 20.2438C28.9915 21.2483 35.3753 22.7664 35.3753 29.7982C35.3753 33.2622 33.6694 35.9047 30.5716 37.2388C28.3611 38.1908 25.8592 38.3192 23.7034 38.3192C17.0785 38.3192 12.8943 33.1679 12.7194 32.9486C11.6345 31.5878 11.8577 29.605 13.2186 28.5201C14.5791 27.4347 16.5619 27.6586 17.6471 29.019C17.6568 29.0306 20.1591 31.9043 23.7034 32.0168C27.9715 32.1522 28.9466 30.8823 29.0727 29.7983C29.2268 28.4745 28.0491 27.5026 23.3086 26.3753C19.2905 25.4197 13.2176 23.9756 13.2176 17.4995C13.2176 15.4828 14.0379 8.90271 24.5927 8.90271C31.2573 8.90271 35.1913 14.15 35.3555 14.3734C36.3863 15.7757 36.0853 17.7482 34.683 18.7789C33.2869 19.8051 31.3268 19.5114 30.292 18.1261C30.2178 18.0307 27.966 15.5254 24.5927 15.2052C22.0403 14.9627 19.5201 15.8832 19.5201 17.2428C19.5201 18.6834 20.2438 19.1681 24.767 20.2438Z" fill="#00AAF2"/>
</g>
<defs>
<clipPath id="clip0_181_4905">
<rect width="48" height="48" fill="white"/>
</clipPath>
</defs>
</svg>
